<?xml version="1.0" encoding="UTF-8"?>
<svg id="Layer_1" xmlns="http://www.w3.org/2000/svg" version="1.1" viewBox="0 0 400 142">
  <!-- Generator: Adobe Illustrator 29.6.1, SVG Export Plug-In . SVG Version: 2.1.1 Build 9)  -->
  <defs>
    <style>
      .st0 {
        fill: #73615a;
      }

      .st1 {
        isolation: isolate;
      }

      .st2 {
        fill: #ef4123;
      }
    </style>
  </defs>
  <g>
    <path class="st2" d="M33.154,11.339c2.395,7.549,23.97,55.642-33.154,126.636C37.626,64.603,19.184,29.647,15.231,19.978c-4.534-11.064.168-15.62,5.113-17.458,5.993-2.233,10.891,2.789,12.811,8.819h0Z"/>
    <path class="st2" d="M137.23,80.369c-8.034-.87-61.719-.762-105.396-80.369,53.7,63.078,93.831,60.528,104.467,60.846,12.182.36,14.571,6.399,14.321,11.566-.309,6.267-6.976,8.652-13.391,7.957h0Z"/>
    <path class="st2" d="M15.414,123.216c5.456-5.832,37.024-48.312,128.505-35.868-83.749,5.227-105.305,38.433-111.841,46.653-7.477,9.404-13.871,7.731-17.988,4.487-4.996-3.939-3.031-10.611,1.324-15.271h0Z"/>
  </g>
  <g>
    <path class="st2" d="M209.384,29.954c3.027,3.007,3.817,6.469,3.817,13.074v25.917c0,3.006.748,4.419,2.936,4.419,1.723,0,2.981-.866,4.283-1.959l1.071,1.594c-2.654,1.959-4.656,3.417-8.709,3.417-6.657,0-8.195-3.918-8.195-8.29-4.097,6.603-10.105,8.29-14.666,8.29-6.379,0-12.107-3.143-12.107-10.431,0-7.378,5.82-10.659,15.366-14.577,6.379-2.596,11.406-4.19,11.406-7.923v-5.786c0-7.834-3.91-9.383-8.846-9.383-3.259,0-7.264.637-9.453,3.326,2.376.592,4.472,2.643,4.472,5.692,0,3.19-2.189,5.056-5.587,5.056-3.261,0-5.17-2.413-5.17-5.784,0-2.733,1.816-4.875,4.47-6.651,2.702-1.73,7.266-3.506,13.365-3.506,5.355,0,9.36,1.367,11.547,3.506h0ZM204.587,47.308c-1.024,1.503-3.118,2.46-9.124,5.33-4.192,1.959-9.267,4.646-9.267,11.843,0,5.603,3.259,8.199,7.636,8.199,3.819,0,7.544-1.959,10.755-7.059v-18.312h0Z"/>
    <path class="st2" d="M262.682,33.78c0,3.188-2.094,5.877-5.446,5.877-2.656,0-5.077-1.732-5.077-4.828,0-2.324,1.536-4.009,3.261-5.056-.466-.639-1.165-.911-2.003-.911-8.01,0-13.272,10.612-13.272,17.535v19.768c0,6.057,3.819,7.651,10.106,7.651v1.959c-2.935-.089-8.755-.363-14.669-.363-4.376,0-9.08.274-11.267.363v-1.959c5.262,0,7.264-1.503,7.264-6.696v-29.196c0-5.603-1.725-8.244-7.264-8.244v-1.959c2.001.18,4.005.274,5.913.274,3.725,0,7.171-.365,9.918-1.276v11.661c2.003-5.421,7.171-11.934,13.829-11.934,5.17,0,8.707,3.326,8.707,7.333h0Z"/>
    <path class="st2" d="M296.195,27.814v1.868h-14.11v36.119c0,5.877,2.28,7.925,6.099,7.925s6.613-2.685,8.616-9.974l1.862.454c-1.304,7.288-4.656,12.891-12.387,12.891-4.376,0-6.937-1.049-9.032-3.099-2.793-2.778-3.725-6.422-3.725-13.072v-31.246h-9.174v-1.868h9.174v-14.256c3.119-.093,6.192-.456,8.568-1.322v15.579h14.11,0Z"/>
    <path class="st2" d="M343.769,65.71c0,5.603,1.723,8.199,7.266,8.199v1.959c-1.999-.181-4.008-.274-5.917-.274-3.723,0-7.167.365-9.917,1.322v-11.024c-3.259,8.107-9.547,11.206-15.644,11.206-4.471,0-7.73-1.322-9.917-3.555-2.376-2.502-3.168-6.329-3.168-12.206v-23.412c0-5.603-1.677-8.244-7.217-8.244v-1.959c2.003.18,4.005.274,5.913.274,3.725,0,7.125-.365,9.918-1.276v36.667c0,5.784.375,10.705,7.218,10.705,7.451,0,12.897-7.382,12.897-16.901v-19.267c0-5.603-1.723-8.244-7.261-8.244v-1.959c1.999.18,4.001.274,5.915.274,3.719,0,7.167-.365,9.914-1.276v38.991Z"/>
    <path class="st2" d="M383.24,29.864c.649.501,1.211.775,1.675.775,1.117,0,1.818-1.322,2.144-4.101h2.187c-.28,3.415-.369,7.834-.369,15.85h-2.189c-1.169-6.921-4.379-14.165-12.992-14.165-4.474,0-7.824,2.504-7.824,7.151,0,5.603,5.726,8.199,12.244,12.346,7.222,4.553,13.04,8.653,13.04,16.306,0,8.562-7.635,13.072-16.299,13.072-2.747,0-5.261-.41-7.544-1.322-1.35-.639-2.656-1.503-3.908-2.505-.28-.274-.607-.365-.887-.365-.84,0-1.58,1.186-1.957,3.508h-2.187c.278-4.009.373-9.2.373-18.63h2.191c1.252,10.431,3.719,17.446,13.268,17.446,3.821,0,8.477-2.233,8.477-8.882,0-5.421-4.567-8.381-10.805-12.208-6.938-4.281-13.131-7.925-13.131-15.668,0-8.29,6.568-12.025,14.112-12.025,5.025,0,8.658,2.05,10.382,3.417h0Z"/>
  </g>
  <rect class="st0" x="176.8" y="84.95" width="221.054" height="3.9"/>
  <g class="st1">
    <path class="st0" d="M201.403,105.044l-2.032,1.525c-1.121-1.428-2.466-2.51-4.036-3.247s-3.294-1.104-5.174-1.104c-2.055,0-3.957.482-5.708,1.447-1.75.965-3.107,2.262-4.071,3.889-.963,1.627-1.444,3.458-1.444,5.49,0,3.073,1.077,5.637,3.23,7.693,2.153,2.055,4.87,3.083,8.15,3.083,3.607,0,6.624-1.382,9.052-4.146l2.032,1.508c-1.285,1.599-2.887,2.835-4.807,3.709-1.92.873-4.065,1.311-6.435,1.311-4.506,0-8.06-1.468-10.663-4.403-2.183-2.478-3.274-5.471-3.274-8.978,0-3.688,1.322-6.793,3.966-9.311,2.644-2.519,5.956-3.777,9.936-3.777,2.405,0,4.576.465,6.514,1.396,1.937.931,3.525,2.235,4.763,3.914Z"/>
    <path class="st0" d="M218.833,99.734c3.9,0,7.165,1.273,9.793,3.82s3.942,5.682,3.942,9.405c0,3.688-1.312,6.818-3.934,9.388-2.622,2.57-5.819,3.855-9.593,3.855-3.818,0-7.043-1.279-9.67-3.838-2.629-2.559-3.942-5.653-3.942-9.285,0-2.422.599-4.666,1.796-6.732,1.197-2.068,2.829-3.687,4.896-4.857s4.305-1.756,6.711-1.756ZM218.946,102.183c-1.906,0-3.712.486-5.419,1.458s-3.04,2.28-3.999,3.926c-.958,1.646-1.438,3.48-1.438,5.504,0,2.995,1.061,5.524,3.183,7.587,2.122,2.063,4.68,3.095,7.673,3.095,1.999,0,3.85-.475,5.551-1.423,1.701-.949,3.027-2.246,3.98-3.893.953-1.646,1.43-3.475,1.43-5.486,0-2-.477-3.809-1.43-5.426-.953-1.618-2.295-2.912-4.025-3.884-1.729-.972-3.564-1.458-5.506-1.458Z"/>
    <path class="st0" d="M237.751,125.568v-25.201h.561l17.141,19.318v-19.318h2.539v25.201h-.578l-17.001-19.082v19.082h-2.661Z"/>
    <path class="st0" d="M261.598,120.874l2.188-1.285c1.541,2.775,3.32,4.163,5.34,4.163.864,0,1.676-.197,2.434-.591.76-.395,1.337-.922,1.734-1.585.396-.662.595-1.364.595-2.107,0-.845-.292-1.673-.875-2.483-.806-1.119-2.276-2.467-4.413-4.043-2.146-1.588-3.483-2.736-4.009-3.444-.911-1.188-1.366-2.473-1.366-3.854,0-1.097.27-2.096.806-2.998.537-.902,1.293-1.613,2.268-2.133s2.034-.779,3.178-.779c1.214,0,2.349.294,3.405.882,1.057.589,2.174,1.671,3.354,3.247l-2.102,1.559c-.969-1.256-1.795-2.084-2.477-2.484-.684-.399-1.428-.6-2.232-.6-1.039,0-1.889.309-2.549.926-.659.616-.988,1.376-.988,2.277,0,.549.116,1.08.35,1.594s.66,1.074,1.278,1.68c.339.319,1.447,1.158,3.327,2.518,2.229,1.611,3.758,3.044,4.587,4.301.829,1.256,1.243,2.518,1.243,3.785,0,1.828-.709,3.416-2.127,4.764s-3.143,2.021-5.174,2.021c-1.564,0-2.982-.408-4.255-1.225-1.272-.817-2.446-2.186-3.52-4.104Z"/>
    <path class="st0" d="M282.206,100.366h2.573v15.214c0,1.805.035,2.93.104,3.375.129.993.426,1.824.894,2.493.467.668,1.185,1.227,2.153,1.678.969.452,1.943.678,2.924.678.852,0,1.67-.178,2.451-.531.782-.354,1.436-.846,1.961-1.474s.91-1.388,1.156-2.278c.175-.64.262-1.953.262-3.94v-15.214h2.574v15.214c0,2.25-.225,4.069-.674,5.456-.449,1.389-1.348,2.596-2.696,3.623-1.349,1.029-2.979,1.543-4.894,1.543-2.078,0-3.858-.486-5.34-1.457-1.482-.971-2.475-2.255-2.977-3.854-.315-.982-.473-2.753-.473-5.312v-15.214Z"/>
    <path class="st0" d="M305.597,100.366h2.574v22.77h9.91v2.432h-12.484v-25.201Z"/>
    <path class="st0" d="M319.605,102.834v-2.468h14.111v2.468h-5.742v22.733h-2.627v-22.733h-5.742Z"/>
    <path class="st0" d="M337.061,100.366h2.573v25.201h-2.573v-25.201Z"/>
    <path class="st0" d="M345.552,125.568v-25.201h.561l17.141,19.318v-19.318h2.539v25.201h-.578l-17.001-19.082v19.082h-2.661Z"/>
    <path class="st0" d="M396.905,104.599l-1.995,1.85c-1.437-1.381-3.009-2.43-4.719-3.143-1.71-.715-3.377-1.071-4.999-1.071-2.02,0-3.942.485-5.77,1.456-1.826.971-3.242,2.287-4.245,3.949-1.004,1.662-1.506,3.418-1.506,5.268,0,1.896.519,3.698,1.558,5.405,1.039,1.708,2.475,3.05,4.308,4.026,1.832.977,3.84,1.465,6.022,1.465,2.65,0,4.892-.73,6.724-2.193,1.833-1.462,2.918-3.357,3.257-5.688h-8.212v-2.434h11.101c-.023,3.896-1.205,6.988-3.545,9.277-2.341,2.29-5.472,3.436-9.394,3.436-4.763,0-8.533-1.588-11.311-4.764-2.137-2.443-3.204-5.27-3.204-8.479,0-2.388.612-4.608,1.838-6.665,1.226-2.055,2.906-3.662,5.043-4.822,2.136-1.158,4.552-1.738,7.248-1.738,2.183,0,4.237.385,6.163,1.156,1.927.771,3.806,2.008,5.638,3.709Z"/>
  </g>
</svg>