<svg xmlns="http://www.w3.org/2000/svg" xmlns:xlink="http://www.w3.org/1999/xlink" width="1036" zoomAndPan="magnify" viewBox="0 0 776.88 275.999989" height="368" preserveAspectRatio="xMidYMid meet" version="1.2"><defs><clipPath id="3f9304c8c9"><path d="M 61 0.0195312 L 293 0.0195312 L 293 157 L 61 157 Z M 61 0.0195312 "/></clipPath><clipPath id="cf365aceb8"><path d="M 61 0.0195312 L 293 0.0195312 L 293 157 L 61 157 Z M 61 0.0195312 "/></clipPath></defs><g id="81ae501134"><path style=" stroke:none;fill-rule:nonzero;fill:#ef4123;fill-opacity:1;" d="M 64.332031 22.023438 C 68.980469 36.667969 110.839844 129.984375 0.00390625 267.734375 C 73.007812 125.371094 37.226562 57.546875 29.554688 38.785156 C 20.757812 17.316406 29.882812 8.476562 39.476562 4.910156 C 51.105469 0.578125 60.609375 10.324219 64.335938 22.023438 Z M 64.332031 22.023438 "/><g clip-rule="nonzero" clip-path="url(#3f9304c8c9)"><path style=" stroke:none;fill-rule:nonzero;fill:#ef4123;fill-opacity:1;" d="M 266.273438 155.960938 C 250.683594 154.273438 146.519531 154.484375 61.769531 0.0195312 C 165.964844 122.410156 243.832031 117.464844 264.46875 118.082031 C 288.105469 118.78125 292.742188 130.496094 292.257812 140.523438 C 291.65625 152.683594 278.722656 157.308594 266.273438 155.960938 Z M 266.273438 155.960938 "/></g><path style=" stroke:none;fill-rule:nonzero;fill:#ef4123;fill-opacity:1;" d="M 29.910156 239.097656 C 40.496094 227.78125 101.75 145.359375 279.25 169.503906 C 116.75 179.644531 74.925781 244.074219 62.246094 260.023438 C 47.738281 278.269531 35.332031 275.023438 27.34375 268.730469 C 17.648438 261.085938 21.460938 248.140625 29.910156 239.101562 Z M 29.910156 239.097656 "/><path style=" stroke:none;fill-rule:nonzero;fill:#ef4123;fill-opacity:1;" d="M 406.273438 58.140625 C 412.144531 63.976562 413.679688 70.691406 413.679688 83.507812 L 413.679688 133.796875 C 413.679688 139.628906 415.128906 142.371094 419.375 142.371094 C 422.71875 142.371094 425.160156 140.691406 427.6875 138.570312 L 429.765625 141.660156 C 424.613281 145.464844 420.730469 148.292969 412.867188 148.292969 C 399.949219 148.292969 396.964844 140.691406 396.964844 132.207031 C 389.015625 145.019531 377.359375 148.292969 368.507812 148.292969 C 356.132812 148.292969 345.015625 142.195312 345.015625 128.050781 C 345.015625 113.738281 356.308594 107.371094 374.832031 99.769531 C 387.210938 94.730469 396.964844 91.640625 396.964844 84.394531 L 396.964844 73.167969 C 396.964844 57.96875 389.375 54.964844 379.800781 54.964844 C 373.476562 54.964844 365.703125 56.199219 361.457031 61.417969 C 366.066406 62.566406 370.132812 66.542969 370.132812 72.460938 C 370.132812 78.648438 365.886719 82.269531 359.292969 82.269531 C 352.96875 82.269531 349.261719 77.589844 349.261719 71.046875 C 349.261719 65.746094 352.785156 61.589844 357.9375 58.144531 C 363.179688 54.785156 372.035156 51.339844 383.867188 51.339844 C 394.257812 51.339844 402.03125 53.992188 406.273438 58.144531 Z M 396.964844 91.8125 C 394.976562 94.730469 390.914062 96.585938 379.261719 102.15625 C 371.128906 105.957031 361.28125 111.171875 361.28125 125.132812 C 361.28125 136.007812 367.605469 141.042969 376.097656 141.042969 C 383.507812 141.042969 390.734375 137.242188 396.964844 127.347656 Z M 396.964844 91.8125 "/><path style=" stroke:none;fill-rule:nonzero;fill:#ef4123;fill-opacity:1;" d="M 509.6875 65.566406 C 509.6875 71.75 505.625 76.96875 499.121094 76.96875 C 493.96875 76.96875 489.269531 73.609375 489.269531 67.601562 C 489.269531 63.089844 492.25 59.820312 495.597656 57.789062 C 494.691406 56.550781 493.335938 56.023438 491.710938 56.023438 C 476.167969 56.023438 465.957031 76.613281 465.957031 90.046875 L 465.957031 128.402344 C 465.957031 140.152344 473.367188 143.246094 485.566406 143.246094 L 485.566406 147.046875 C 479.871094 146.875 468.578125 146.34375 457.105469 146.34375 C 448.613281 146.34375 439.488281 146.875 435.242188 147.046875 L 435.242188 143.246094 C 445.453125 143.246094 449.339844 140.332031 449.339844 130.253906 L 449.339844 73.605469 C 449.339844 62.734375 445.992188 57.609375 435.242188 57.609375 L 435.242188 53.808594 C 439.125 54.15625 443.015625 54.339844 446.714844 54.339844 C 453.945312 54.339844 460.628906 53.632812 465.960938 51.863281 L 465.960938 74.492188 C 469.847656 63.972656 479.875 51.335938 492.792969 51.335938 C 502.824219 51.335938 509.6875 57.789062 509.6875 65.5625 Z M 509.6875 65.566406 "/><path style=" stroke:none;fill-rule:nonzero;fill:#ef4123;fill-opacity:1;" d="M 574.714844 53.988281 L 574.714844 57.613281 L 547.335938 57.613281 L 547.335938 127.695312 C 547.335938 139.097656 551.757812 143.074219 559.167969 143.074219 C 566.578125 143.074219 572 137.863281 575.886719 123.71875 L 579.5 124.601562 C 576.96875 138.742188 570.464844 149.613281 555.464844 149.613281 C 546.972656 149.613281 542.003906 147.578125 537.941406 143.601562 C 532.519531 138.210938 530.710938 131.140625 530.710938 118.238281 L 530.710938 57.609375 L 512.914062 57.609375 L 512.914062 53.984375 L 530.710938 53.984375 L 530.710938 26.324219 C 536.765625 26.144531 542.726562 25.4375 547.335938 23.757812 L 547.335938 53.988281 Z M 574.714844 53.988281 "/><path style=" stroke:none;fill-rule:nonzero;fill:#ef4123;fill-opacity:1;" d="M 667.019531 127.519531 C 667.019531 138.390625 670.363281 143.425781 681.121094 143.425781 L 681.121094 147.230469 C 677.242188 146.878906 673.34375 146.695312 669.640625 146.695312 C 662.414062 146.695312 655.734375 147.40625 650.398438 149.261719 L 650.398438 127.871094 C 644.074219 143.601562 631.871094 149.613281 620.042969 149.613281 C 611.367188 149.613281 605.042969 147.050781 600.800781 142.71875 C 596.191406 137.863281 594.652344 130.4375 594.652344 119.035156 L 594.652344 73.609375 C 594.652344 62.734375 591.398438 57.613281 580.648438 57.613281 L 580.648438 53.808594 C 584.535156 54.160156 588.421875 54.34375 592.125 54.34375 C 599.351562 54.34375 605.949219 53.632812 611.367188 51.867188 L 611.367188 123.011719 C 611.367188 134.234375 612.09375 143.78125 625.371094 143.78125 C 639.828125 143.78125 650.398438 129.460938 650.398438 110.988281 L 650.398438 73.605469 C 650.398438 62.734375 647.054688 57.609375 636.308594 57.609375 L 636.308594 53.808594 C 640.1875 54.15625 644.070312 54.339844 647.785156 54.339844 C 655 54.339844 661.691406 53.632812 667.019531 51.863281 Z M 667.019531 127.519531 "/><path style=" stroke:none;fill-rule:nonzero;fill:#ef4123;fill-opacity:1;" d="M 743.605469 57.964844 C 744.867188 58.9375 745.957031 59.46875 746.855469 59.46875 C 749.023438 59.46875 750.382812 56.90625 751.015625 51.511719 L 755.261719 51.511719 C 754.71875 58.140625 754.542969 66.714844 754.542969 82.265625 L 750.296875 82.265625 C 748.027344 68.839844 741.800781 54.78125 725.089844 54.78125 C 716.40625 54.78125 709.90625 59.640625 709.90625 68.65625 C 709.90625 79.53125 721.019531 84.566406 733.664062 92.613281 C 747.679688 101.445312 758.964844 109.402344 758.964844 124.25 C 758.964844 140.863281 744.152344 149.613281 727.339844 149.613281 C 722.011719 149.613281 717.132812 148.820312 712.703125 147.050781 C 710.085938 145.808594 707.550781 144.132812 705.121094 142.191406 C 704.578125 141.65625 703.941406 141.480469 703.398438 141.480469 C 701.769531 141.480469 700.335938 143.78125 699.601562 148.289062 L 695.359375 148.289062 C 695.898438 140.507812 696.082031 130.4375 696.082031 112.140625 L 700.335938 112.140625 C 702.761719 132.378906 707.550781 145.992188 726.078125 145.992188 C 733.492188 145.992188 742.527344 141.65625 742.527344 128.757812 C 742.527344 118.238281 733.664062 112.496094 721.5625 105.070312 C 708.097656 96.761719 696.082031 89.691406 696.082031 74.667969 C 696.082031 58.582031 708.828125 51.335938 723.464844 51.335938 C 733.214844 51.335938 740.265625 55.3125 743.609375 57.964844 Z M 743.605469 57.964844 "/><path style=" stroke:none;fill-rule:nonzero;fill:#ffffff;fill-opacity:1;" d="M 343.050781 164.851562 L 771.960938 164.851562 L 771.960938 172.417969 L 343.050781 172.417969 Z M 343.050781 164.851562 "/><path style=" stroke:none;fill-rule:nonzero;fill:#ffffff;fill-opacity:1;" d="M 390.789062 203.839844 L 386.84375 206.796875 C 384.667969 204.027344 382.058594 201.929688 379.011719 200.496094 C 375.96875 199.066406 372.621094 198.355469 368.972656 198.355469 C 364.988281 198.355469 361.296875 199.289062 357.898438 201.164062 C 354.503906 203.035156 351.871094 205.550781 350 208.710938 C 348.132812 211.867188 347.199219 215.417969 347.199219 219.363281 C 347.199219 225.324219 349.289062 230.300781 353.464844 234.289062 C 357.644531 238.277344 362.914062 240.269531 369.277344 240.269531 C 376.277344 240.269531 382.132812 237.589844 386.84375 232.226562 L 390.785156 235.152344 C 388.292969 238.253906 385.183594 240.652344 381.457031 242.347656 C 377.734375 244.042969 373.570312 244.890625 368.972656 244.890625 C 360.230469 244.890625 353.332031 242.042969 348.28125 236.347656 C 344.046875 231.539062 341.929688 225.734375 341.929688 218.929688 C 341.929688 211.773438 344.496094 205.75 349.625 200.863281 C 354.753906 195.976562 361.183594 193.535156 368.90625 193.535156 C 373.570312 193.535156 377.785156 194.4375 381.542969 196.242188 C 385.300781 198.050781 388.382812 200.578125 390.785156 203.835938 Z M 390.789062 203.839844 "/><path style=" stroke:none;fill-rule:nonzero;fill:#ffffff;fill-opacity:1;" d="M 424.605469 193.535156 C 432.175781 193.535156 438.507812 196.007812 443.609375 200.949219 C 448.707031 205.890625 451.257812 211.972656 451.257812 219.195312 C 451.257812 226.351562 448.710938 232.425781 443.625 237.414062 C 438.535156 242.398438 432.332031 244.890625 425.011719 244.890625 C 417.601562 244.890625 411.34375 242.410156 406.246094 237.445312 C 401.148438 232.480469 398.597656 226.476562 398.597656 219.429688 C 398.597656 214.730469 399.761719 210.375 402.082031 206.367188 C 404.40625 202.355469 407.574219 199.214844 411.582031 196.941406 C 415.59375 194.671875 419.9375 193.535156 424.605469 193.535156 Z M 424.824219 198.289062 C 421.128906 198.289062 417.625 199.230469 414.3125 201.117188 C 411 203.003906 408.414062 205.539062 406.550781 208.734375 C 404.695312 211.929688 403.761719 215.488281 403.761719 219.414062 C 403.761719 225.226562 405.820312 230.132812 409.9375 234.136719 C 414.054688 238.136719 419.019531 240.140625 424.824219 240.140625 C 428.703125 240.140625 432.296875 239.21875 435.597656 237.378906 C 438.898438 235.539062 441.46875 233.019531 443.320312 229.824219 C 445.167969 226.632812 446.09375 223.082031 446.09375 219.179688 C 446.09375 215.300781 445.167969 211.789062 443.320312 208.652344 C 441.46875 205.511719 438.867188 203.003906 435.507812 201.117188 C 432.15625 199.230469 428.59375 198.289062 424.824219 198.289062 Z M 424.824219 198.289062 "/><path style=" stroke:none;fill-rule:nonzero;fill:#ffffff;fill-opacity:1;" d="M 461.3125 243.660156 L 461.3125 194.765625 L 462.402344 194.765625 L 495.660156 232.246094 L 495.660156 194.765625 L 500.585938 194.765625 L 500.585938 243.660156 L 499.464844 243.660156 L 466.480469 206.636719 L 466.480469 243.660156 Z M 461.3125 243.660156 "/><path style=" stroke:none;fill-rule:nonzero;fill:#ffffff;fill-opacity:1;" d="M 507.585938 234.554688 L 511.828125 232.0625 C 514.820312 237.445312 518.269531 240.136719 522.191406 240.136719 C 523.867188 240.136719 525.441406 239.757812 526.914062 238.992188 C 528.386719 238.226562 529.507812 237.203125 530.277344 235.917969 C 531.046875 234.632812 531.433594 233.269531 531.433594 231.828125 C 531.433594 230.1875 530.867188 228.582031 529.734375 227.011719 C 528.171875 224.839844 525.320312 222.222656 521.171875 219.164062 C 517.007812 216.085938 514.414062 213.855469 513.394531 212.484375 C 511.625 210.179688 510.742188 207.683594 510.742188 205.003906 C 510.742188 202.875 511.265625 200.9375 512.308594 199.1875 C 513.347656 197.4375 514.816406 196.058594 516.707031 195.050781 C 518.597656 194.039062 520.652344 193.539062 522.875 193.539062 C 525.230469 193.539062 527.429688 194.109375 529.480469 195.25 C 531.53125 196.390625 533.699219 198.492188 535.988281 201.550781 L 531.910156 204.574219 C 530.03125 202.136719 528.425781 200.53125 527.105469 199.753906 C 525.777344 198.980469 524.332031 198.589844 522.773438 198.589844 C 520.757812 198.589844 519.109375 199.191406 517.828125 200.386719 C 516.546875 201.582031 515.910156 203.058594 515.910156 204.804688 C 515.910156 205.871094 516.136719 206.902344 516.589844 207.898438 C 517.042969 208.894531 517.871094 209.980469 519.070312 211.15625 C 519.726562 211.777344 521.875 213.40625 525.523438 216.042969 C 529.847656 219.167969 532.816406 221.949219 534.425781 224.390625 C 536.03125 226.824219 536.835938 229.273438 536.835938 231.734375 C 536.835938 235.28125 535.460938 238.359375 532.710938 240.976562 C 529.957031 243.59375 526.609375 244.898438 522.671875 244.898438 C 519.636719 244.898438 516.882812 244.105469 514.414062 242.519531 C 511.945312 240.9375 509.667969 238.28125 507.585938 234.558594 Z M 507.585938 234.554688 "/><path style=" stroke:none;fill-rule:nonzero;fill:#ffffff;fill-opacity:1;" d="M 547.570312 194.761719 L 552.5625 194.761719 L 552.5625 224.28125 C 552.5625 227.785156 552.628906 229.96875 552.765625 230.832031 C 553.015625 232.757812 553.589844 234.371094 554.5 235.667969 C 555.40625 236.964844 556.796875 238.046875 558.675781 238.921875 C 560.554688 239.800781 562.445312 240.238281 564.351562 240.238281 C 566.003906 240.238281 567.589844 239.894531 569.105469 239.207031 C 570.621094 238.523438 571.890625 237.566406 572.910156 236.347656 C 573.929688 235.128906 574.675781 233.65625 575.152344 231.929688 C 575.492188 230.6875 575.660156 228.140625 575.660156 224.285156 L 575.660156 194.765625 L 580.65625 194.765625 L 580.65625 224.285156 C 580.65625 228.648438 580.21875 232.179688 579.347656 234.871094 C 578.476562 237.566406 576.734375 239.90625 574.117188 241.898438 C 571.5 243.898438 568.335938 244.894531 564.621094 244.894531 C 560.589844 244.894531 557.136719 243.949219 554.261719 242.066406 C 551.382812 240.183594 549.457031 237.691406 548.484375 234.589844 C 547.871094 232.683594 547.566406 229.246094 547.566406 224.28125 L 547.566406 194.761719 Z M 547.570312 194.761719 "/><path style=" stroke:none;fill-rule:nonzero;fill:#ffffff;fill-opacity:1;" d="M 592.957031 194.761719 L 597.949219 194.761719 L 597.949219 238.941406 L 617.179688 238.941406 L 617.179688 243.660156 L 592.957031 243.660156 Z M 592.957031 194.761719 "/><path style=" stroke:none;fill-rule:nonzero;fill:#ffffff;fill-opacity:1;" d="M 620.136719 199.550781 L 620.136719 194.761719 L 647.515625 194.761719 L 647.515625 199.550781 L 636.375 199.550781 L 636.375 243.660156 L 631.277344 243.660156 L 631.277344 199.550781 Z M 620.136719 199.550781 "/><path style=" stroke:none;fill-rule:nonzero;fill:#ffffff;fill-opacity:1;" d="M 654.003906 194.761719 L 658.996094 194.761719 L 658.996094 243.660156 L 654.003906 243.660156 Z M 654.003906 194.761719 "/><path style=" stroke:none;fill-rule:nonzero;fill:#ffffff;fill-opacity:1;" d="M 670.480469 243.660156 L 670.480469 194.765625 L 671.570312 194.765625 L 704.828125 232.246094 L 704.828125 194.765625 L 709.753906 194.765625 L 709.753906 243.660156 L 708.632812 243.660156 L 675.644531 206.636719 L 675.644531 243.660156 Z M 670.480469 243.660156 "/><path style=" stroke:none;fill-rule:nonzero;fill:#ffffff;fill-opacity:1;" d="M 770.121094 202.976562 L 766.25 206.566406 C 763.460938 203.886719 760.414062 201.851562 757.09375 200.464844 C 753.777344 199.078125 750.542969 198.390625 747.394531 198.390625 C 743.476562 198.390625 739.746094 199.328125 736.199219 201.214844 C 732.65625 203.097656 729.910156 205.652344 727.960938 208.875 C 726.015625 212.101562 725.039062 215.507812 725.039062 219.097656 C 725.039062 222.777344 726.046875 226.273438 728.0625 229.585938 C 730.078125 232.898438 732.867188 235.503906 736.421875 237.398438 C 739.976562 239.292969 743.871094 240.238281 748.105469 240.238281 C 753.25 240.238281 757.597656 238.824219 761.152344 235.984375 C 764.710938 233.148438 766.816406 229.46875 767.472656 224.949219 L 751.539062 224.949219 L 751.539062 220.226562 L 773.078125 220.226562 C 773.035156 227.785156 770.742188 233.785156 766.199219 238.226562 C 761.65625 242.667969 755.582031 244.890625 747.972656 244.890625 C 738.730469 244.890625 731.417969 241.8125 726.027344 235.648438 C 721.878906 230.910156 719.808594 225.421875 719.808594 219.195312 C 719.808594 214.5625 720.996094 210.253906 723.375 206.265625 C 725.753906 202.277344 729.015625 199.160156 733.160156 196.910156 C 737.304688 194.660156 741.992188 193.535156 747.222656 193.535156 C 751.460938 193.535156 755.445312 194.28125 759.183594 195.777344 C 762.921875 197.273438 766.566406 199.675781 770.121094 202.976562 Z M 770.121094 202.976562 "/><path style=" stroke:none;fill-rule:nonzero;fill:#ef4123;fill-opacity:1;" d="M 64.332031 22.023438 C 68.980469 36.667969 110.839844 129.984375 0.00390625 267.734375 C 73.007812 125.371094 37.226562 57.546875 29.554688 38.785156 C 20.757812 17.316406 29.882812 8.476562 39.476562 4.910156 C 51.105469 0.578125 60.609375 10.324219 64.335938 22.023438 Z M 64.332031 22.023438 "/><g clip-rule="nonzero" clip-path="url(#cf365aceb8)"><path style=" stroke:none;fill-rule:nonzero;fill:#ef4123;fill-opacity:1;" d="M 266.273438 155.960938 C 250.683594 154.273438 146.519531 154.484375 61.769531 0.0195312 C 165.964844 122.410156 243.832031 117.464844 264.46875 118.082031 C 288.105469 118.78125 292.742188 130.496094 292.257812 140.523438 C 291.65625 152.683594 278.722656 157.308594 266.273438 155.960938 Z M 266.273438 155.960938 "/></g><path style=" stroke:none;fill-rule:nonzero;fill:#ef4123;fill-opacity:1;" d="M 29.910156 239.097656 C 40.496094 227.78125 101.75 145.359375 279.25 169.503906 C 116.75 179.644531 74.925781 244.074219 62.246094 260.023438 C 47.738281 278.269531 35.332031 275.023438 27.34375 268.730469 C 17.648438 261.085938 21.460938 248.140625 29.910156 239.101562 Z M 29.910156 239.097656 "/><path style=" stroke:none;fill-rule:nonzero;fill:#ef4123;fill-opacity:1;" d="M 406.273438 58.140625 C 412.144531 63.976562 413.679688 70.691406 413.679688 83.507812 L 413.679688 133.796875 C 413.679688 139.628906 415.128906 142.371094 419.375 142.371094 C 422.71875 142.371094 425.160156 140.691406 427.6875 138.570312 L 429.765625 141.660156 C 424.613281 145.464844 420.730469 148.292969 412.867188 148.292969 C 399.949219 148.292969 396.964844 140.691406 396.964844 132.207031 C 389.015625 145.019531 377.359375 148.292969 368.507812 148.292969 C 356.132812 148.292969 345.015625 142.195312 345.015625 128.050781 C 345.015625 113.738281 356.308594 107.371094 374.832031 99.769531 C 387.210938 94.730469 396.964844 91.640625 396.964844 84.394531 L 396.964844 73.167969 C 396.964844 57.96875 389.375 54.964844 379.800781 54.964844 C 373.476562 54.964844 365.703125 56.199219 361.457031 61.417969 C 366.066406 62.566406 370.132812 66.542969 370.132812 72.460938 C 370.132812 78.648438 365.886719 82.269531 359.292969 82.269531 C 352.96875 82.269531 349.261719 77.589844 349.261719 71.046875 C 349.261719 65.746094 352.785156 61.589844 357.9375 58.144531 C 363.179688 54.785156 372.035156 51.339844 383.867188 51.339844 C 394.257812 51.339844 402.03125 53.992188 406.273438 58.144531 Z M 396.964844 91.8125 C 394.976562 94.730469 390.914062 96.585938 379.261719 102.15625 C 371.128906 105.957031 361.28125 111.171875 361.28125 125.132812 C 361.28125 136.007812 367.605469 141.042969 376.097656 141.042969 C 383.507812 141.042969 390.734375 137.242188 396.964844 127.347656 Z M 396.964844 91.8125 "/><path style=" stroke:none;fill-rule:nonzero;fill:#ef4123;fill-opacity:1;" d="M 509.6875 65.566406 C 509.6875 71.75 505.625 76.96875 499.121094 76.96875 C 493.96875 76.96875 489.269531 73.609375 489.269531 67.601562 C 489.269531 63.089844 492.25 59.820312 495.597656 57.789062 C 494.691406 56.550781 493.335938 56.023438 491.710938 56.023438 C 476.167969 56.023438 465.957031 76.613281 465.957031 90.046875 L 465.957031 128.402344 C 465.957031 140.152344 473.367188 143.246094 485.566406 143.246094 L 485.566406 147.046875 C 479.871094 146.875 468.578125 146.34375 457.105469 146.34375 C 448.613281 146.34375 439.488281 146.875 435.242188 147.046875 L 435.242188 143.246094 C 445.453125 143.246094 449.339844 140.332031 449.339844 130.253906 L 449.339844 73.605469 C 449.339844 62.734375 445.992188 57.609375 435.242188 57.609375 L 435.242188 53.808594 C 439.125 54.15625 443.015625 54.339844 446.714844 54.339844 C 453.945312 54.339844 460.628906 53.632812 465.960938 51.863281 L 465.960938 74.492188 C 469.847656 63.972656 479.875 51.335938 492.792969 51.335938 C 502.824219 51.335938 509.6875 57.789062 509.6875 65.5625 Z M 509.6875 65.566406 "/><path style=" stroke:none;fill-rule:nonzero;fill:#ef4123;fill-opacity:1;" d="M 574.714844 53.988281 L 574.714844 57.613281 L 547.335938 57.613281 L 547.335938 127.695312 C 547.335938 139.097656 551.757812 143.074219 559.167969 143.074219 C 566.578125 143.074219 572 137.863281 575.886719 123.71875 L 579.5 124.601562 C 576.96875 138.742188 570.464844 149.613281 555.464844 149.613281 C 546.972656 149.613281 542.003906 147.578125 537.941406 143.601562 C 532.519531 138.210938 530.710938 131.140625 530.710938 118.238281 L 530.710938 57.609375 L 512.914062 57.609375 L 512.914062 53.984375 L 530.710938 53.984375 L 530.710938 26.324219 C 536.765625 26.144531 542.726562 25.4375 547.335938 23.757812 L 547.335938 53.988281 Z M 574.714844 53.988281 "/><path style=" stroke:none;fill-rule:nonzero;fill:#ef4123;fill-opacity:1;" d="M 667.019531 127.519531 C 667.019531 138.390625 670.363281 143.425781 681.121094 143.425781 L 681.121094 147.230469 C 677.242188 146.878906 673.34375 146.695312 669.640625 146.695312 C 662.414062 146.695312 655.734375 147.40625 650.398438 149.261719 L 650.398438 127.871094 C 644.074219 143.601562 631.871094 149.613281 620.042969 149.613281 C 611.367188 149.613281 605.042969 147.050781 600.800781 142.71875 C 596.191406 137.863281 594.652344 130.4375 594.652344 119.035156 L 594.652344 73.609375 C 594.652344 62.734375 591.398438 57.613281 580.648438 57.613281 L 580.648438 53.808594 C 584.535156 54.160156 588.421875 54.34375 592.125 54.34375 C 599.351562 54.34375 605.949219 53.632812 611.367188 51.867188 L 611.367188 123.011719 C 611.367188 134.234375 612.09375 143.78125 625.371094 143.78125 C 639.828125 143.78125 650.398438 129.460938 650.398438 110.988281 L 650.398438 73.605469 C 650.398438 62.734375 647.054688 57.609375 636.308594 57.609375 L 636.308594 53.808594 C 640.1875 54.15625 644.070312 54.339844 647.785156 54.339844 C 655 54.339844 661.691406 53.632812 667.019531 51.863281 Z M 667.019531 127.519531 "/><path style=" stroke:none;fill-rule:nonzero;fill:#ef4123;fill-opacity:1;" d="M 743.605469 57.964844 C 744.867188 58.9375 745.957031 59.46875 746.855469 59.46875 C 749.023438 59.46875 750.382812 56.90625 751.015625 51.511719 L 755.261719 51.511719 C 754.71875 58.140625 754.542969 66.714844 754.542969 82.265625 L 750.296875 82.265625 C 748.027344 68.839844 741.800781 54.78125 725.089844 54.78125 C 716.40625 54.78125 709.90625 59.640625 709.90625 68.65625 C 709.90625 79.53125 721.019531 84.566406 733.664062 92.613281 C 747.679688 101.445312 758.964844 109.402344 758.964844 124.25 C 758.964844 140.863281 744.152344 149.613281 727.339844 149.613281 C 722.011719 149.613281 717.132812 148.820312 712.703125 147.050781 C 710.085938 145.808594 707.550781 144.132812 705.121094 142.191406 C 704.578125 141.65625 703.941406 141.480469 703.398438 141.480469 C 701.769531 141.480469 700.335938 143.78125 699.601562 148.289062 L 695.359375 148.289062 C 695.898438 140.507812 696.082031 130.4375 696.082031 112.140625 L 700.335938 112.140625 C 702.761719 132.378906 707.550781 145.992188 726.078125 145.992188 C 733.492188 145.992188 742.527344 141.65625 742.527344 128.757812 C 742.527344 118.238281 733.664062 112.496094 721.5625 105.070312 C 708.097656 96.761719 696.082031 89.691406 696.082031 74.667969 C 696.082031 58.582031 708.828125 51.335938 723.464844 51.335938 C 733.214844 51.335938 740.265625 55.3125 743.609375 57.964844 Z M 743.605469 57.964844 "/><path style=" stroke:none;fill-rule:nonzero;fill:#ffffff;fill-opacity:1;" d="M 343.050781 164.851562 L 771.960938 164.851562 L 771.960938 172.417969 L 343.050781 172.417969 Z M 343.050781 164.851562 "/><path style=" stroke:none;fill-rule:nonzero;fill:#ffffff;fill-opacity:1;" d="M 390.789062 203.839844 L 386.84375 206.796875 C 384.667969 204.027344 382.058594 201.929688 379.011719 200.496094 C 375.96875 199.066406 372.621094 198.355469 368.972656 198.355469 C 364.988281 198.355469 361.296875 199.289062 357.898438 201.164062 C 354.503906 203.035156 351.871094 205.550781 350 208.710938 C 348.132812 211.867188 347.199219 215.417969 347.199219 219.363281 C 347.199219 225.324219 349.289062 230.300781 353.464844 234.289062 C 357.644531 238.277344 362.914062 240.269531 369.277344 240.269531 C 376.277344 240.269531 382.132812 237.589844 386.84375 232.226562 L 390.785156 235.152344 C 388.292969 238.253906 385.183594 240.652344 381.457031 242.347656 C 377.734375 244.042969 373.570312 244.890625 368.972656 244.890625 C 360.230469 244.890625 353.332031 242.042969 348.28125 236.347656 C 344.046875 231.539062 341.929688 225.734375 341.929688 218.929688 C 341.929688 211.773438 344.496094 205.75 349.625 200.863281 C 354.753906 195.976562 361.183594 193.535156 368.90625 193.535156 C 373.570312 193.535156 377.785156 194.4375 381.542969 196.242188 C 385.300781 198.050781 388.382812 200.578125 390.785156 203.835938 Z M 390.789062 203.839844 "/><path style=" stroke:none;fill-rule:nonzero;fill:#ffffff;fill-opacity:1;" d="M 424.605469 193.535156 C 432.175781 193.535156 438.507812 196.007812 443.609375 200.949219 C 448.707031 205.890625 451.257812 211.972656 451.257812 219.195312 C 451.257812 226.351562 448.710938 232.425781 443.625 237.414062 C 438.535156 242.398438 432.332031 244.890625 425.011719 244.890625 C 417.601562 244.890625 411.34375 242.410156 406.246094 237.445312 C 401.148438 232.480469 398.597656 226.476562 398.597656 219.429688 C 398.597656 214.730469 399.761719 210.375 402.082031 206.367188 C 404.40625 202.355469 407.574219 199.214844 411.582031 196.941406 C 415.59375 194.671875 419.9375 193.535156 424.605469 193.535156 Z M 424.824219 198.289062 C 421.128906 198.289062 417.625 199.230469 414.3125 201.117188 C 411 203.003906 408.414062 205.539062 406.550781 208.734375 C 404.695312 211.929688 403.761719 215.488281 403.761719 219.414062 C 403.761719 225.226562 405.820312 230.132812 409.9375 234.136719 C 414.054688 238.136719 419.019531 240.140625 424.824219 240.140625 C 428.703125 240.140625 432.296875 239.21875 435.597656 237.378906 C 438.898438 235.539062 441.46875 233.019531 443.320312 229.824219 C 445.167969 226.632812 446.09375 223.082031 446.09375 219.179688 C 446.09375 215.300781 445.167969 211.789062 443.320312 208.652344 C 441.46875 205.511719 438.867188 203.003906 435.507812 201.117188 C 432.15625 199.230469 428.59375 198.289062 424.824219 198.289062 Z M 424.824219 198.289062 "/><path style=" stroke:none;fill-rule:nonzero;fill:#ffffff;fill-opacity:1;" d="M 461.3125 243.660156 L 461.3125 194.765625 L 462.402344 194.765625 L 495.660156 232.246094 L 495.660156 194.765625 L 500.585938 194.765625 L 500.585938 243.660156 L 499.464844 243.660156 L 466.480469 206.636719 L 466.480469 243.660156 Z M 461.3125 243.660156 "/><path style=" stroke:none;fill-rule:nonzero;fill:#ffffff;fill-opacity:1;" d="M 507.585938 234.554688 L 511.828125 232.0625 C 514.820312 237.445312 518.269531 240.136719 522.191406 240.136719 C 523.867188 240.136719 525.441406 239.757812 526.914062 238.992188 C 528.386719 238.226562 529.507812 237.203125 530.277344 235.917969 C 531.046875 234.632812 531.433594 233.269531 531.433594 231.828125 C 531.433594 230.1875 530.867188 228.582031 529.734375 227.011719 C 528.171875 224.839844 525.320312 222.222656 521.171875 219.164062 C 517.007812 216.085938 514.414062 213.855469 513.394531 212.484375 C 511.625 210.179688 510.742188 207.683594 510.742188 205.003906 C 510.742188 202.875 511.265625 200.9375 512.308594 199.1875 C 513.347656 197.4375 514.816406 196.058594 516.707031 195.050781 C 518.597656 194.039062 520.652344 193.539062 522.875 193.539062 C 525.230469 193.539062 527.429688 194.109375 529.480469 195.25 C 531.53125 196.390625 533.699219 198.492188 535.988281 201.550781 L 531.910156 204.574219 C 530.03125 202.136719 528.425781 200.53125 527.105469 199.753906 C 525.777344 198.980469 524.332031 198.589844 522.773438 198.589844 C 520.757812 198.589844 519.109375 199.191406 517.828125 200.386719 C 516.546875 201.582031 515.910156 203.058594 515.910156 204.804688 C 515.910156 205.871094 516.136719 206.902344 516.589844 207.898438 C 517.042969 208.894531 517.871094 209.980469 519.070312 211.15625 C 519.726562 211.777344 521.875 213.40625 525.523438 216.042969 C 529.847656 219.167969 532.816406 221.949219 534.425781 224.390625 C 536.03125 226.824219 536.835938 229.273438 536.835938 231.734375 C 536.835938 235.28125 535.460938 238.359375 532.710938 240.976562 C 529.957031 243.59375 526.609375 244.898438 522.671875 244.898438 C 519.636719 244.898438 516.882812 244.105469 514.414062 242.519531 C 511.945312 240.9375 509.667969 238.28125 507.585938 234.558594 Z M 507.585938 234.554688 "/><path style=" stroke:none;fill-rule:nonzero;fill:#ffffff;fill-opacity:1;" d="M 547.570312 194.761719 L 552.5625 194.761719 L 552.5625 224.28125 C 552.5625 227.785156 552.628906 229.96875 552.765625 230.832031 C 553.015625 232.757812 553.589844 234.371094 554.5 235.667969 C 555.40625 236.964844 556.796875 238.046875 558.675781 238.921875 C 560.554688 239.800781 562.445312 240.238281 564.351562 240.238281 C 566.003906 240.238281 567.589844 239.894531 569.105469 239.207031 C 570.621094 238.523438 571.890625 237.566406 572.910156 236.347656 C 573.929688 235.128906 574.675781 233.65625 575.152344 231.929688 C 575.492188 230.6875 575.660156 228.140625 575.660156 224.285156 L 575.660156 194.765625 L 580.65625 194.765625 L 580.65625 224.285156 C 580.65625 228.648438 580.21875 232.179688 579.347656 234.871094 C 578.476562 237.566406 576.734375 239.90625 574.117188 241.898438 C 571.5 243.898438 568.335938 244.894531 564.621094 244.894531 C 560.589844 244.894531 557.136719 243.949219 554.261719 242.066406 C 551.382812 240.183594 549.457031 237.691406 548.484375 234.589844 C 547.871094 232.683594 547.566406 229.246094 547.566406 224.28125 L 547.566406 194.761719 Z M 547.570312 194.761719 "/><path style=" stroke:none;fill-rule:nonzero;fill:#ffffff;fill-opacity:1;" d="M 592.957031 194.761719 L 597.949219 194.761719 L 597.949219 238.941406 L 617.179688 238.941406 L 617.179688 243.660156 L 592.957031 243.660156 Z M 592.957031 194.761719 "/><path style=" stroke:none;fill-rule:nonzero;fill:#ffffff;fill-opacity:1;" d="M 620.136719 199.550781 L 620.136719 194.761719 L 647.515625 194.761719 L 647.515625 199.550781 L 636.375 199.550781 L 636.375 243.660156 L 631.277344 243.660156 L 631.277344 199.550781 Z M 620.136719 199.550781 "/><path style=" stroke:none;fill-rule:nonzero;fill:#ffffff;fill-opacity:1;" d="M 654.003906 194.761719 L 658.996094 194.761719 L 658.996094 243.660156 L 654.003906 243.660156 Z M 654.003906 194.761719 "/><path style=" stroke:none;fill-rule:nonzero;fill:#ffffff;fill-opacity:1;" d="M 670.480469 243.660156 L 670.480469 194.765625 L 671.570312 194.765625 L 704.828125 232.246094 L 704.828125 194.765625 L 709.753906 194.765625 L 709.753906 243.660156 L 708.632812 243.660156 L 675.644531 206.636719 L 675.644531 243.660156 Z M 670.480469 243.660156 "/><path style=" stroke:none;fill-rule:nonzero;fill:#ffffff;fill-opacity:1;" d="M 770.121094 202.976562 L 766.25 206.566406 C 763.460938 203.886719 760.414062 201.851562 757.09375 200.464844 C 753.777344 199.078125 750.542969 198.390625 747.394531 198.390625 C 743.476562 198.390625 739.746094 199.328125 736.199219 201.214844 C 732.65625 203.097656 729.910156 205.652344 727.960938 208.875 C 726.015625 212.101562 725.039062 215.507812 725.039062 219.097656 C 725.039062 222.777344 726.046875 226.273438 728.0625 229.585938 C 730.078125 232.898438 732.867188 235.503906 736.421875 237.398438 C 739.976562 239.292969 743.871094 240.238281 748.105469 240.238281 C 753.25 240.238281 757.597656 238.824219 761.152344 235.984375 C 764.710938 233.148438 766.816406 229.46875 767.472656 224.949219 L 751.539062 224.949219 L 751.539062 220.226562 L 773.078125 220.226562 C 773.035156 227.785156 770.742188 233.785156 766.199219 238.226562 C 761.65625 242.667969 755.582031 244.890625 747.972656 244.890625 C 738.730469 244.890625 731.417969 241.8125 726.027344 235.648438 C 721.878906 230.910156 719.808594 225.421875 719.808594 219.195312 C 719.808594 214.5625 720.996094 210.253906 723.375 206.265625 C 725.753906 202.277344 729.015625 199.160156 733.160156 196.910156 C 737.304688 194.660156 741.992188 193.535156 747.222656 193.535156 C 751.460938 193.535156 755.445312 194.28125 759.183594 195.777344 C 762.921875 197.273438 766.566406 199.675781 770.121094 202.976562 Z M 770.121094 202.976562 "/></g></svg>