<svg xmlns="http://www.w3.org/2000/svg" xmlns:xlink="http://www.w3.org/1999/xlink" width="432" zoomAndPan="magnify" viewBox="0 0 324 115.499997" height="154" preserveAspectRatio="xMidYMid meet" version="1.2"><defs><clipPath id="4c46ee1bf0"><path d="M 0.699219 1 L 33 1 L 33 112 L 0.699219 112 Z M 0.699219 1 "/></clipPath><clipPath id="dd80f82a74"><path d="M 0.699219 1 L 33 1 L 33 112 L 0.699219 112 Z M 0.699219 1 "/></clipPath></defs><g id="a269b0b509"><g clip-rule="nonzero" clip-path="url(#4c46ee1bf0)"><path style=" stroke:none;fill-rule:nonzero;fill:#ef4123;fill-opacity:1;" d="M 27.4375 9.125 C 29.371094 15.199219 46.769531 53.894531 0.699219 111.015625 C 31.042969 51.980469 16.171875 23.855469 12.984375 16.074219 C 9.324219 7.171875 13.117188 3.507812 17.105469 2.027344 C 21.941406 0.230469 25.890625 4.273438 27.4375 9.125 Z M 27.4375 9.125 "/></g><path style=" stroke:none;fill-rule:nonzero;fill:#ef4123;fill-opacity:1;" d="M 111.375 64.667969 C 104.894531 63.964844 61.597656 64.054688 26.375 0 C 69.683594 50.753906 102.046875 48.703125 110.625 48.957031 C 120.453125 49.246094 122.378906 54.105469 122.175781 58.265625 C 121.925781 63.304688 116.550781 65.226562 111.375 64.667969 Z M 111.375 64.667969 "/><path style=" stroke:none;fill-rule:nonzero;fill:#ef4123;fill-opacity:1;" d="M 13.128906 99.140625 C 17.53125 94.449219 42.992188 60.269531 116.769531 70.28125 C 49.226562 74.488281 31.839844 101.207031 26.570312 107.820312 C 20.539062 115.386719 15.382812 114.039062 12.0625 111.429688 C 8.035156 108.261719 9.617188 102.890625 13.128906 99.140625 Z M 13.128906 99.140625 "/><path style=" stroke:none;fill-rule:nonzero;fill:#ef4123;fill-opacity:1;" d="M 169.566406 24.101562 C 172.007812 26.519531 172.648438 29.304688 172.648438 34.621094 L 172.648438 55.472656 C 172.648438 57.894531 173.25 59.03125 175.015625 59.03125 C 176.402344 59.03125 177.417969 58.332031 178.46875 57.453125 L 179.332031 58.734375 C 177.191406 60.3125 175.578125 61.484375 172.308594 61.484375 C 166.941406 61.484375 165.699219 58.332031 165.699219 54.816406 C 162.394531 60.128906 157.550781 61.484375 153.871094 61.484375 C 148.726562 61.484375 144.105469 58.957031 144.105469 53.09375 C 144.105469 47.15625 148.800781 44.515625 156.5 41.363281 C 161.644531 39.273438 165.699219 37.992188 165.699219 34.988281 L 165.699219 30.332031 C 165.699219 24.03125 162.546875 22.785156 158.5625 22.785156 C 155.9375 22.785156 152.707031 23.296875 150.941406 25.460938 C 152.855469 25.9375 154.546875 27.585938 154.546875 30.039062 C 154.546875 32.605469 152.78125 34.109375 150.042969 34.109375 C 147.410156 34.109375 145.871094 32.167969 145.871094 29.453125 C 145.871094 27.253906 147.335938 25.53125 149.476562 24.101562 C 151.65625 22.710938 155.335938 21.28125 160.253906 21.28125 C 164.574219 21.28125 167.804688 22.382812 169.566406 24.101562 Z M 165.699219 38.066406 C 164.875 39.273438 163.183594 40.042969 158.339844 42.351562 C 154.960938 43.929688 150.867188 46.089844 150.867188 51.882812 C 150.867188 56.390625 153.496094 58.480469 157.027344 58.480469 C 160.105469 58.480469 163.109375 56.902344 165.699219 52.800781 Z M 165.699219 38.066406 "/><path style=" stroke:none;fill-rule:nonzero;fill:#ef4123;fill-opacity:1;" d="M 212.554688 27.179688 C 212.554688 29.746094 210.863281 31.910156 208.160156 31.910156 C 206.019531 31.910156 204.066406 30.515625 204.066406 28.023438 C 204.066406 26.152344 205.304688 24.796875 206.695312 23.957031 C 206.320312 23.441406 205.757812 23.222656 205.082031 23.222656 C 198.621094 23.222656 194.378906 31.761719 194.378906 37.332031 L 194.378906 53.238281 C 194.378906 58.109375 197.457031 59.394531 202.527344 59.394531 L 202.527344 60.96875 C 200.160156 60.898438 195.464844 60.675781 190.695312 60.675781 C 187.167969 60.675781 183.375 60.898438 181.609375 60.96875 L 181.609375 59.394531 C 185.855469 59.394531 187.46875 58.183594 187.46875 54.003906 L 187.46875 30.515625 C 187.46875 26.007812 186.078125 23.882812 181.609375 23.882812 L 181.609375 22.304688 C 183.222656 22.449219 184.839844 22.523438 186.378906 22.523438 C 189.382812 22.523438 192.164062 22.230469 194.378906 21.5 L 194.378906 30.882812 C 195.992188 26.519531 200.160156 21.277344 205.53125 21.277344 C 209.699219 21.277344 212.554688 23.953125 212.554688 27.179688 Z M 212.554688 27.179688 "/><path style=" stroke:none;fill-rule:nonzero;fill:#ef4123;fill-opacity:1;" d="M 239.582031 22.378906 L 239.582031 23.882812 L 228.203125 23.882812 L 228.203125 52.945312 C 228.203125 57.671875 230.039062 59.320312 233.121094 59.320312 C 236.199219 59.320312 238.453125 57.160156 240.070312 51.296875 L 241.570312 51.660156 C 240.519531 57.523438 237.816406 62.035156 231.582031 62.035156 C 228.050781 62.035156 225.988281 61.1875 224.296875 59.539062 C 222.042969 57.304688 221.292969 54.371094 221.292969 49.023438 L 221.292969 23.882812 L 213.894531 23.882812 L 213.894531 22.378906 L 221.292969 22.378906 L 221.292969 10.90625 C 223.808594 10.832031 226.285156 10.539062 228.203125 9.84375 L 228.203125 22.378906 Z M 239.582031 22.378906 "/><path style=" stroke:none;fill-rule:nonzero;fill:#ef4123;fill-opacity:1;" d="M 277.949219 52.871094 C 277.949219 57.378906 279.339844 59.46875 283.808594 59.46875 L 283.808594 61.042969 C 282.199219 60.898438 280.578125 60.824219 279.039062 60.824219 C 276.035156 60.824219 273.257812 61.117188 271.039062 61.886719 L 271.039062 53.019531 C 268.410156 59.539062 263.339844 62.035156 258.421875 62.035156 C 254.816406 62.035156 252.1875 60.96875 250.425781 59.171875 C 248.507812 57.160156 247.871094 54.082031 247.871094 49.351562 L 247.871094 30.515625 C 247.871094 26.007812 246.519531 23.882812 242.050781 23.882812 L 242.050781 22.304688 C 243.664062 22.449219 245.28125 22.527344 246.820312 22.527344 C 249.824219 22.527344 252.566406 22.230469 254.816406 21.5 L 254.816406 51.003906 C 254.816406 55.65625 255.121094 59.617188 260.640625 59.617188 C 266.648438 59.617188 271.039062 53.675781 271.039062 46.015625 L 271.039062 30.515625 C 271.039062 26.007812 269.652344 23.882812 265.183594 23.882812 L 265.183594 22.304688 C 266.796875 22.449219 268.410156 22.523438 269.953125 22.523438 C 272.953125 22.523438 275.734375 22.230469 277.949219 21.5 Z M 277.949219 52.871094 "/><path style=" stroke:none;fill-rule:nonzero;fill:#ef4123;fill-opacity:1;" d="M 309.785156 24.027344 C 310.308594 24.433594 310.761719 24.652344 311.136719 24.652344 C 312.035156 24.652344 312.601562 23.589844 312.863281 21.351562 L 314.628906 21.351562 C 314.402344 24.101562 314.332031 27.65625 314.332031 34.105469 L 312.566406 34.105469 C 311.621094 28.539062 309.03125 22.707031 302.085938 22.707031 C 298.476562 22.707031 295.777344 24.722656 295.777344 28.460938 C 295.777344 32.972656 300.394531 35.058594 305.652344 38.394531 C 311.476562 42.058594 316.167969 45.359375 316.167969 51.515625 C 316.167969 58.40625 310.011719 62.035156 303.023438 62.035156 C 300.808594 62.035156 298.78125 61.703125 296.9375 60.96875 C 295.851562 60.457031 294.796875 59.761719 293.785156 58.953125 C 293.5625 58.734375 293.296875 58.660156 293.070312 58.660156 C 292.394531 58.660156 291.796875 59.617188 291.492188 61.484375 L 289.730469 61.484375 C 289.953125 58.257812 290.03125 54.082031 290.03125 46.492188 L 291.796875 46.492188 C 292.808594 54.886719 294.796875 60.53125 302.5 60.53125 C 305.578125 60.53125 309.335938 58.734375 309.335938 53.382812 C 309.335938 49.023438 305.652344 46.640625 300.621094 43.5625 C 295.023438 40.117188 290.03125 37.183594 290.03125 30.957031 C 290.03125 24.285156 295.328125 21.28125 301.410156 21.28125 C 305.464844 21.28125 308.394531 22.929688 309.785156 24.027344 Z M 309.785156 24.027344 "/><path style=" stroke:none;fill-rule:nonzero;fill:#ffffff;fill-opacity:1;" d="M 143.289062 68.351562 L 321.570312 68.351562 L 321.570312 71.488281 L 143.289062 71.488281 Z M 143.289062 68.351562 "/><path style=" stroke:none;fill-rule:nonzero;fill:#ffffff;fill-opacity:1;" d="M 176.191406 97.257812 L 177.957031 96.222656 C 179.199219 98.457031 180.636719 99.574219 182.265625 99.574219 C 182.960938 99.574219 183.613281 99.414062 184.226562 99.097656 C 184.839844 98.78125 185.304688 98.355469 185.625 97.820312 C 185.945312 97.289062 186.105469 96.722656 186.105469 96.125 C 186.105469 95.445312 185.871094 94.78125 185.398438 94.128906 C 184.75 93.226562 183.5625 92.144531 181.839844 90.875 C 180.109375 89.597656 179.03125 88.675781 178.605469 88.105469 C 177.871094 87.148438 177.503906 86.113281 177.503906 85.003906 C 177.503906 84.121094 177.722656 83.316406 178.15625 82.589844 C 178.585938 81.867188 179.195312 81.292969 179.984375 80.875 C 180.769531 80.457031 181.625 80.25 182.546875 80.25 C 183.527344 80.25 184.441406 80.484375 185.292969 80.957031 C 186.144531 81.433594 187.046875 82.300781 187.996094 83.570312 L 186.304688 84.824219 C 185.523438 83.8125 184.855469 83.148438 184.304688 82.828125 C 183.753906 82.503906 183.15625 82.34375 182.503906 82.34375 C 181.667969 82.34375 180.984375 82.59375 180.449219 83.089844 C 179.917969 83.585938 179.652344 84.195312 179.652344 84.921875 C 179.652344 85.363281 179.746094 85.789062 179.9375 86.203125 C 180.125 86.617188 180.46875 87.066406 180.964844 87.554688 C 181.238281 87.8125 182.132812 88.488281 183.648438 89.582031 C 185.449219 90.878906 186.679688 92.03125 187.347656 93.042969 C 188.019531 94.050781 188.351562 95.066406 188.351562 96.085938 C 188.351562 97.558594 187.78125 98.835938 186.636719 99.921875 C 185.492188 101.003906 184.101562 101.546875 182.464844 101.546875 C 181.203125 101.546875 180.058594 101.21875 179.03125 100.5625 C 178.007812 99.902344 177.058594 98.800781 176.195312 97.257812 Z M 176.191406 97.257812 "/><path style=" stroke:none;fill-rule:nonzero;fill:#ffffff;fill-opacity:1;" d="M 191.105469 80.757812 L 193.492188 80.757812 L 198.808594 89.121094 L 204.039062 80.757812 L 206.441406 80.757812 L 199.859375 91.34375 L 199.859375 101.03125 L 197.8125 101.03125 L 197.8125 91.34375 Z M 191.105469 80.757812 "/><path style=" stroke:none;fill-rule:nonzero;fill:#ffffff;fill-opacity:1;" d="M 207.710938 97.257812 L 209.476562 96.222656 C 210.71875 98.457031 212.152344 99.574219 213.78125 99.574219 C 214.480469 99.574219 215.132812 99.414062 215.746094 99.097656 C 216.359375 98.78125 216.824219 98.355469 217.144531 97.820312 C 217.464844 97.289062 217.625 96.722656 217.625 96.125 C 217.625 95.445312 217.386719 94.78125 216.917969 94.128906 C 216.269531 93.226562 215.082031 92.144531 213.359375 90.875 C 211.628906 89.597656 210.550781 88.675781 210.125 88.105469 C 209.390625 87.148438 209.023438 86.113281 209.023438 85.003906 C 209.023438 84.121094 209.242188 83.316406 209.675781 82.589844 C 210.105469 81.867188 210.71875 81.292969 211.503906 80.875 C 212.289062 80.457031 213.144531 80.25 214.066406 80.25 C 215.046875 80.25 215.960938 80.484375 216.8125 80.957031 C 217.664062 81.433594 218.566406 82.300781 219.515625 83.570312 L 217.824219 84.824219 C 217.039062 83.8125 216.375 83.148438 215.824219 82.828125 C 215.273438 82.503906 214.671875 82.34375 214.023438 82.34375 C 213.1875 82.34375 212.5 82.59375 211.96875 83.089844 C 211.4375 83.585938 211.171875 84.195312 211.171875 84.921875 C 211.171875 85.363281 211.265625 85.789062 211.453125 86.203125 C 211.644531 86.617188 211.988281 87.066406 212.484375 87.554688 C 212.757812 87.8125 213.652344 88.488281 215.167969 89.582031 C 216.964844 90.878906 218.199219 92.03125 218.867188 93.042969 C 219.535156 94.050781 219.871094 95.066406 219.871094 96.085938 C 219.871094 97.558594 219.296875 98.835938 218.15625 99.921875 C 217.011719 101.003906 215.621094 101.546875 213.980469 101.546875 C 212.71875 101.546875 211.578125 101.21875 210.550781 100.5625 C 209.523438 99.902344 208.578125 98.800781 207.710938 97.257812 Z M 207.710938 97.257812 "/><path style=" stroke:none;fill-rule:nonzero;fill:#ffffff;fill-opacity:1;" d="M 222.199219 82.742188 L 222.199219 80.757812 L 233.582031 80.757812 L 233.582031 82.742188 L 228.949219 82.742188 L 228.949219 101.03125 L 226.832031 101.03125 L 226.832031 82.742188 Z M 222.199219 82.742188 "/><path style=" stroke:none;fill-rule:nonzero;fill:#ffffff;fill-opacity:1;" d="M 236.589844 80.757812 L 248.492188 80.757812 L 248.492188 82.742188 L 238.664062 82.742188 L 238.664062 89.097656 L 248.40625 89.097656 L 248.40625 91.082031 L 238.664062 91.082031 L 238.664062 99.046875 L 248.40625 99.046875 L 248.40625 101.03125 L 236.589844 101.03125 Z M 236.589844 80.757812 "/><path style=" stroke:none;fill-rule:nonzero;fill:#ffffff;fill-opacity:1;" d="M 251.132812 101.035156 L 254.105469 80.757812 L 254.445312 80.757812 L 262.890625 97.394531 L 271.253906 80.757812 L 271.585938 80.757812 L 274.574219 101.035156 L 272.539062 101.035156 L 270.484375 86.535156 L 263.140625 101.035156 L 262.613281 101.035156 L 255.179688 86.421875 L 253.140625 101.035156 Z M 251.132812 101.035156 "/><path style=" stroke:none;fill-rule:nonzero;fill:#ffffff;fill-opacity:1;" d="M 276.507812 97.257812 L 278.273438 96.222656 C 279.515625 98.457031 280.953125 99.574219 282.582031 99.574219 C 283.277344 99.574219 283.929688 99.414062 284.542969 99.097656 C 285.15625 98.78125 285.621094 98.355469 285.941406 97.820312 C 286.261719 97.289062 286.421875 96.722656 286.421875 96.125 C 286.421875 95.445312 286.1875 94.78125 285.714844 94.128906 C 285.066406 93.226562 283.878906 92.144531 282.15625 90.875 C 280.425781 89.597656 279.347656 88.675781 278.921875 88.105469 C 278.1875 87.148438 277.820312 86.113281 277.820312 85.003906 C 277.820312 84.121094 278.039062 83.316406 278.472656 82.589844 C 278.90625 81.867188 279.515625 81.292969 280.300781 80.875 C 281.085938 80.457031 281.941406 80.25 282.863281 80.25 C 283.84375 80.25 284.757812 80.484375 285.609375 80.957031 C 286.460938 81.433594 287.363281 82.300781 288.316406 83.570312 L 286.621094 84.824219 C 285.839844 83.8125 285.171875 83.148438 284.621094 82.828125 C 284.070312 82.503906 283.46875 82.34375 282.820312 82.34375 C 281.984375 82.34375 281.296875 82.59375 280.765625 83.089844 C 280.234375 83.585938 279.96875 84.195312 279.96875 84.921875 C 279.96875 85.363281 280.0625 85.789062 280.25 86.203125 C 280.441406 86.617188 280.78125 87.066406 281.28125 87.554688 C 281.554688 87.8125 282.449219 88.488281 283.964844 89.582031 C 285.761719 90.878906 286.996094 92.03125 287.664062 93.042969 C 288.332031 94.050781 288.667969 95.066406 288.667969 96.085938 C 288.667969 97.558594 288.09375 98.835938 286.953125 99.921875 C 285.808594 101.003906 284.417969 101.546875 282.777344 101.546875 C 281.519531 101.546875 280.375 101.21875 279.347656 100.5625 C 278.320312 99.902344 277.375 98.800781 276.507812 97.257812 Z M 276.507812 97.257812 "/><g clip-rule="nonzero" clip-path="url(#dd80f82a74)"><path style=" stroke:none;fill-rule:nonzero;fill:#ef4123;fill-opacity:1;" d="M 27.4375 9.125 C 29.371094 15.199219 46.769531 53.894531 0.699219 111.015625 C 31.042969 51.980469 16.171875 23.855469 12.984375 16.074219 C 9.324219 7.171875 13.117188 3.507812 17.105469 2.027344 C 21.941406 0.230469 25.890625 4.273438 27.4375 9.125 Z M 27.4375 9.125 "/></g><path style=" stroke:none;fill-rule:nonzero;fill:#ef4123;fill-opacity:1;" d="M 111.375 64.667969 C 104.894531 63.964844 61.597656 64.054688 26.375 0 C 69.683594 50.753906 102.046875 48.703125 110.625 48.957031 C 120.453125 49.246094 122.378906 54.105469 122.175781 58.265625 C 121.925781 63.304688 116.550781 65.226562 111.375 64.667969 Z M 111.375 64.667969 "/><path style=" stroke:none;fill-rule:nonzero;fill:#ef4123;fill-opacity:1;" d="M 13.128906 99.140625 C 17.53125 94.449219 42.992188 60.269531 116.769531 70.28125 C 49.226562 74.488281 31.839844 101.207031 26.570312 107.820312 C 20.539062 115.386719 15.382812 114.039062 12.0625 111.429688 C 8.035156 108.261719 9.617188 102.890625 13.128906 99.140625 Z M 13.128906 99.140625 "/><path style=" stroke:none;fill-rule:nonzero;fill:#ef4123;fill-opacity:1;" d="M 169.566406 24.101562 C 172.007812 26.519531 172.648438 29.304688 172.648438 34.621094 L 172.648438 55.472656 C 172.648438 57.894531 173.25 59.03125 175.015625 59.03125 C 176.402344 59.03125 177.417969 58.332031 178.46875 57.453125 L 179.332031 58.734375 C 177.191406 60.3125 175.578125 61.484375 172.308594 61.484375 C 166.941406 61.484375 165.699219 58.332031 165.699219 54.816406 C 162.394531 60.128906 157.550781 61.484375 153.871094 61.484375 C 148.726562 61.484375 144.105469 58.957031 144.105469 53.09375 C 144.105469 47.15625 148.800781 44.515625 156.5 41.363281 C 161.644531 39.273438 165.699219 37.992188 165.699219 34.988281 L 165.699219 30.332031 C 165.699219 24.03125 162.546875 22.785156 158.5625 22.785156 C 155.9375 22.785156 152.707031 23.296875 150.941406 25.460938 C 152.855469 25.9375 154.546875 27.585938 154.546875 30.039062 C 154.546875 32.605469 152.78125 34.109375 150.042969 34.109375 C 147.410156 34.109375 145.871094 32.167969 145.871094 29.453125 C 145.871094 27.253906 147.335938 25.53125 149.476562 24.101562 C 151.65625 22.710938 155.335938 21.28125 160.253906 21.28125 C 164.574219 21.28125 167.804688 22.382812 169.566406 24.101562 Z M 165.699219 38.066406 C 164.875 39.273438 163.183594 40.042969 158.339844 42.351562 C 154.960938 43.929688 150.867188 46.089844 150.867188 51.882812 C 150.867188 56.390625 153.496094 58.480469 157.027344 58.480469 C 160.105469 58.480469 163.109375 56.902344 165.699219 52.800781 Z M 165.699219 38.066406 "/><path style=" stroke:none;fill-rule:nonzero;fill:#ef4123;fill-opacity:1;" d="M 212.554688 27.179688 C 212.554688 29.746094 210.863281 31.910156 208.160156 31.910156 C 206.019531 31.910156 204.066406 30.515625 204.066406 28.023438 C 204.066406 26.152344 205.304688 24.796875 206.695312 23.957031 C 206.320312 23.441406 205.757812 23.222656 205.082031 23.222656 C 198.621094 23.222656 194.378906 31.761719 194.378906 37.332031 L 194.378906 53.238281 C 194.378906 58.109375 197.457031 59.394531 202.527344 59.394531 L 202.527344 60.96875 C 200.160156 60.898438 195.464844 60.675781 190.695312 60.675781 C 187.167969 60.675781 183.375 60.898438 181.609375 60.96875 L 181.609375 59.394531 C 185.855469 59.394531 187.46875 58.183594 187.46875 54.003906 L 187.46875 30.515625 C 187.46875 26.007812 186.078125 23.882812 181.609375 23.882812 L 181.609375 22.304688 C 183.222656 22.449219 184.839844 22.523438 186.378906 22.523438 C 189.382812 22.523438 192.164062 22.230469 194.378906 21.5 L 194.378906 30.882812 C 195.992188 26.519531 200.160156 21.277344 205.53125 21.277344 C 209.699219 21.277344 212.554688 23.953125 212.554688 27.179688 Z M 212.554688 27.179688 "/><path style=" stroke:none;fill-rule:nonzero;fill:#ef4123;fill-opacity:1;" d="M 239.582031 22.378906 L 239.582031 23.882812 L 228.203125 23.882812 L 228.203125 52.945312 C 228.203125 57.671875 230.039062 59.320312 233.121094 59.320312 C 236.199219 59.320312 238.453125 57.160156 240.070312 51.296875 L 241.570312 51.660156 C 240.519531 57.523438 237.816406 62.035156 231.582031 62.035156 C 228.050781 62.035156 225.988281 61.1875 224.296875 59.539062 C 222.042969 57.304688 221.292969 54.371094 221.292969 49.023438 L 221.292969 23.882812 L 213.894531 23.882812 L 213.894531 22.378906 L 221.292969 22.378906 L 221.292969 10.90625 C 223.808594 10.832031 226.285156 10.539062 228.203125 9.84375 L 228.203125 22.378906 Z M 239.582031 22.378906 "/><path style=" stroke:none;fill-rule:nonzero;fill:#ef4123;fill-opacity:1;" d="M 277.949219 52.871094 C 277.949219 57.378906 279.339844 59.46875 283.808594 59.46875 L 283.808594 61.042969 C 282.199219 60.898438 280.578125 60.824219 279.039062 60.824219 C 276.035156 60.824219 273.257812 61.117188 271.039062 61.886719 L 271.039062 53.019531 C 268.410156 59.539062 263.339844 62.035156 258.421875 62.035156 C 254.816406 62.035156 252.1875 60.96875 250.425781 59.171875 C 248.507812 57.160156 247.871094 54.082031 247.871094 49.351562 L 247.871094 30.515625 C 247.871094 26.007812 246.519531 23.882812 242.050781 23.882812 L 242.050781 22.304688 C 243.664062 22.449219 245.28125 22.527344 246.820312 22.527344 C 249.824219 22.527344 252.566406 22.230469 254.816406 21.5 L 254.816406 51.003906 C 254.816406 55.65625 255.121094 59.617188 260.640625 59.617188 C 266.648438 59.617188 271.039062 53.675781 271.039062 46.015625 L 271.039062 30.515625 C 271.039062 26.007812 269.652344 23.882812 265.183594 23.882812 L 265.183594 22.304688 C 266.796875 22.449219 268.410156 22.523438 269.953125 22.523438 C 272.953125 22.523438 275.734375 22.230469 277.949219 21.5 Z M 277.949219 52.871094 "/><path style=" stroke:none;fill-rule:nonzero;fill:#ef4123;fill-opacity:1;" d="M 309.785156 24.027344 C 310.308594 24.433594 310.761719 24.652344 311.136719 24.652344 C 312.035156 24.652344 312.601562 23.589844 312.863281 21.351562 L 314.628906 21.351562 C 314.402344 24.101562 314.332031 27.65625 314.332031 34.105469 L 312.566406 34.105469 C 311.621094 28.539062 309.03125 22.707031 302.085938 22.707031 C 298.476562 22.707031 295.777344 24.722656 295.777344 28.460938 C 295.777344 32.972656 300.394531 35.058594 305.652344 38.394531 C 311.476562 42.058594 316.167969 45.359375 316.167969 51.515625 C 316.167969 58.40625 310.011719 62.035156 303.023438 62.035156 C 300.808594 62.035156 298.78125 61.703125 296.9375 60.96875 C 295.851562 60.457031 294.796875 59.761719 293.785156 58.953125 C 293.5625 58.734375 293.296875 58.660156 293.070312 58.660156 C 292.394531 58.660156 291.796875 59.617188 291.492188 61.484375 L 289.730469 61.484375 C 289.953125 58.257812 290.03125 54.082031 290.03125 46.492188 L 291.796875 46.492188 C 292.808594 54.886719 294.796875 60.53125 302.5 60.53125 C 305.578125 60.53125 309.335938 58.734375 309.335938 53.382812 C 309.335938 49.023438 305.652344 46.640625 300.621094 43.5625 C 295.023438 40.117188 290.03125 37.183594 290.03125 30.957031 C 290.03125 24.285156 295.328125 21.28125 301.410156 21.28125 C 305.464844 21.28125 308.394531 22.929688 309.785156 24.027344 Z M 309.785156 24.027344 "/><path style=" stroke:none;fill-rule:nonzero;fill:#ffffff;fill-opacity:1;" d="M 143.289062 68.351562 L 321.570312 68.351562 L 321.570312 71.488281 L 143.289062 71.488281 Z M 143.289062 68.351562 "/><path style=" stroke:none;fill-rule:nonzero;fill:#ffffff;fill-opacity:1;" d="M 176.191406 97.257812 L 177.957031 96.222656 C 179.199219 98.457031 180.636719 99.574219 182.265625 99.574219 C 182.960938 99.574219 183.613281 99.414062 184.226562 99.097656 C 184.839844 98.78125 185.304688 98.355469 185.625 97.820312 C 185.945312 97.289062 186.105469 96.722656 186.105469 96.125 C 186.105469 95.445312 185.871094 94.78125 185.398438 94.128906 C 184.75 93.226562 183.5625 92.144531 181.839844 90.875 C 180.109375 89.597656 179.03125 88.675781 178.605469 88.105469 C 177.871094 87.148438 177.503906 86.113281 177.503906 85.003906 C 177.503906 84.121094 177.722656 83.316406 178.15625 82.589844 C 178.585938 81.867188 179.195312 81.292969 179.984375 80.875 C 180.769531 80.457031 181.625 80.25 182.546875 80.25 C 183.527344 80.25 184.441406 80.484375 185.292969 80.957031 C 186.144531 81.433594 187.046875 82.300781 187.996094 83.570312 L 186.304688 84.824219 C 185.523438 83.8125 184.855469 83.148438 184.304688 82.828125 C 183.753906 82.503906 183.15625 82.34375 182.503906 82.34375 C 181.667969 82.34375 180.984375 82.59375 180.449219 83.089844 C 179.917969 83.585938 179.652344 84.195312 179.652344 84.921875 C 179.652344 85.363281 179.746094 85.789062 179.9375 86.203125 C 180.125 86.617188 180.46875 87.066406 180.964844 87.554688 C 181.238281 87.8125 182.132812 88.488281 183.648438 89.582031 C 185.449219 90.878906 186.679688 92.03125 187.347656 93.042969 C 188.019531 94.050781 188.351562 95.066406 188.351562 96.085938 C 188.351562 97.558594 187.78125 98.835938 186.636719 99.921875 C 185.492188 101.003906 184.101562 101.546875 182.464844 101.546875 C 181.203125 101.546875 180.058594 101.21875 179.03125 100.5625 C 178.007812 99.902344 177.058594 98.800781 176.195312 97.257812 Z M 176.191406 97.257812 "/><path style=" stroke:none;fill-rule:nonzero;fill:#ffffff;fill-opacity:1;" d="M 191.105469 80.757812 L 193.492188 80.757812 L 198.808594 89.121094 L 204.039062 80.757812 L 206.441406 80.757812 L 199.859375 91.34375 L 199.859375 101.03125 L 197.8125 101.03125 L 197.8125 91.34375 Z M 191.105469 80.757812 "/><path style=" stroke:none;fill-rule:nonzero;fill:#ffffff;fill-opacity:1;" d="M 207.710938 97.257812 L 209.476562 96.222656 C 210.71875 98.457031 212.152344 99.574219 213.78125 99.574219 C 214.480469 99.574219 215.132812 99.414062 215.746094 99.097656 C 216.359375 98.78125 216.824219 98.355469 217.144531 97.820312 C 217.464844 97.289062 217.625 96.722656 217.625 96.125 C 217.625 95.445312 217.386719 94.78125 216.917969 94.128906 C 216.269531 93.226562 215.082031 92.144531 213.359375 90.875 C 211.628906 89.597656 210.550781 88.675781 210.125 88.105469 C 209.390625 87.148438 209.023438 86.113281 209.023438 85.003906 C 209.023438 84.121094 209.242188 83.316406 209.675781 82.589844 C 210.105469 81.867188 210.71875 81.292969 211.503906 80.875 C 212.289062 80.457031 213.144531 80.25 214.066406 80.25 C 215.046875 80.25 215.960938 80.484375 216.8125 80.957031 C 217.664062 81.433594 218.566406 82.300781 219.515625 83.570312 L 217.824219 84.824219 C 217.039062 83.8125 216.375 83.148438 215.824219 82.828125 C 215.273438 82.503906 214.671875 82.34375 214.023438 82.34375 C 213.1875 82.34375 212.5 82.59375 211.96875 83.089844 C 211.4375 83.585938 211.171875 84.195312 211.171875 84.921875 C 211.171875 85.363281 211.265625 85.789062 211.453125 86.203125 C 211.644531 86.617188 211.988281 87.066406 212.484375 87.554688 C 212.757812 87.8125 213.652344 88.488281 215.167969 89.582031 C 216.964844 90.878906 218.199219 92.03125 218.867188 93.042969 C 219.535156 94.050781 219.871094 95.066406 219.871094 96.085938 C 219.871094 97.558594 219.296875 98.835938 218.15625 99.921875 C 217.011719 101.003906 215.621094 101.546875 213.980469 101.546875 C 212.71875 101.546875 211.578125 101.21875 210.550781 100.5625 C 209.523438 99.902344 208.578125 98.800781 207.710938 97.257812 Z M 207.710938 97.257812 "/><path style=" stroke:none;fill-rule:nonzero;fill:#ffffff;fill-opacity:1;" d="M 222.199219 82.742188 L 222.199219 80.757812 L 233.582031 80.757812 L 233.582031 82.742188 L 228.949219 82.742188 L 228.949219 101.03125 L 226.832031 101.03125 L 226.832031 82.742188 Z M 222.199219 82.742188 "/><path style=" stroke:none;fill-rule:nonzero;fill:#ffffff;fill-opacity:1;" d="M 236.589844 80.757812 L 248.492188 80.757812 L 248.492188 82.742188 L 238.664062 82.742188 L 238.664062 89.097656 L 248.40625 89.097656 L 248.40625 91.082031 L 238.664062 91.082031 L 238.664062 99.046875 L 248.40625 99.046875 L 248.40625 101.03125 L 236.589844 101.03125 Z M 236.589844 80.757812 "/><path style=" stroke:none;fill-rule:nonzero;fill:#ffffff;fill-opacity:1;" d="M 251.132812 101.035156 L 254.105469 80.757812 L 254.445312 80.757812 L 262.890625 97.394531 L 271.253906 80.757812 L 271.585938 80.757812 L 274.574219 101.035156 L 272.539062 101.035156 L 270.484375 86.535156 L 263.140625 101.035156 L 262.613281 101.035156 L 255.179688 86.421875 L 253.140625 101.035156 Z M 251.132812 101.035156 "/><path style=" stroke:none;fill-rule:nonzero;fill:#ffffff;fill-opacity:1;" d="M 276.507812 97.257812 L 278.273438 96.222656 C 279.515625 98.457031 280.953125 99.574219 282.582031 99.574219 C 283.277344 99.574219 283.929688 99.414062 284.542969 99.097656 C 285.15625 98.78125 285.621094 98.355469 285.941406 97.820312 C 286.261719 97.289062 286.421875 96.722656 286.421875 96.125 C 286.421875 95.445312 286.1875 94.78125 285.714844 94.128906 C 285.066406 93.226562 283.878906 92.144531 282.15625 90.875 C 280.425781 89.597656 279.347656 88.675781 278.921875 88.105469 C 278.1875 87.148438 277.820312 86.113281 277.820312 85.003906 C 277.820312 84.121094 278.039062 83.316406 278.472656 82.589844 C 278.90625 81.867188 279.515625 81.292969 280.300781 80.875 C 281.085938 80.457031 281.941406 80.25 282.863281 80.25 C 283.84375 80.25 284.757812 80.484375 285.609375 80.957031 C 286.460938 81.433594 287.363281 82.300781 288.316406 83.570312 L 286.621094 84.824219 C 285.839844 83.8125 285.171875 83.148438 284.621094 82.828125 C 284.070312 82.503906 283.46875 82.34375 282.820312 82.34375 C 281.984375 82.34375 281.296875 82.59375 280.765625 83.089844 C 280.234375 83.585938 279.96875 84.195312 279.96875 84.921875 C 279.96875 85.363281 280.0625 85.789062 280.25 86.203125 C 280.441406 86.617188 280.78125 87.066406 281.28125 87.554688 C 281.554688 87.8125 282.449219 88.488281 283.964844 89.582031 C 285.761719 90.878906 286.996094 92.03125 287.664062 93.042969 C 288.332031 94.050781 288.667969 95.066406 288.667969 96.085938 C 288.667969 97.558594 288.09375 98.835938 286.953125 99.921875 C 285.808594 101.003906 284.417969 101.546875 282.777344 101.546875 C 281.519531 101.546875 280.375 101.21875 279.347656 100.5625 C 278.320312 99.902344 277.375 98.800781 276.507812 97.257812 Z M 276.507812 97.257812 "/></g></svg>