<?xml version="1.0" encoding="UTF-8"?>
<svg id="Layer_1" xmlns="http://www.w3.org/2000/svg" version="1.1" viewBox="0 0 400 142">
  <!-- Generator: Adobe Illustrator 29.6.1, SVG Export Plug-In . SVG Version: 2.1.1 Build 9)  -->
  <defs>
    <style>
      .st0 {
        fill: #73615a;
      }

      .st1 {
        isolation: isolate;
      }

      .st2 {
        fill: #ef4123;
      }
    </style>
  </defs>
  <g>
    <path class="st2" d="M33.154,11.339c2.395,7.549,23.97,55.642-33.154,126.636C37.626,64.603,19.184,29.647,15.231,19.978c-4.534-11.064.168-15.62,5.113-17.458,5.993-2.233,10.891,2.789,12.811,8.819h0Z"/>
    <path class="st2" d="M137.23,80.369c-8.034-.87-61.719-.762-105.396-80.369,53.7,63.078,93.831,60.528,104.467,60.846,12.182.36,14.571,6.399,14.321,11.566-.309,6.267-6.976,8.652-13.391,7.957h0Z"/>
    <path class="st2" d="M15.414,123.216c5.456-5.832,37.024-48.312,128.505-35.868-83.749,5.227-105.305,38.433-111.841,46.653-7.477,9.404-13.871,7.731-17.988,4.487-4.996-3.939-3.031-10.611,1.324-15.271h0Z"/>
  </g>
  <g>
    <path class="st2" d="M209.384,29.954c3.027,3.007,3.817,6.469,3.817,13.074v25.917c0,3.006.748,4.419,2.936,4.419,1.723,0,2.981-.866,4.283-1.959l1.071,1.594c-2.654,1.959-4.656,3.417-8.709,3.417-6.657,0-8.195-3.918-8.195-8.29-4.097,6.603-10.105,8.29-14.666,8.29-6.379,0-12.107-3.143-12.107-10.431,0-7.378,5.82-10.659,15.366-14.577,6.379-2.596,11.406-4.19,11.406-7.923v-5.786c0-7.834-3.91-9.383-8.846-9.383-3.259,0-7.264.637-9.453,3.326,2.376.592,4.472,2.643,4.472,5.692,0,3.19-2.189,5.056-5.587,5.056-3.261,0-5.17-2.413-5.17-5.784,0-2.733,1.816-4.875,4.47-6.651,2.702-1.73,7.266-3.506,13.365-3.506,5.355,0,9.36,1.367,11.547,3.506h0ZM204.587,47.308c-1.024,1.503-3.118,2.46-9.124,5.33-4.192,1.959-9.267,4.646-9.267,11.843,0,5.603,3.259,8.199,7.636,8.199,3.819,0,7.544-1.959,10.755-7.059v-18.312h0Z"/>
    <path class="st2" d="M262.682,33.78c0,3.188-2.094,5.877-5.446,5.877-2.656,0-5.077-1.732-5.077-4.828,0-2.324,1.536-4.009,3.261-5.056-.466-.639-1.165-.911-2.003-.911-8.01,0-13.272,10.612-13.272,17.535v19.768c0,6.057,3.819,7.651,10.106,7.651v1.959c-2.935-.089-8.755-.363-14.669-.363-4.376,0-9.08.274-11.267.363v-1.959c5.262,0,7.264-1.503,7.264-6.696v-29.196c0-5.603-1.725-8.244-7.264-8.244v-1.959c2.001.18,4.005.274,5.913.274,3.725,0,7.171-.365,9.918-1.276v11.661c2.003-5.421,7.171-11.934,13.829-11.934,5.17,0,8.707,3.326,8.707,7.333h0Z"/>
    <path class="st2" d="M296.195,27.814v1.868h-14.11v36.119c0,5.877,2.28,7.925,6.099,7.925s6.613-2.685,8.616-9.974l1.862.454c-1.304,7.288-4.656,12.891-12.387,12.891-4.376,0-6.937-1.049-9.032-3.099-2.793-2.778-3.725-6.422-3.725-13.072v-31.246h-9.174v-1.868h9.174v-14.256c3.119-.093,6.192-.456,8.568-1.322v15.579h14.11,0Z"/>
    <path class="st2" d="M343.769,65.71c0,5.603,1.723,8.199,7.266,8.199v1.959c-1.999-.181-4.008-.274-5.917-.274-3.723,0-7.167.365-9.917,1.322v-11.024c-3.259,8.107-9.547,11.206-15.644,11.206-4.471,0-7.73-1.322-9.917-3.555-2.376-2.502-3.168-6.329-3.168-12.206v-23.412c0-5.603-1.677-8.244-7.217-8.244v-1.959c2.003.18,4.005.274,5.913.274,3.725,0,7.125-.365,9.918-1.276v36.667c0,5.784.375,10.705,7.218,10.705,7.451,0,12.897-7.382,12.897-16.901v-19.267c0-5.603-1.723-8.244-7.261-8.244v-1.959c1.999.18,4.001.274,5.915.274,3.719,0,7.167-.365,9.914-1.276v38.991Z"/>
    <path class="st2" d="M383.24,29.864c.649.501,1.211.775,1.675.775,1.117,0,1.818-1.322,2.144-4.101h2.187c-.28,3.415-.369,7.834-.369,15.85h-2.189c-1.169-6.921-4.379-14.165-12.992-14.165-4.474,0-7.824,2.504-7.824,7.151,0,5.603,5.726,8.199,12.244,12.346,7.222,4.553,13.04,8.653,13.04,16.306,0,8.562-7.635,13.072-16.299,13.072-2.747,0-5.261-.41-7.544-1.322-1.35-.639-2.656-1.503-3.908-2.505-.28-.274-.607-.365-.887-.365-.84,0-1.58,1.186-1.957,3.508h-2.187c.278-4.009.373-9.2.373-18.63h2.191c1.252,10.431,3.719,17.446,13.268,17.446,3.821,0,8.477-2.233,8.477-8.882,0-5.421-4.567-8.381-10.805-12.208-6.938-4.281-13.131-7.925-13.131-15.668,0-8.29,6.568-12.025,14.112-12.025,5.025,0,8.658,2.05,10.382,3.417h0Z"/>
  </g>
  <rect class="st0" x="176.8" y="84.95" width="221.054" height="3.9"/>
  <g class="st1">
    <path class="st0" d="M217.598,120.874l2.188-1.285c1.541,2.775,3.321,4.163,5.34,4.163.864,0,1.675-.197,2.434-.591.759-.395,1.336-.922,1.733-1.585.397-.662.595-1.364.595-2.107,0-.845-.292-1.673-.875-2.483-.806-1.119-2.276-2.467-4.413-4.043-2.147-1.588-3.484-2.736-4.009-3.444-.911-1.188-1.366-2.473-1.366-3.854,0-1.097.269-2.096.805-2.998.537-.902,1.293-1.613,2.268-2.133s2.034-.779,3.178-.779c1.214,0,2.349.294,3.406.882,1.056.589,2.174,1.671,3.353,3.247l-2.101,1.559c-.969-1.256-1.794-2.084-2.477-2.484-.683-.399-1.427-.6-2.232-.6-1.039,0-1.888.309-2.548.926-.66.616-.989,1.376-.989,2.277,0,.549.117,1.08.351,1.594.233.514.659,1.074,1.278,1.68.338.319,1.447,1.158,3.327,2.518,2.229,1.611,3.758,3.044,4.587,4.301.829,1.256,1.243,2.518,1.243,3.785,0,1.828-.709,3.416-2.127,4.764-1.418,1.348-3.143,2.021-5.174,2.021-1.564,0-2.982-.408-4.254-1.225-1.272-.817-2.446-2.186-3.52-4.104Z"/>
    <path class="st0" d="M236.088,100.366h2.961l6.591,10.395,6.486-10.395h2.977l-8.16,13.158v12.043h-2.538v-12.043l-8.317-13.158Z"/>
    <path class="st0" d="M256.678,120.874l2.188-1.285c1.541,2.775,3.32,4.163,5.34,4.163.864,0,1.676-.197,2.434-.591.76-.395,1.337-.922,1.734-1.585.396-.662.595-1.364.595-2.107,0-.845-.292-1.673-.875-2.483-.806-1.119-2.276-2.467-4.413-4.043-2.146-1.588-3.483-2.736-4.009-3.444-.911-1.188-1.366-2.473-1.366-3.854,0-1.097.27-2.096.806-2.998.537-.902,1.293-1.613,2.268-2.133s2.034-.779,3.178-.779c1.214,0,2.349.294,3.405.882,1.057.589,2.174,1.671,3.354,3.247l-2.102,1.559c-.969-1.256-1.795-2.084-2.477-2.484-.684-.399-1.428-.6-2.232-.6-1.039,0-1.889.309-2.549.926-.659.616-.988,1.376-.988,2.277,0,.549.116,1.08.35,1.594s.66,1.074,1.278,1.68c.339.319,1.447,1.158,3.327,2.518,2.229,1.611,3.758,3.044,4.587,4.301.829,1.256,1.243,2.518,1.243,3.785,0,1.828-.709,3.416-2.127,4.764s-3.143,2.021-5.174,2.021c-1.564,0-2.982-.408-4.255-1.225-1.272-.817-2.446-2.186-3.52-4.104Z"/>
    <path class="st0" d="M274.642,102.834v-2.468h14.112v2.468h-5.743v22.733h-2.626v-22.733h-5.743Z"/>
    <path class="st0" d="M292.483,100.366h14.76v2.468h-12.186v7.897h12.08v2.467h-12.08v9.902h12.08v2.467h-14.654v-25.201Z"/>
    <path class="st0" d="M310.517,125.568l3.688-25.201h.419l10.47,20.679,10.37-20.679h.413l3.705,25.201h-2.523l-2.545-18.021-9.106,18.021h-.657l-9.216-18.159-2.53,18.159h-2.486Z"/>
    <path class="st0" d="M341.981,120.874l2.188-1.285c1.541,2.775,3.321,4.163,5.341,4.163.863,0,1.675-.197,2.434-.591.758-.395,1.336-.922,1.733-1.585.396-.662.595-1.364.595-2.107,0-.845-.292-1.673-.875-2.483-.806-1.119-2.276-2.467-4.412-4.043-2.148-1.588-3.484-2.736-4.01-3.444-.91-1.188-1.366-2.473-1.366-3.854,0-1.097.269-2.096.806-2.998s1.293-1.613,2.268-2.133,2.034-.779,3.178-.779c1.214,0,2.349.294,3.405.882,1.057.589,2.174,1.671,3.354,3.247l-2.102,1.559c-.969-1.256-1.795-2.084-2.478-2.484-.683-.399-1.427-.6-2.232-.6-1.039,0-1.888.309-2.547.926-.66.616-.989,1.376-.989,2.277,0,.549.116,1.08.35,1.594s.659,1.074,1.278,1.68c.339.319,1.447,1.158,3.327,2.518,2.229,1.611,3.758,3.044,4.587,4.301.828,1.256,1.243,2.518,1.243,3.785,0,1.828-.709,3.416-2.127,4.764-1.419,1.348-3.144,2.021-5.174,2.021-1.564,0-2.983-.408-4.255-1.225-1.272-.817-2.445-2.186-3.52-4.104Z"/>
  </g>
</svg>