<svg xmlns="http://www.w3.org/2000/svg" xmlns:xlink="http://www.w3.org/1999/xlink" width="1080" zoomAndPan="magnify" viewBox="0 0 810 809.999993" height="1080" preserveAspectRatio="xMidYMid meet" version="1.2"><g id="e0f8eb82e0"><path style=" stroke:none;fill-rule:nonzero;fill:#ffffff;fill-opacity:1;" d="M 404.351562 183.308594 L 405.648438 183.308594 C 418.476562 183.308594 428.910156 172.871094 428.910156 160.046875 L 428.910156 42.703125 C 428.894531 42.503906 428.894531 42.304688 428.910156 42.089844 L 428.910156 23.261719 C 428.910156 10.433594 418.476562 0 405.648438 0 L 404.351562 0 C 391.523438 0 381.089844 10.433594 381.089844 23.261719 L 381.089844 42.089844 C 381.105469 42.304688 381.105469 42.503906 381.089844 42.703125 L 381.089844 160.042969 C 381.089844 172.871094 391.523438 183.308594 404.351562 183.308594 Z M 404.351562 183.308594 "/><path style=" stroke:none;fill-rule:nonzero;fill:#ffffff;fill-opacity:1;" d="M 405.648438 626.691406 L 404.351562 626.691406 C 391.523438 626.691406 381.089844 637.128906 381.089844 649.953125 L 381.089844 786.738281 C 381.089844 799.566406 391.523438 810 404.351562 810 L 405.648438 810 C 418.476562 810 428.910156 799.566406 428.910156 786.738281 L 428.910156 767.910156 C 428.894531 767.695312 428.894531 767.496094 428.910156 767.296875 L 428.910156 649.957031 C 428.910156 637.125 418.476562 626.691406 405.648438 626.691406 Z M 405.648438 626.691406 "/><path style=" stroke:none;fill-rule:nonzero;fill:#ffffff;fill-opacity:1;" d="M 110.78125 428.910156 L 160.046875 428.910156 C 172.875 428.910156 183.308594 418.476562 183.308594 405.648438 L 183.308594 404.351562 C 183.308594 391.523438 172.871094 381.089844 160.046875 381.089844 L 23.261719 381.089844 C 10.433594 381.089844 0 391.523438 0 404.351562 L 0 405.648438 C 0 418.476562 10.433594 428.910156 23.261719 428.910156 L 42.105469 428.910156 C 42.320312 428.894531 42.519531 428.894531 42.734375 428.910156 L 109.914062 428.910156 C 110.214844 428.894531 110.496094 428.894531 110.78125 428.910156 Z M 110.78125 428.910156 "/><path style=" stroke:none;fill-rule:nonzero;fill:#ffffff;fill-opacity:1;" d="M 786.738281 381.089844 L 649.953125 381.089844 C 637.125 381.089844 626.691406 391.523438 626.691406 404.351562 L 626.691406 405.648438 C 626.691406 418.476562 637.128906 428.910156 649.953125 428.910156 L 786.738281 428.910156 C 799.566406 428.910156 810 418.476562 810 405.648438 L 810 404.351562 C 810 391.523438 799.566406 381.089844 786.738281 381.089844 Z M 786.738281 381.089844 "/><path style=" stroke:none;fill-rule:nonzero;fill:#ffffff;fill-opacity:1;" d="M 621.640625 621.640625 C 574.929688 668.347656 513.867188 698.902344 448.851562 708.257812 L 448.851562 756.496094 C 609.675781 736.671875 736.671875 609.675781 756.496094 448.851562 L 708.261719 448.851562 C 698.90625 513.867188 668.347656 574.933594 621.640625 621.640625 Z M 621.640625 621.640625 "/><path style=" stroke:none;fill-rule:nonzero;fill:#ffffff;fill-opacity:1;" d="M 708.261719 361.148438 L 756.496094 361.148438 C 736.671875 200.324219 609.675781 73.328125 448.851562 53.503906 L 448.851562 101.738281 C 513.867188 111.09375 574.933594 141.652344 621.640625 188.359375 C 668.347656 235.066406 698.90625 296.132812 708.261719 361.148438 Z M 708.261719 361.148438 "/><path style=" stroke:none;fill-rule:nonzero;fill:#ffffff;fill-opacity:1;" d="M 101.738281 448.851562 L 53.503906 448.851562 C 73.308594 609.675781 200.324219 736.671875 361.148438 756.496094 L 361.148438 708.261719 C 296.132812 698.90625 235.066406 668.347656 188.359375 621.640625 C 141.652344 574.933594 111.09375 513.867188 101.738281 448.851562 Z M 101.738281 448.851562 "/><path style=" stroke:none;fill-rule:nonzero;fill:#ffffff;fill-opacity:1;" d="M 188.359375 188.359375 C 235.066406 141.652344 296.132812 111.09375 361.148438 101.738281 L 361.148438 53.503906 C 200.324219 73.328125 73.308594 200.324219 53.503906 361.148438 L 101.738281 361.148438 C 111.09375 296.132812 141.652344 235.066406 188.359375 188.359375 Z M 188.359375 188.359375 "/><path style=" stroke:none;fill-rule:nonzero;fill:#ffffff;fill-opacity:1;" d="M 405 270.992188 C 331.109375 270.992188 270.992188 331.109375 270.992188 405 C 270.992188 478.890625 331.109375 539.007812 405 539.007812 C 478.890625 539.007812 539.007812 478.890625 539.007812 405 C 539.007812 331.109375 478.890625 270.992188 405 270.992188 Z M 471.414062 368.59375 L 386.722656 455.328125 C 384.84375 457.257812 382.269531 458.335938 379.59375 458.335938 L 379.511719 458.335938 C 376.785156 458.320312 374.195312 457.191406 372.332031 455.214844 L 338.46875 419.273438 C 334.683594 415.269531 334.882812 408.96875 338.886719 405.183594 C 342.890625 401.410156 349.1875 401.59375 352.976562 405.597656 L 379.726562 433.976562 L 457.140625 354.667969 C 460.996094 350.714844 467.3125 350.648438 471.25 354.484375 C 475.1875 358.34375 475.269531 364.65625 471.414062 368.59375 Z M 471.414062 368.59375 "/></g></svg>