<svg xmlns="http://www.w3.org/2000/svg" xmlns:xlink="http://www.w3.org/1999/xlink" width="1080" zoomAndPan="magnify" viewBox="0 0 810 809.999993" height="1080" preserveAspectRatio="xMidYMid meet" version="1.2"><defs><clipPath id="08e4911ff2"><path d="M 93.433594 24.058594 L 555 24.058594 L 555 785.941406 L 93.433594 785.941406 Z M 93.433594 24.058594 "/></clipPath><clipPath id="9b535d2dca"><path d="M 93.433594 24.058594 L 555 24.058594 L 555 785.941406 L 93.433594 785.941406 Z M 93.433594 24.058594 "/></clipPath></defs><g id="52b2c09b94"><path style=" stroke:none;fill-rule:nonzero;fill:#ffffff;fill-opacity:1;" d="M 381.441406 326.132812 C 378.863281 326.132812 376.460938 325.101562 374.402344 323.214844 C 370.625 319.4375 370.625 313.089844 374.402344 309.3125 L 432.585938 251.128906 L 374.402344 192.941406 C 370.625 189.167969 370.625 182.816406 374.402344 179.039062 C 378.179688 175.265625 384.527344 175.265625 388.304688 179.039062 L 453.527344 244.261719 C 457.304688 248.039062 457.304688 254.390625 453.527344 258.164062 L 388.304688 323.386719 C 386.417969 325.101562 383.84375 326.132812 381.441406 326.132812 Z M 381.441406 326.132812 "/><path style=" stroke:none;fill-rule:nonzero;fill:#ffffff;fill-opacity:1;" d="M 266.613281 326.132812 C 264.039062 326.132812 261.636719 325.101562 259.578125 323.214844 L 194.355469 257.992188 C 190.582031 254.21875 190.582031 247.867188 194.355469 244.089844 L 259.578125 178.871094 C 263.355469 175.09375 269.703125 175.09375 273.480469 178.871094 C 277.257812 182.644531 277.257812 188.996094 273.480469 192.773438 L 215.46875 250.957031 L 273.652344 309.140625 C 277.429688 312.917969 277.429688 319.269531 273.652344 323.042969 C 271.59375 325.101562 269.191406 326.132812 266.613281 326.132812 Z M 266.613281 326.132812 "/><path style=" stroke:none;fill-rule:nonzero;fill:#ffffff;fill-opacity:1;" d="M 299.914062 351.019531 C 299.054688 351.019531 298.195312 350.847656 297.339844 350.675781 C 292.015625 349.304688 288.929688 343.8125 290.300781 338.492188 L 338.53125 158.273438 C 339.902344 152.953125 345.394531 149.863281 350.71875 151.234375 C 356.039062 152.609375 359.128906 158.101562 357.753906 163.421875 L 309.523438 343.640625 C 308.152344 348.101562 304.203125 351.019531 299.914062 351.019531 Z M 299.914062 351.019531 "/><g clip-rule="nonzero" clip-path="url(#08e4911ff2)"><path style=" stroke:none;fill-rule:nonzero;fill:#ffffff;fill-opacity:1;" d="M 509.480469 785.601562 L 138.574219 785.601562 C 113.6875 785.601562 93.605469 765.351562 93.605469 740.632812 L 93.605469 69.535156 C 93.433594 44.648438 113.6875 24.398438 138.574219 24.398438 L 509.480469 24.398438 C 534.367188 24.398438 554.449219 44.648438 554.449219 69.363281 L 554.449219 309.65625 C 554.449219 314.976562 550.328125 319.269531 545.179688 319.609375 C 543.980469 319.609375 542.949219 319.609375 541.746094 319.269531 L 509.996094 319.269531 L 507.765625 338.148438 C 507.25 342.4375 503.988281 345.871094 499.695312 346.730469 C 483.046875 349.820312 467.601562 356.339844 453.527344 365.953125 C 449.921875 368.355469 445.117188 368.183594 441.855469 365.609375 L 427.09375 353.765625 L 408.902344 371.960938 L 420.746094 386.722656 C 423.492188 390.152344 423.664062 394.789062 421.085938 398.390625 C 411.476562 412.464844 405.125 427.914062 401.863281 444.5625 C 401.007812 448.851562 397.574219 452.113281 393.28125 452.628906 L 374.574219 454.859375 L 374.574219 480.433594 L 393.28125 482.664062 C 397.574219 483.179688 401.007812 486.441406 401.863281 490.730469 C 404.953125 507.382812 411.476562 523 421.085938 536.902344 C 423.492188 540.507812 423.320312 545.3125 420.746094 548.574219 L 408.902344 563.335938 L 427.09375 581.527344 L 441.855469 569.683594 C 445.289062 566.9375 449.921875 566.765625 453.527344 569.339844 C 467.601562 578.953125 483.046875 585.304688 499.695312 588.566406 C 503.988281 589.421875 507.25 592.855469 507.765625 597.148438 L 509.996094 616.027344 L 541.746094 616.027344 C 542.777344 615.683594 543.980469 615.511719 545.007812 615.683594 C 550.15625 616.027344 554.277344 620.316406 554.277344 625.636719 L 554.277344 741.148438 C 554.449219 765.351562 534.195312 785.601562 509.480469 785.601562 Z M 138.574219 44.132812 C 124.671875 44.132812 113.34375 55.460938 113.34375 69.363281 L 113.34375 740.464844 C 113.34375 754.367188 124.671875 765.695312 138.574219 765.695312 L 509.480469 765.695312 C 523.382812 765.695312 534.710938 754.367188 534.710938 740.464844 L 534.710938 635.421875 L 501.242188 635.421875 C 496.265625 635.421875 491.972656 631.644531 491.457031 626.667969 L 489.054688 606.070312 C 474.808594 602.640625 461.25 596.976562 448.722656 589.421875 L 432.585938 602.296875 C 428.640625 605.386719 422.976562 605.042969 419.371094 601.609375 L 388.820312 571.058594 C 385.214844 567.453125 384.871094 561.789062 388.132812 557.84375 L 401.007812 541.707031 C 393.28125 529.179688 387.789062 515.621094 384.359375 501.375 L 363.933594 498.972656 C 358.957031 498.457031 355.179688 494.164062 355.179688 489.1875 L 355.179688 445.933594 C 355.179688 440.957031 358.957031 436.667969 363.933594 436.152344 L 384.359375 433.75 C 387.789062 419.503906 393.453125 405.945312 401.007812 393.414062 L 388.132812 377.28125 C 385.042969 373.332031 385.386719 367.667969 388.820312 364.066406 L 419.371094 333.511719 C 422.976562 329.910156 428.640625 329.566406 432.585938 332.828125 L 448.722656 345.699219 C 461.25 337.976562 474.808594 332.484375 489.054688 329.050781 L 491.457031 308.453125 C 491.972656 303.476562 496.265625 299.699219 501.242188 299.699219 L 534.710938 299.699219 L 534.710938 69.707031 C 534.710938 55.804688 523.382812 44.476562 509.480469 44.476562 L 138.574219 44.476562 Z M 138.574219 44.132812 "/></g><path style=" stroke:none;fill-rule:nonzero;fill:#ffffff;fill-opacity:1;" d="M 503.300781 662.539062 L 144.582031 662.539062 C 139.089844 662.539062 134.625 658.078125 134.625 652.585938 L 134.625 75.371094 C 134.625 69.878906 139.089844 65.417969 144.582031 65.417969 L 503.300781 65.417969 C 508.792969 65.417969 513.257812 69.878906 513.257812 75.371094 L 513.257812 309.3125 C 513.257812 312.058594 512.226562 314.460938 510.339844 316.179688 L 507.765625 337.976562 C 507.25 342.265625 503.988281 345.699219 499.695312 346.558594 C 483.046875 349.648438 467.601562 356.167969 453.527344 365.78125 C 449.921875 368.183594 445.117188 368.011719 441.855469 365.4375 L 427.09375 353.59375 L 408.902344 371.789062 L 420.746094 386.550781 C 423.492188 389.980469 423.664062 394.617188 421.085938 398.21875 C 411.476562 412.292969 405.125 427.742188 401.863281 444.390625 C 401.007812 448.679688 397.574219 451.941406 393.28125 452.457031 L 374.402344 454.6875 L 374.402344 480.261719 L 393.109375 482.492188 C 397.402344 483.007812 400.835938 486.269531 401.691406 490.5625 C 404.78125 507.210938 411.304688 522.828125 420.914062 536.730469 C 423.320312 540.335938 423.148438 545.140625 420.574219 548.402344 L 408.730469 563.164062 L 426.921875 581.355469 L 441.683594 569.511719 C 445.117188 566.765625 449.75 566.59375 453.355469 569.171875 C 467.429688 578.78125 482.875 585.132812 499.523438 588.394531 C 503.816406 589.25 507.078125 592.683594 507.59375 596.976562 L 510.167969 618.773438 C 511.882812 620.488281 513.085938 623.0625 513.085938 625.636719 L 513.085938 652.585938 C 513.257812 658.078125 508.792969 662.539062 503.300781 662.539062 Z M 154.535156 642.800781 L 493.519531 642.800781 L 493.519531 631.644531 C 492.488281 630.273438 491.628906 628.554688 491.457031 626.667969 L 489.054688 606.070312 C 474.808594 602.640625 461.25 596.976562 448.722656 589.421875 L 432.585938 602.296875 C 428.640625 605.386719 422.976562 605.042969 419.371094 601.609375 L 388.820312 571.058594 C 385.214844 567.453125 384.871094 561.789062 388.132812 557.84375 L 401.007812 541.707031 C 393.28125 529.179688 387.789062 515.621094 384.359375 501.375 L 363.933594 498.972656 C 358.957031 498.457031 355.179688 494.164062 355.179688 489.1875 L 355.179688 445.933594 C 355.179688 440.957031 358.957031 436.667969 363.933594 436.152344 L 384.359375 433.75 C 387.789062 419.503906 393.453125 405.945312 401.007812 393.414062 L 388.132812 377.28125 C 385.042969 373.332031 385.386719 367.667969 388.820312 364.066406 L 419.371094 333.511719 C 422.976562 329.910156 428.640625 329.566406 432.585938 332.828125 L 448.722656 345.699219 C 461.25 337.976562 474.808594 332.484375 489.054688 329.050781 L 491.457031 308.453125 C 491.628906 306.566406 492.488281 304.851562 493.519531 303.476562 L 493.519531 85.328125 L 154.535156 85.328125 Z M 154.535156 642.800781 "/><path style=" stroke:none;fill-rule:nonzero;fill:#ffffff;fill-opacity:1;" d="M 367.367188 748.359375 L 280.515625 748.359375 C 270.046875 748.359375 261.636719 739.777344 261.636719 729.476562 L 261.636719 699.269531 C 261.636719 688.800781 270.21875 680.390625 280.515625 680.390625 L 367.367188 680.390625 C 377.835938 680.390625 386.246094 688.972656 386.246094 699.269531 L 386.246094 729.476562 C 386.417969 739.777344 377.835938 748.359375 367.367188 748.359375 Z M 281.375 728.449219 L 366.679688 728.449219 L 366.679688 699.785156 L 281.375 699.785156 Z M 367.367188 699.957031 Z M 367.367188 699.957031 "/><path style=" stroke:none;fill-rule:nonzero;fill:#ffffff;fill-opacity:1;" d="M 215.640625 724.15625 L 171.355469 724.15625 C 165.863281 724.15625 161.402344 719.695312 161.402344 714.203125 C 161.402344 708.710938 165.863281 704.246094 171.355469 704.246094 L 215.640625 704.246094 C 221.132812 704.246094 225.59375 708.710938 225.59375 714.203125 C 225.59375 719.695312 221.132812 724.15625 215.640625 724.15625 Z M 215.640625 724.15625 "/><path style=" stroke:none;fill-rule:nonzero;fill:#ffffff;fill-opacity:1;" d="M 476.699219 724.15625 L 432.414062 724.15625 C 426.921875 724.15625 422.460938 719.695312 422.460938 714.203125 C 422.460938 708.710938 426.921875 704.246094 432.414062 704.246094 L 476.699219 704.246094 C 482.191406 704.246094 486.652344 708.710938 486.652344 714.203125 C 486.652344 719.695312 482.191406 724.15625 476.699219 724.15625 Z M 476.699219 724.15625 "/><path style=" stroke:none;fill-rule:nonzero;fill:#ffffff;fill-opacity:1;" d="M 544.496094 635.421875 L 501.242188 635.421875 C 496.265625 635.421875 491.972656 631.644531 491.457031 626.667969 L 489.054688 606.070312 C 474.808594 602.640625 461.25 596.976562 448.722656 589.421875 L 432.585938 602.296875 C 428.640625 605.386719 422.976562 605.042969 419.371094 601.609375 L 388.820312 571.058594 C 385.214844 567.453125 384.871094 561.789062 388.132812 557.84375 L 401.007812 541.707031 C 393.28125 529.179688 387.789062 515.621094 384.359375 501.375 L 363.933594 498.972656 C 358.957031 498.457031 355.179688 494.164062 355.179688 489.1875 L 355.179688 445.933594 C 355.179688 440.957031 358.957031 436.667969 363.933594 436.152344 L 384.359375 433.75 C 387.789062 419.503906 393.453125 405.945312 401.007812 393.414062 L 388.132812 377.28125 C 385.042969 373.332031 385.386719 367.667969 388.820312 364.066406 L 419.371094 333.511719 C 422.976562 329.910156 428.640625 329.566406 432.585938 332.828125 L 448.722656 345.699219 C 461.25 337.976562 474.808594 332.484375 489.054688 329.050781 L 491.457031 308.453125 C 491.972656 303.476562 496.265625 299.699219 501.242188 299.699219 L 544.496094 299.699219 C 549.472656 299.699219 553.761719 303.476562 554.277344 308.453125 L 556.679688 329.050781 C 570.925781 332.484375 584.484375 338.148438 597.015625 345.699219 L 613.148438 332.828125 C 617.097656 329.738281 622.761719 330.082031 626.363281 333.511719 L 656.914062 364.066406 C 660.519531 367.667969 660.863281 373.332031 657.601562 377.28125 L 644.730469 393.414062 C 652.453125 405.945312 657.945312 419.503906 661.378906 433.75 L 681.804688 436.152344 C 686.78125 436.667969 690.554688 440.957031 690.554688 445.933594 L 690.554688 489.1875 C 690.554688 494.164062 686.78125 498.457031 681.804688 498.972656 L 661.207031 501.375 C 657.773438 515.621094 652.109375 529.179688 644.558594 541.707031 L 657.429688 557.84375 C 660.519531 561.789062 660.175781 567.453125 656.746094 571.058594 L 626.191406 601.609375 C 622.589844 605.214844 616.925781 605.558594 612.976562 602.296875 L 596.84375 589.421875 C 584.3125 597.148438 570.753906 602.640625 556.507812 606.070312 L 554.105469 626.496094 C 553.761719 631.644531 549.472656 635.421875 544.496094 635.421875 Z M 509.996094 615.511719 L 535.570312 615.511719 L 537.800781 596.804688 C 538.316406 592.511719 541.578125 589.078125 545.867188 588.222656 C 562.515625 585.132812 578.136719 578.609375 592.039062 569 C 595.640625 566.59375 600.449219 566.765625 603.707031 569.339844 L 618.46875 581.183594 L 636.664062 562.992188 L 624.820312 548.230469 C 622.074219 544.796875 621.902344 540.164062 624.476562 536.558594 C 634.089844 522.484375 640.4375 507.039062 643.699219 490.390625 C 644.558594 486.097656 647.992188 482.835938 652.28125 482.320312 L 671.160156 480.089844 L 671.160156 454.515625 L 652.453125 452.285156 C 648.164062 451.769531 644.730469 448.511719 643.871094 444.21875 C 640.78125 427.570312 634.261719 411.953125 624.648438 398.046875 C 622.246094 394.445312 622.417969 389.636719 624.992188 386.378906 L 636.835938 371.617188 L 618.640625 353.421875 L 603.878906 365.265625 C 600.449219 368.011719 595.8125 368.183594 592.210938 365.609375 C 578.136719 355.996094 562.6875 349.648438 546.039062 346.386719 C 541.746094 345.527344 538.488281 342.09375 537.972656 337.804688 L 535.742188 318.925781 L 510.167969 318.925781 L 507.9375 337.804688 C 507.421875 342.09375 504.160156 345.527344 499.867188 346.386719 C 483.21875 349.476562 467.773438 355.996094 453.699219 365.609375 C 450.09375 368.011719 445.289062 367.839844 442.027344 365.265625 L 427.265625 353.421875 L 409.074219 371.617188 L 420.917969 386.378906 C 423.664062 389.808594 423.832031 394.445312 421.257812 398.046875 C 411.648438 412.121094 405.296875 427.570312 402.035156 444.21875 C 401.179688 448.511719 397.746094 451.769531 393.453125 452.285156 L 374.574219 454.515625 L 374.574219 480.089844 L 393.28125 482.320312 C 397.574219 482.835938 401.007812 486.097656 401.863281 490.390625 C 404.953125 507.039062 411.476562 522.65625 421.085938 536.558594 C 423.492188 540.164062 423.320312 544.96875 420.746094 548.230469 L 408.902344 562.992188 L 427.09375 581.183594 L 441.855469 569.339844 C 445.289062 566.59375 449.921875 566.425781 453.527344 569 C 467.601562 578.609375 483.046875 584.960938 499.695312 588.222656 C 503.988281 589.078125 507.25 592.511719 507.765625 596.804688 Z M 509.996094 615.511719 "/><path style=" stroke:none;fill-rule:nonzero;fill:#ffffff;fill-opacity:1;" d="M 522.867188 565.910156 C 468.632812 565.910156 424.347656 521.796875 424.347656 467.390625 C 424.347656 413.152344 468.460938 368.871094 522.867188 368.871094 C 577.105469 368.871094 621.386719 412.980469 621.386719 467.390625 C 621.386719 521.625 577.105469 565.910156 522.867188 565.910156 Z M 522.867188 388.78125 C 479.445312 388.78125 444.257812 424.136719 444.257812 467.390625 C 444.257812 510.640625 479.617188 546 522.867188 546 C 566.121094 546 601.476562 510.640625 601.476562 467.390625 C 601.476562 424.136719 566.292969 388.78125 522.867188 388.78125 Z M 522.867188 388.78125 "/><path style=" stroke:none;fill-rule:nonzero;fill:#ffffff;fill-opacity:1;" d="M 381.441406 326.132812 C 378.863281 326.132812 376.460938 325.101562 374.402344 323.214844 C 370.625 319.4375 370.625 313.089844 374.402344 309.3125 L 432.585938 251.128906 L 374.402344 192.941406 C 370.625 189.167969 370.625 182.816406 374.402344 179.039062 C 378.179688 175.265625 384.527344 175.265625 388.304688 179.039062 L 453.527344 244.261719 C 457.304688 248.039062 457.304688 254.390625 453.527344 258.164062 L 388.304688 323.386719 C 386.417969 325.101562 383.84375 326.132812 381.441406 326.132812 Z M 381.441406 326.132812 "/><path style=" stroke:none;fill-rule:nonzero;fill:#ffffff;fill-opacity:1;" d="M 266.613281 326.132812 C 264.039062 326.132812 261.636719 325.101562 259.578125 323.214844 L 194.355469 257.992188 C 190.582031 254.21875 190.582031 247.867188 194.355469 244.089844 L 259.578125 178.871094 C 263.355469 175.09375 269.703125 175.09375 273.480469 178.871094 C 277.257812 182.644531 277.257812 188.996094 273.480469 192.773438 L 215.46875 250.957031 L 273.652344 309.140625 C 277.429688 312.917969 277.429688 319.269531 273.652344 323.042969 C 271.59375 325.101562 269.191406 326.132812 266.613281 326.132812 Z M 266.613281 326.132812 "/><path style=" stroke:none;fill-rule:nonzero;fill:#ffffff;fill-opacity:1;" d="M 299.914062 351.019531 C 299.054688 351.019531 298.195312 350.847656 297.339844 350.675781 C 292.015625 349.304688 288.929688 343.8125 290.300781 338.492188 L 338.53125 158.273438 C 339.902344 152.953125 345.394531 149.863281 350.71875 151.234375 C 356.039062 152.609375 359.128906 158.101562 357.753906 163.421875 L 309.523438 343.640625 C 308.152344 348.101562 304.203125 351.019531 299.914062 351.019531 Z M 299.914062 351.019531 "/><g clip-rule="nonzero" clip-path="url(#9b535d2dca)"><path style=" stroke:none;fill-rule:nonzero;fill:#ffffff;fill-opacity:1;" d="M 509.480469 785.601562 L 138.574219 785.601562 C 113.6875 785.601562 93.605469 765.351562 93.605469 740.632812 L 93.605469 69.535156 C 93.433594 44.648438 113.6875 24.398438 138.574219 24.398438 L 509.480469 24.398438 C 534.367188 24.398438 554.449219 44.648438 554.449219 69.363281 L 554.449219 309.65625 C 554.449219 314.976562 550.328125 319.269531 545.179688 319.609375 C 543.980469 319.609375 542.949219 319.609375 541.746094 319.269531 L 509.996094 319.269531 L 507.765625 338.148438 C 507.25 342.4375 503.988281 345.871094 499.695312 346.730469 C 483.046875 349.820312 467.601562 356.339844 453.527344 365.953125 C 449.921875 368.355469 445.117188 368.183594 441.855469 365.609375 L 427.09375 353.765625 L 408.902344 371.960938 L 420.746094 386.722656 C 423.492188 390.152344 423.664062 394.789062 421.085938 398.390625 C 411.476562 412.464844 405.125 427.914062 401.863281 444.5625 C 401.007812 448.851562 397.574219 452.113281 393.28125 452.628906 L 374.574219 454.859375 L 374.574219 480.433594 L 393.28125 482.664062 C 397.574219 483.179688 401.007812 486.441406 401.863281 490.730469 C 404.953125 507.382812 411.476562 523 421.085938 536.902344 C 423.492188 540.507812 423.320312 545.3125 420.746094 548.574219 L 408.902344 563.335938 L 427.09375 581.527344 L 441.855469 569.683594 C 445.289062 566.9375 449.921875 566.765625 453.527344 569.339844 C 467.601562 578.953125 483.046875 585.304688 499.695312 588.566406 C 503.988281 589.421875 507.25 592.855469 507.765625 597.148438 L 509.996094 616.027344 L 541.746094 616.027344 C 542.777344 615.683594 543.980469 615.511719 545.007812 615.683594 C 550.15625 616.027344 554.277344 620.316406 554.277344 625.636719 L 554.277344 741.148438 C 554.449219 765.351562 534.195312 785.601562 509.480469 785.601562 Z M 138.574219 44.132812 C 124.671875 44.132812 113.34375 55.460938 113.34375 69.363281 L 113.34375 740.464844 C 113.34375 754.367188 124.671875 765.695312 138.574219 765.695312 L 509.480469 765.695312 C 523.382812 765.695312 534.710938 754.367188 534.710938 740.464844 L 534.710938 635.421875 L 501.242188 635.421875 C 496.265625 635.421875 491.972656 631.644531 491.457031 626.667969 L 489.054688 606.070312 C 474.808594 602.640625 461.25 596.976562 448.722656 589.421875 L 432.585938 602.296875 C 428.640625 605.386719 422.976562 605.042969 419.371094 601.609375 L 388.820312 571.058594 C 385.214844 567.453125 384.871094 561.789062 388.132812 557.84375 L 401.007812 541.707031 C 393.28125 529.179688 387.789062 515.621094 384.359375 501.375 L 363.933594 498.972656 C 358.957031 498.457031 355.179688 494.164062 355.179688 489.1875 L 355.179688 445.933594 C 355.179688 440.957031 358.957031 436.667969 363.933594 436.152344 L 384.359375 433.75 C 387.789062 419.503906 393.453125 405.945312 401.007812 393.414062 L 388.132812 377.28125 C 385.042969 373.332031 385.386719 367.667969 388.820312 364.066406 L 419.371094 333.511719 C 422.976562 329.910156 428.640625 329.566406 432.585938 332.828125 L 448.722656 345.699219 C 461.25 337.976562 474.808594 332.484375 489.054688 329.050781 L 491.457031 308.453125 C 491.972656 303.476562 496.265625 299.699219 501.242188 299.699219 L 534.710938 299.699219 L 534.710938 69.707031 C 534.710938 55.804688 523.382812 44.476562 509.480469 44.476562 L 138.574219 44.476562 Z M 138.574219 44.132812 "/></g><path style=" stroke:none;fill-rule:nonzero;fill:#ffffff;fill-opacity:1;" d="M 503.300781 662.539062 L 144.582031 662.539062 C 139.089844 662.539062 134.625 658.078125 134.625 652.585938 L 134.625 75.371094 C 134.625 69.878906 139.089844 65.417969 144.582031 65.417969 L 503.300781 65.417969 C 508.792969 65.417969 513.257812 69.878906 513.257812 75.371094 L 513.257812 309.3125 C 513.257812 312.058594 512.226562 314.460938 510.339844 316.179688 L 507.765625 337.976562 C 507.25 342.265625 503.988281 345.699219 499.695312 346.558594 C 483.046875 349.648438 467.601562 356.167969 453.527344 365.78125 C 449.921875 368.183594 445.117188 368.011719 441.855469 365.4375 L 427.09375 353.59375 L 408.902344 371.789062 L 420.746094 386.550781 C 423.492188 389.980469 423.664062 394.617188 421.085938 398.21875 C 411.476562 412.292969 405.125 427.742188 401.863281 444.390625 C 401.007812 448.679688 397.574219 451.941406 393.28125 452.457031 L 374.402344 454.6875 L 374.402344 480.261719 L 393.109375 482.492188 C 397.402344 483.007812 400.835938 486.269531 401.691406 490.5625 C 404.78125 507.210938 411.304688 522.828125 420.914062 536.730469 C 423.320312 540.335938 423.148438 545.140625 420.574219 548.402344 L 408.730469 563.164062 L 426.921875 581.355469 L 441.683594 569.511719 C 445.117188 566.765625 449.75 566.59375 453.355469 569.171875 C 467.429688 578.78125 482.875 585.132812 499.523438 588.394531 C 503.816406 589.25 507.078125 592.683594 507.59375 596.976562 L 510.167969 618.773438 C 511.882812 620.488281 513.085938 623.0625 513.085938 625.636719 L 513.085938 652.585938 C 513.257812 658.078125 508.792969 662.539062 503.300781 662.539062 Z M 154.535156 642.800781 L 493.519531 642.800781 L 493.519531 631.644531 C 492.488281 630.273438 491.628906 628.554688 491.457031 626.667969 L 489.054688 606.070312 C 474.808594 602.640625 461.25 596.976562 448.722656 589.421875 L 432.585938 602.296875 C 428.640625 605.386719 422.976562 605.042969 419.371094 601.609375 L 388.820312 571.058594 C 385.214844 567.453125 384.871094 561.789062 388.132812 557.84375 L 401.007812 541.707031 C 393.28125 529.179688 387.789062 515.621094 384.359375 501.375 L 363.933594 498.972656 C 358.957031 498.457031 355.179688 494.164062 355.179688 489.1875 L 355.179688 445.933594 C 355.179688 440.957031 358.957031 436.667969 363.933594 436.152344 L 384.359375 433.75 C 387.789062 419.503906 393.453125 405.945312 401.007812 393.414062 L 388.132812 377.28125 C 385.042969 373.332031 385.386719 367.667969 388.820312 364.066406 L 419.371094 333.511719 C 422.976562 329.910156 428.640625 329.566406 432.585938 332.828125 L 448.722656 345.699219 C 461.25 337.976562 474.808594 332.484375 489.054688 329.050781 L 491.457031 308.453125 C 491.628906 306.566406 492.488281 304.851562 493.519531 303.476562 L 493.519531 85.328125 L 154.535156 85.328125 Z M 154.535156 642.800781 "/><path style=" stroke:none;fill-rule:nonzero;fill:#ffffff;fill-opacity:1;" d="M 367.367188 748.359375 L 280.515625 748.359375 C 270.046875 748.359375 261.636719 739.777344 261.636719 729.476562 L 261.636719 699.269531 C 261.636719 688.800781 270.21875 680.390625 280.515625 680.390625 L 367.367188 680.390625 C 377.835938 680.390625 386.246094 688.972656 386.246094 699.269531 L 386.246094 729.476562 C 386.417969 739.777344 377.835938 748.359375 367.367188 748.359375 Z M 281.375 728.449219 L 366.679688 728.449219 L 366.679688 699.785156 L 281.375 699.785156 Z M 367.367188 699.957031 Z M 367.367188 699.957031 "/><path style=" stroke:none;fill-rule:nonzero;fill:#ffffff;fill-opacity:1;" d="M 215.640625 724.15625 L 171.355469 724.15625 C 165.863281 724.15625 161.402344 719.695312 161.402344 714.203125 C 161.402344 708.710938 165.863281 704.246094 171.355469 704.246094 L 215.640625 704.246094 C 221.132812 704.246094 225.59375 708.710938 225.59375 714.203125 C 225.59375 719.695312 221.132812 724.15625 215.640625 724.15625 Z M 215.640625 724.15625 "/><path style=" stroke:none;fill-rule:nonzero;fill:#ffffff;fill-opacity:1;" d="M 476.699219 724.15625 L 432.414062 724.15625 C 426.921875 724.15625 422.460938 719.695312 422.460938 714.203125 C 422.460938 708.710938 426.921875 704.246094 432.414062 704.246094 L 476.699219 704.246094 C 482.191406 704.246094 486.652344 708.710938 486.652344 714.203125 C 486.652344 719.695312 482.191406 724.15625 476.699219 724.15625 Z M 476.699219 724.15625 "/><path style=" stroke:none;fill-rule:nonzero;fill:#ffffff;fill-opacity:1;" d="M 544.496094 635.421875 L 501.242188 635.421875 C 496.265625 635.421875 491.972656 631.644531 491.457031 626.667969 L 489.054688 606.070312 C 474.808594 602.640625 461.25 596.976562 448.722656 589.421875 L 432.585938 602.296875 C 428.640625 605.386719 422.976562 605.042969 419.371094 601.609375 L 388.820312 571.058594 C 385.214844 567.453125 384.871094 561.789062 388.132812 557.84375 L 401.007812 541.707031 C 393.28125 529.179688 387.789062 515.621094 384.359375 501.375 L 363.933594 498.972656 C 358.957031 498.457031 355.179688 494.164062 355.179688 489.1875 L 355.179688 445.933594 C 355.179688 440.957031 358.957031 436.667969 363.933594 436.152344 L 384.359375 433.75 C 387.789062 419.503906 393.453125 405.945312 401.007812 393.414062 L 388.132812 377.28125 C 385.042969 373.332031 385.386719 367.667969 388.820312 364.066406 L 419.371094 333.511719 C 422.976562 329.910156 428.640625 329.566406 432.585938 332.828125 L 448.722656 345.699219 C 461.25 337.976562 474.808594 332.484375 489.054688 329.050781 L 491.457031 308.453125 C 491.972656 303.476562 496.265625 299.699219 501.242188 299.699219 L 544.496094 299.699219 C 549.472656 299.699219 553.761719 303.476562 554.277344 308.453125 L 556.679688 329.050781 C 570.925781 332.484375 584.484375 338.148438 597.015625 345.699219 L 613.148438 332.828125 C 617.097656 329.738281 622.761719 330.082031 626.363281 333.511719 L 656.914062 364.066406 C 660.519531 367.667969 660.863281 373.332031 657.601562 377.28125 L 644.730469 393.414062 C 652.453125 405.945312 657.945312 419.503906 661.378906 433.75 L 681.804688 436.152344 C 686.78125 436.667969 690.554688 440.957031 690.554688 445.933594 L 690.554688 489.1875 C 690.554688 494.164062 686.78125 498.457031 681.804688 498.972656 L 661.207031 501.375 C 657.773438 515.621094 652.109375 529.179688 644.558594 541.707031 L 657.429688 557.84375 C 660.519531 561.789062 660.175781 567.453125 656.746094 571.058594 L 626.191406 601.609375 C 622.589844 605.214844 616.925781 605.558594 612.976562 602.296875 L 596.84375 589.421875 C 584.3125 597.148438 570.753906 602.640625 556.507812 606.070312 L 554.105469 626.496094 C 553.761719 631.644531 549.472656 635.421875 544.496094 635.421875 Z M 509.996094 615.511719 L 535.570312 615.511719 L 537.800781 596.804688 C 538.316406 592.511719 541.578125 589.078125 545.867188 588.222656 C 562.515625 585.132812 578.136719 578.609375 592.039062 569 C 595.640625 566.59375 600.449219 566.765625 603.707031 569.339844 L 618.46875 581.183594 L 636.664062 562.992188 L 624.820312 548.230469 C 622.074219 544.796875 621.902344 540.164062 624.476562 536.558594 C 634.089844 522.484375 640.4375 507.039062 643.699219 490.390625 C 644.558594 486.097656 647.992188 482.835938 652.28125 482.320312 L 671.160156 480.089844 L 671.160156 454.515625 L 652.453125 452.285156 C 648.164062 451.769531 644.730469 448.511719 643.871094 444.21875 C 640.78125 427.570312 634.261719 411.953125 624.648438 398.046875 C 622.246094 394.445312 622.417969 389.636719 624.992188 386.378906 L 636.835938 371.617188 L 618.640625 353.421875 L 603.878906 365.265625 C 600.449219 368.011719 595.8125 368.183594 592.210938 365.609375 C 578.136719 355.996094 562.6875 349.648438 546.039062 346.386719 C 541.746094 345.527344 538.488281 342.09375 537.972656 337.804688 L 535.742188 318.925781 L 510.167969 318.925781 L 507.9375 337.804688 C 507.421875 342.09375 504.160156 345.527344 499.867188 346.386719 C 483.21875 349.476562 467.773438 355.996094 453.699219 365.609375 C 450.09375 368.011719 445.289062 367.839844 442.027344 365.265625 L 427.265625 353.421875 L 409.074219 371.617188 L 420.917969 386.378906 C 423.664062 389.808594 423.832031 394.445312 421.257812 398.046875 C 411.648438 412.121094 405.296875 427.570312 402.035156 444.21875 C 401.179688 448.511719 397.746094 451.769531 393.453125 452.285156 L 374.574219 454.515625 L 374.574219 480.089844 L 393.28125 482.320312 C 397.574219 482.835938 401.007812 486.097656 401.863281 490.390625 C 404.953125 507.039062 411.476562 522.65625 421.085938 536.558594 C 423.492188 540.164062 423.320312 544.96875 420.746094 548.230469 L 408.902344 562.992188 L 427.09375 581.183594 L 441.855469 569.339844 C 445.289062 566.59375 449.921875 566.425781 453.527344 569 C 467.601562 578.609375 483.046875 584.960938 499.695312 588.222656 C 503.988281 589.078125 507.25 592.511719 507.765625 596.804688 Z M 509.996094 615.511719 "/><path style=" stroke:none;fill-rule:nonzero;fill:#ffffff;fill-opacity:1;" d="M 522.867188 565.910156 C 468.632812 565.910156 424.347656 521.796875 424.347656 467.390625 C 424.347656 413.152344 468.460938 368.871094 522.867188 368.871094 C 577.105469 368.871094 621.386719 412.980469 621.386719 467.390625 C 621.386719 521.625 577.105469 565.910156 522.867188 565.910156 Z M 522.867188 388.78125 C 479.445312 388.78125 444.257812 424.136719 444.257812 467.390625 C 444.257812 510.640625 479.617188 546 522.867188 546 C 566.121094 546 601.476562 510.640625 601.476562 467.390625 C 601.476562 424.136719 566.292969 388.78125 522.867188 388.78125 Z M 522.867188 388.78125 "/></g></svg>