<svg xmlns="http://www.w3.org/2000/svg" xmlns:xlink="http://www.w3.org/1999/xlink" width="339" zoomAndPan="magnify" viewBox="0 0 254.25 323.999988" height="432" preserveAspectRatio="xMidYMid meet" version="1.2"><defs><clipPath id="284a732398"><path d="M 0 0.476562 L 196 0.476562 L 196 323.523438 L 0 323.523438 Z M 0 0.476562 "/></clipPath><clipPath id="1e8eff9557"><path d="M 110 117 L 253.503906 117 L 253.503906 260 L 110 260 Z M 110 117 "/></clipPath><clipPath id="019d117902"><path d="M 0 0.476562 L 196 0.476562 L 196 323.523438 L 0 323.523438 Z M 0 0.476562 "/></clipPath><clipPath id="fd1b1b7d33"><path d="M 110 117 L 253.503906 117 L 253.503906 260 L 110 260 Z M 110 117 "/></clipPath></defs><g id="31aeed028a"><path style=" stroke:none;fill-rule:nonzero;fill:#ffffff;fill-opacity:1;" d="M 122.117188 128.558594 C 121.027344 128.558594 120.007812 128.121094 119.132812 127.324219 C 117.53125 125.722656 117.53125 123.027344 119.132812 121.425781 L 143.804688 96.757812 L 119.132812 72.085938 C 117.53125 70.484375 117.53125 67.792969 119.132812 66.191406 C 120.734375 64.589844 123.425781 64.589844 125.027344 66.191406 L 152.683594 93.84375 C 154.285156 95.445312 154.285156 98.140625 152.683594 99.742188 L 125.027344 127.394531 C 124.226562 128.121094 123.136719 128.558594 122.117188 128.558594 Z M 122.117188 128.558594 "/><path style=" stroke:none;fill-rule:nonzero;fill:#ffffff;fill-opacity:1;" d="M 73.429688 128.558594 C 72.339844 128.558594 71.320312 128.121094 70.445312 127.324219 L 42.792969 99.667969 C 41.191406 98.066406 41.191406 95.375 42.792969 93.773438 L 70.445312 66.117188 C 72.046875 64.515625 74.742188 64.515625 76.339844 66.117188 C 77.941406 67.71875 77.941406 70.410156 76.339844 72.011719 L 51.742188 96.683594 L 76.414062 121.355469 C 78.015625 122.957031 78.015625 125.648438 76.414062 127.25 C 75.542969 128.121094 74.523438 128.558594 73.429688 128.558594 Z M 73.429688 128.558594 "/><path style=" stroke:none;fill-rule:nonzero;fill:#ffffff;fill-opacity:1;" d="M 87.550781 139.113281 C 87.183594 139.113281 86.820312 139.039062 86.457031 138.964844 C 84.203125 138.382812 82.890625 136.054688 83.472656 133.800781 L 103.921875 57.386719 C 104.507812 55.128906 106.835938 53.820312 109.089844 54.402344 C 111.347656 54.984375 112.65625 57.3125 112.074219 59.566406 L 91.625 135.984375 C 91.042969 137.875 89.367188 139.113281 87.550781 139.113281 Z M 87.550781 139.113281 "/><g clip-rule="nonzero" clip-path="url(#284a732398)"><path style=" stroke:none;fill-rule:nonzero;fill:#ffffff;fill-opacity:1;" d="M 176.410156 323.378906 L 19.140625 323.378906 C 8.585938 323.378906 0.0742188 314.792969 0.0742188 304.3125 L 0.0742188 19.761719 C 0 9.207031 8.585938 0.621094 19.140625 0.621094 L 176.410156 0.621094 C 186.960938 0.621094 195.476562 9.207031 195.476562 19.6875 L 195.476562 121.574219 C 195.476562 123.828125 193.730469 125.648438 191.546875 125.792969 C 191.035156 125.792969 190.601562 125.792969 190.089844 125.648438 L 176.625 125.648438 L 175.679688 133.652344 C 175.460938 135.472656 174.078125 136.929688 172.261719 137.292969 C 165.199219 138.601562 158.652344 141.367188 152.683594 145.445312 C 151.15625 146.460938 149.117188 146.390625 147.734375 145.296875 L 141.476562 140.277344 L 133.761719 147.992188 L 138.785156 154.25 C 139.949219 155.703125 140.019531 157.667969 138.929688 159.199219 C 134.851562 165.164062 132.160156 171.714844 130.777344 178.773438 C 130.414062 180.59375 128.957031 181.976562 127.140625 182.195312 L 119.207031 183.140625 L 119.207031 193.984375 L 127.140625 194.929688 C 128.957031 195.148438 130.414062 196.53125 130.777344 198.351562 C 132.089844 205.410156 134.851562 212.035156 138.929688 217.929688 C 139.949219 219.457031 139.875 221.496094 138.785156 222.875 L 133.761719 229.136719 L 141.476562 236.851562 L 147.734375 231.828125 C 149.191406 230.664062 151.15625 230.589844 152.683594 231.683594 C 158.652344 235.757812 165.199219 238.449219 172.261719 239.832031 C 174.078125 240.199219 175.460938 241.652344 175.679688 243.472656 L 176.625 251.476562 L 190.089844 251.476562 C 190.527344 251.332031 191.035156 251.257812 191.472656 251.332031 C 193.65625 251.476562 195.402344 253.296875 195.402344 255.554688 L 195.402344 304.53125 C 195.476562 314.792969 186.886719 323.378906 176.410156 323.378906 Z M 19.140625 8.988281 C 13.246094 8.988281 8.441406 13.792969 8.441406 19.6875 L 8.441406 304.238281 C 8.441406 310.136719 13.246094 314.9375 19.140625 314.9375 L 176.410156 314.9375 C 182.304688 314.9375 187.105469 310.136719 187.105469 304.238281 L 187.105469 259.703125 L 172.914062 259.703125 C 170.804688 259.703125 168.984375 258.101562 168.765625 255.988281 L 167.746094 247.257812 C 161.707031 245.800781 155.957031 243.398438 150.644531 240.199219 L 143.804688 245.65625 C 142.132812 246.964844 139.730469 246.820312 138.199219 245.363281 L 125.246094 232.410156 C 123.71875 230.882812 123.574219 228.480469 124.957031 226.808594 L 130.414062 219.964844 C 127.140625 214.652344 124.808594 208.902344 123.355469 202.863281 L 114.695312 201.84375 C 112.585938 201.625 110.984375 199.808594 110.984375 197.695312 L 110.984375 179.355469 C 110.984375 177.246094 112.585938 175.425781 114.695312 175.207031 L 123.355469 174.191406 C 124.808594 168.148438 127.210938 162.398438 130.414062 157.085938 L 124.957031 150.246094 C 123.644531 148.574219 123.792969 146.171875 125.246094 144.644531 L 138.199219 131.6875 C 139.730469 130.160156 142.132812 130.015625 143.804688 131.398438 L 150.644531 136.855469 C 155.957031 133.582031 161.707031 131.253906 167.746094 129.796875 L 168.765625 121.0625 C 168.984375 118.953125 170.804688 117.351562 172.914062 117.351562 L 187.105469 117.351562 L 187.105469 19.832031 C 187.105469 13.9375 182.304688 9.132812 176.410156 9.132812 L 19.140625 9.132812 Z M 19.140625 8.988281 "/></g><path style=" stroke:none;fill-rule:nonzero;fill:#ffffff;fill-opacity:1;" d="M 173.789062 271.199219 L 21.6875 271.199219 C 19.359375 271.199219 17.464844 269.308594 17.464844 266.980469 L 17.464844 22.234375 C 17.464844 19.90625 19.359375 18.011719 21.6875 18.011719 L 173.789062 18.011719 C 176.117188 18.011719 178.007812 19.90625 178.007812 22.234375 L 178.007812 121.425781 C 178.007812 122.59375 177.574219 123.609375 176.773438 124.339844 L 175.679688 133.582031 C 175.460938 135.402344 174.078125 136.855469 172.261719 137.21875 C 165.199219 138.53125 158.652344 141.296875 152.683594 145.371094 C 151.15625 146.390625 149.117188 146.316406 147.734375 145.226562 L 141.476562 140.203125 L 133.761719 147.917969 L 138.785156 154.175781 C 139.949219 155.632812 140.019531 157.597656 138.929688 159.125 C 134.851562 165.09375 132.160156 171.644531 130.777344 178.703125 C 130.414062 180.519531 128.957031 181.902344 127.140625 182.121094 L 119.132812 183.070312 L 119.132812 193.914062 L 127.066406 194.859375 C 128.886719 195.078125 130.339844 196.460938 130.707031 198.277344 C 132.015625 205.339844 134.78125 211.960938 138.855469 217.855469 C 139.875 219.382812 139.800781 221.421875 138.710938 222.804688 L 133.6875 229.0625 L 141.402344 236.777344 L 147.660156 231.753906 C 149.117188 230.589844 151.082031 230.519531 152.609375 231.609375 C 158.578125 235.683594 165.128906 238.378906 172.1875 239.761719 C 174.007812 240.125 175.390625 241.582031 175.609375 243.398438 L 176.699219 252.640625 C 177.425781 253.371094 177.9375 254.460938 177.9375 255.554688 L 177.9375 266.980469 C 178.007812 269.308594 176.117188 271.199219 173.789062 271.199219 Z M 25.90625 262.832031 L 169.640625 262.832031 L 169.640625 258.101562 C 169.203125 257.519531 168.839844 256.789062 168.765625 255.988281 L 167.746094 247.257812 C 161.707031 245.800781 155.957031 243.398438 150.644531 240.199219 L 143.804688 245.65625 C 142.132812 246.964844 139.730469 246.820312 138.199219 245.363281 L 125.246094 232.410156 C 123.71875 230.882812 123.574219 228.480469 124.957031 226.808594 L 130.414062 219.964844 C 127.140625 214.652344 124.808594 208.902344 123.355469 202.863281 L 114.695312 201.84375 C 112.585938 201.625 110.984375 199.808594 110.984375 197.695312 L 110.984375 179.355469 C 110.984375 177.246094 112.585938 175.425781 114.695312 175.207031 L 123.355469 174.191406 C 124.808594 168.148438 127.210938 162.398438 130.414062 157.085938 L 124.957031 150.246094 C 123.644531 148.574219 123.792969 146.171875 125.246094 144.644531 L 138.199219 131.6875 C 139.730469 130.160156 142.132812 130.015625 143.804688 131.398438 L 150.644531 136.855469 C 155.957031 133.582031 161.707031 131.253906 167.746094 129.796875 L 168.765625 121.0625 C 168.839844 120.261719 169.203125 119.535156 169.640625 118.953125 L 169.640625 26.457031 L 25.90625 26.457031 Z M 25.90625 262.832031 "/><path style=" stroke:none;fill-rule:nonzero;fill:#ffffff;fill-opacity:1;" d="M 116.148438 307.585938 L 79.324219 307.585938 C 74.886719 307.585938 71.320312 303.949219 71.320312 299.582031 L 71.320312 286.773438 C 71.320312 282.335938 74.960938 278.769531 79.324219 278.769531 L 116.148438 278.769531 C 120.589844 278.769531 124.15625 282.40625 124.15625 286.773438 L 124.15625 299.582031 C 124.226562 303.949219 120.589844 307.585938 116.148438 307.585938 Z M 79.6875 299.144531 L 115.859375 299.144531 L 115.859375 286.992188 L 79.6875 286.992188 Z M 116.148438 287.066406 Z M 116.148438 287.066406 "/><path style=" stroke:none;fill-rule:nonzero;fill:#ffffff;fill-opacity:1;" d="M 51.816406 297.328125 L 33.039062 297.328125 C 30.710938 297.328125 28.820312 295.433594 28.820312 293.105469 C 28.820312 290.777344 30.710938 288.882812 33.039062 288.882812 L 51.816406 288.882812 C 54.144531 288.882812 56.039062 290.777344 56.039062 293.105469 C 56.039062 295.433594 54.144531 297.328125 51.816406 297.328125 Z M 51.816406 297.328125 "/><path style=" stroke:none;fill-rule:nonzero;fill:#ffffff;fill-opacity:1;" d="M 162.507812 297.328125 L 143.730469 297.328125 C 141.402344 297.328125 139.511719 295.433594 139.511719 293.105469 C 139.511719 290.777344 141.402344 288.882812 143.730469 288.882812 L 162.507812 288.882812 C 164.835938 288.882812 166.730469 290.777344 166.730469 293.105469 C 166.730469 295.433594 164.835938 297.328125 162.507812 297.328125 Z M 162.507812 297.328125 "/><g clip-rule="nonzero" clip-path="url(#1e8eff9557)"><path style=" stroke:none;fill-rule:nonzero;fill:#ffffff;fill-opacity:1;" d="M 191.253906 259.703125 L 172.914062 259.703125 C 170.804688 259.703125 168.984375 258.101562 168.765625 255.988281 L 167.746094 247.257812 C 161.707031 245.800781 155.957031 243.398438 150.644531 240.199219 L 143.804688 245.65625 C 142.132812 246.964844 139.730469 246.820312 138.199219 245.363281 L 125.246094 232.410156 C 123.71875 230.882812 123.574219 228.480469 124.957031 226.808594 L 130.414062 219.964844 C 127.140625 214.652344 124.808594 208.902344 123.355469 202.863281 L 114.695312 201.84375 C 112.585938 201.625 110.984375 199.808594 110.984375 197.695312 L 110.984375 179.355469 C 110.984375 177.246094 112.585938 175.425781 114.695312 175.207031 L 123.355469 174.191406 C 124.808594 168.148438 127.210938 162.398438 130.414062 157.085938 L 124.957031 150.246094 C 123.644531 148.574219 123.792969 146.171875 125.246094 144.644531 L 138.199219 131.6875 C 139.730469 130.160156 142.132812 130.015625 143.804688 131.398438 L 150.644531 136.855469 C 155.957031 133.582031 161.707031 131.253906 167.746094 129.796875 L 168.765625 121.0625 C 168.984375 118.953125 170.804688 117.351562 172.914062 117.351562 L 191.253906 117.351562 C 193.363281 117.351562 195.183594 118.953125 195.402344 121.0625 L 196.421875 129.796875 C 202.460938 131.253906 208.210938 133.652344 213.523438 136.855469 L 220.363281 131.398438 C 222.039062 130.085938 224.441406 130.234375 225.96875 131.6875 L 238.921875 144.644531 C 240.449219 146.171875 240.597656 148.574219 239.214844 150.246094 L 233.753906 157.085938 C 237.03125 162.398438 239.359375 168.148438 240.816406 174.191406 L 249.476562 175.207031 C 251.585938 175.425781 253.1875 177.246094 253.1875 179.355469 L 253.1875 197.695312 C 253.1875 199.808594 251.585938 201.625 249.476562 201.84375 L 240.742188 202.863281 C 239.285156 208.902344 236.886719 214.652344 233.683594 219.964844 L 239.140625 226.808594 C 240.449219 228.480469 240.304688 230.882812 238.851562 232.410156 L 225.894531 245.363281 C 224.367188 246.894531 221.964844 247.039062 220.292969 245.65625 L 213.453125 240.199219 C 208.136719 243.472656 202.390625 245.800781 196.347656 247.257812 L 195.328125 255.917969 C 195.183594 258.101562 193.363281 259.703125 191.253906 259.703125 Z M 176.625 251.257812 L 187.46875 251.257812 L 188.417969 243.328125 C 188.632812 241.507812 190.015625 240.050781 191.835938 239.6875 C 198.894531 238.378906 205.519531 235.613281 211.414062 231.539062 C 212.941406 230.519531 214.980469 230.589844 216.363281 231.683594 L 222.621094 236.703125 L 230.335938 228.988281 L 225.3125 222.730469 C 224.148438 221.277344 224.078125 219.3125 225.167969 217.78125 C 229.242188 211.816406 231.9375 205.265625 233.320312 198.207031 C 233.683594 196.386719 235.136719 195.003906 236.957031 194.785156 L 244.964844 193.839844 L 244.964844 182.996094 L 237.03125 182.050781 C 235.210938 181.832031 233.753906 180.449219 233.390625 178.628906 C 232.082031 171.570312 229.316406 164.949219 225.242188 159.050781 C 224.222656 157.523438 224.292969 155.488281 225.386719 154.105469 L 230.40625 147.84375 L 222.695312 140.132812 L 216.433594 145.152344 C 214.980469 146.316406 213.015625 146.390625 211.484375 145.296875 C 205.519531 141.222656 198.96875 138.53125 191.910156 137.148438 C 190.089844 136.78125 188.707031 135.328125 188.488281 133.507812 L 187.542969 125.503906 L 176.699219 125.503906 L 175.753906 133.507812 C 175.535156 135.328125 174.152344 136.78125 172.332031 137.148438 C 165.273438 138.457031 158.722656 141.222656 152.757812 145.296875 C 151.226562 146.316406 149.191406 146.242188 147.808594 145.152344 L 141.546875 140.132812 L 133.835938 147.84375 L 138.855469 154.105469 C 140.019531 155.558594 140.09375 157.523438 139 159.050781 C 134.925781 165.019531 132.234375 171.570312 130.851562 178.628906 C 130.488281 180.449219 129.03125 181.832031 127.210938 182.050781 L 119.207031 182.996094 L 119.207031 193.839844 L 127.140625 194.785156 C 128.957031 195.003906 130.414062 196.386719 130.777344 198.207031 C 132.089844 205.265625 134.851562 211.886719 138.929688 217.78125 C 139.949219 219.3125 139.875 221.347656 138.785156 222.730469 L 133.761719 228.988281 L 141.476562 236.703125 L 147.734375 231.683594 C 149.191406 230.519531 151.15625 230.445312 152.683594 231.539062 C 158.652344 235.613281 165.199219 238.304688 172.261719 239.6875 C 174.078125 240.050781 175.460938 241.507812 175.679688 243.328125 Z M 176.625 251.257812 "/></g><path style=" stroke:none;fill-rule:nonzero;fill:#ffffff;fill-opacity:1;" d="M 182.085938 230.226562 C 159.085938 230.226562 140.3125 211.523438 140.3125 188.453125 C 140.3125 165.457031 159.015625 146.679688 182.085938 146.679688 C 205.082031 146.679688 223.859375 165.382812 223.859375 188.453125 C 223.859375 211.449219 205.082031 230.226562 182.085938 230.226562 Z M 182.085938 155.121094 C 163.671875 155.121094 148.753906 170.113281 148.753906 188.453125 C 148.753906 206.792969 163.746094 221.785156 182.085938 221.785156 C 200.425781 221.785156 215.417969 206.792969 215.417969 188.453125 C 215.417969 170.113281 200.496094 155.121094 182.085938 155.121094 Z M 182.085938 155.121094 "/><path style=" stroke:none;fill-rule:nonzero;fill:#ffffff;fill-opacity:1;" d="M 122.117188 128.558594 C 121.027344 128.558594 120.007812 128.121094 119.132812 127.324219 C 117.53125 125.722656 117.53125 123.027344 119.132812 121.425781 L 143.804688 96.757812 L 119.132812 72.085938 C 117.53125 70.484375 117.53125 67.792969 119.132812 66.191406 C 120.734375 64.589844 123.425781 64.589844 125.027344 66.191406 L 152.683594 93.84375 C 154.285156 95.445312 154.285156 98.140625 152.683594 99.742188 L 125.027344 127.394531 C 124.226562 128.121094 123.136719 128.558594 122.117188 128.558594 Z M 122.117188 128.558594 "/><path style=" stroke:none;fill-rule:nonzero;fill:#ffffff;fill-opacity:1;" d="M 73.429688 128.558594 C 72.339844 128.558594 71.320312 128.121094 70.445312 127.324219 L 42.792969 99.667969 C 41.191406 98.066406 41.191406 95.375 42.792969 93.773438 L 70.445312 66.117188 C 72.046875 64.515625 74.742188 64.515625 76.339844 66.117188 C 77.941406 67.71875 77.941406 70.410156 76.339844 72.011719 L 51.742188 96.683594 L 76.414062 121.355469 C 78.015625 122.957031 78.015625 125.648438 76.414062 127.25 C 75.542969 128.121094 74.523438 128.558594 73.429688 128.558594 Z M 73.429688 128.558594 "/><path style=" stroke:none;fill-rule:nonzero;fill:#ffffff;fill-opacity:1;" d="M 87.550781 139.113281 C 87.183594 139.113281 86.820312 139.039062 86.457031 138.964844 C 84.203125 138.382812 82.890625 136.054688 83.472656 133.800781 L 103.921875 57.386719 C 104.507812 55.128906 106.835938 53.820312 109.089844 54.402344 C 111.347656 54.984375 112.65625 57.3125 112.074219 59.566406 L 91.625 135.984375 C 91.042969 137.875 89.367188 139.113281 87.550781 139.113281 Z M 87.550781 139.113281 "/><g clip-rule="nonzero" clip-path="url(#019d117902)"><path style=" stroke:none;fill-rule:nonzero;fill:#ffffff;fill-opacity:1;" d="M 176.410156 323.378906 L 19.140625 323.378906 C 8.585938 323.378906 0.0742188 314.792969 0.0742188 304.3125 L 0.0742188 19.761719 C 0 9.207031 8.585938 0.621094 19.140625 0.621094 L 176.410156 0.621094 C 186.960938 0.621094 195.476562 9.207031 195.476562 19.6875 L 195.476562 121.574219 C 195.476562 123.828125 193.730469 125.648438 191.546875 125.792969 C 191.035156 125.792969 190.601562 125.792969 190.089844 125.648438 L 176.625 125.648438 L 175.679688 133.652344 C 175.460938 135.472656 174.078125 136.929688 172.261719 137.292969 C 165.199219 138.601562 158.652344 141.367188 152.683594 145.445312 C 151.15625 146.460938 149.117188 146.390625 147.734375 145.296875 L 141.476562 140.277344 L 133.761719 147.992188 L 138.785156 154.25 C 139.949219 155.703125 140.019531 157.667969 138.929688 159.199219 C 134.851562 165.164062 132.160156 171.714844 130.777344 178.773438 C 130.414062 180.59375 128.957031 181.976562 127.140625 182.195312 L 119.207031 183.140625 L 119.207031 193.984375 L 127.140625 194.929688 C 128.957031 195.148438 130.414062 196.53125 130.777344 198.351562 C 132.089844 205.410156 134.851562 212.035156 138.929688 217.929688 C 139.949219 219.457031 139.875 221.496094 138.785156 222.875 L 133.761719 229.136719 L 141.476562 236.851562 L 147.734375 231.828125 C 149.191406 230.664062 151.15625 230.589844 152.683594 231.683594 C 158.652344 235.757812 165.199219 238.449219 172.261719 239.832031 C 174.078125 240.199219 175.460938 241.652344 175.679688 243.472656 L 176.625 251.476562 L 190.089844 251.476562 C 190.527344 251.332031 191.035156 251.257812 191.472656 251.332031 C 193.65625 251.476562 195.402344 253.296875 195.402344 255.554688 L 195.402344 304.53125 C 195.476562 314.792969 186.886719 323.378906 176.410156 323.378906 Z M 19.140625 8.988281 C 13.246094 8.988281 8.441406 13.792969 8.441406 19.6875 L 8.441406 304.238281 C 8.441406 310.136719 13.246094 314.9375 19.140625 314.9375 L 176.410156 314.9375 C 182.304688 314.9375 187.105469 310.136719 187.105469 304.238281 L 187.105469 259.703125 L 172.914062 259.703125 C 170.804688 259.703125 168.984375 258.101562 168.765625 255.988281 L 167.746094 247.257812 C 161.707031 245.800781 155.957031 243.398438 150.644531 240.199219 L 143.804688 245.65625 C 142.132812 246.964844 139.730469 246.820312 138.199219 245.363281 L 125.246094 232.410156 C 123.71875 230.882812 123.574219 228.480469 124.957031 226.808594 L 130.414062 219.964844 C 127.140625 214.652344 124.808594 208.902344 123.355469 202.863281 L 114.695312 201.84375 C 112.585938 201.625 110.984375 199.808594 110.984375 197.695312 L 110.984375 179.355469 C 110.984375 177.246094 112.585938 175.425781 114.695312 175.207031 L 123.355469 174.191406 C 124.808594 168.148438 127.210938 162.398438 130.414062 157.085938 L 124.957031 150.246094 C 123.644531 148.574219 123.792969 146.171875 125.246094 144.644531 L 138.199219 131.6875 C 139.730469 130.160156 142.132812 130.015625 143.804688 131.398438 L 150.644531 136.855469 C 155.957031 133.582031 161.707031 131.253906 167.746094 129.796875 L 168.765625 121.0625 C 168.984375 118.953125 170.804688 117.351562 172.914062 117.351562 L 187.105469 117.351562 L 187.105469 19.832031 C 187.105469 13.9375 182.304688 9.132812 176.410156 9.132812 L 19.140625 9.132812 Z M 19.140625 8.988281 "/></g><path style=" stroke:none;fill-rule:nonzero;fill:#ffffff;fill-opacity:1;" d="M 173.789062 271.199219 L 21.6875 271.199219 C 19.359375 271.199219 17.464844 269.308594 17.464844 266.980469 L 17.464844 22.234375 C 17.464844 19.90625 19.359375 18.011719 21.6875 18.011719 L 173.789062 18.011719 C 176.117188 18.011719 178.007812 19.90625 178.007812 22.234375 L 178.007812 121.425781 C 178.007812 122.59375 177.574219 123.609375 176.773438 124.339844 L 175.679688 133.582031 C 175.460938 135.402344 174.078125 136.855469 172.261719 137.21875 C 165.199219 138.53125 158.652344 141.296875 152.683594 145.371094 C 151.15625 146.390625 149.117188 146.316406 147.734375 145.226562 L 141.476562 140.203125 L 133.761719 147.917969 L 138.785156 154.175781 C 139.949219 155.632812 140.019531 157.597656 138.929688 159.125 C 134.851562 165.09375 132.160156 171.644531 130.777344 178.703125 C 130.414062 180.519531 128.957031 181.902344 127.140625 182.121094 L 119.132812 183.070312 L 119.132812 193.914062 L 127.066406 194.859375 C 128.886719 195.078125 130.339844 196.460938 130.707031 198.277344 C 132.015625 205.339844 134.78125 211.960938 138.855469 217.855469 C 139.875 219.382812 139.800781 221.421875 138.710938 222.804688 L 133.6875 229.0625 L 141.402344 236.777344 L 147.660156 231.753906 C 149.117188 230.589844 151.082031 230.519531 152.609375 231.609375 C 158.578125 235.683594 165.128906 238.378906 172.1875 239.761719 C 174.007812 240.125 175.390625 241.582031 175.609375 243.398438 L 176.699219 252.640625 C 177.425781 253.371094 177.9375 254.460938 177.9375 255.554688 L 177.9375 266.980469 C 178.007812 269.308594 176.117188 271.199219 173.789062 271.199219 Z M 25.90625 262.832031 L 169.640625 262.832031 L 169.640625 258.101562 C 169.203125 257.519531 168.839844 256.789062 168.765625 255.988281 L 167.746094 247.257812 C 161.707031 245.800781 155.957031 243.398438 150.644531 240.199219 L 143.804688 245.65625 C 142.132812 246.964844 139.730469 246.820312 138.199219 245.363281 L 125.246094 232.410156 C 123.71875 230.882812 123.574219 228.480469 124.957031 226.808594 L 130.414062 219.964844 C 127.140625 214.652344 124.808594 208.902344 123.355469 202.863281 L 114.695312 201.84375 C 112.585938 201.625 110.984375 199.808594 110.984375 197.695312 L 110.984375 179.355469 C 110.984375 177.246094 112.585938 175.425781 114.695312 175.207031 L 123.355469 174.191406 C 124.808594 168.148438 127.210938 162.398438 130.414062 157.085938 L 124.957031 150.246094 C 123.644531 148.574219 123.792969 146.171875 125.246094 144.644531 L 138.199219 131.6875 C 139.730469 130.160156 142.132812 130.015625 143.804688 131.398438 L 150.644531 136.855469 C 155.957031 133.582031 161.707031 131.253906 167.746094 129.796875 L 168.765625 121.0625 C 168.839844 120.261719 169.203125 119.535156 169.640625 118.953125 L 169.640625 26.457031 L 25.90625 26.457031 Z M 25.90625 262.832031 "/><path style=" stroke:none;fill-rule:nonzero;fill:#ffffff;fill-opacity:1;" d="M 116.148438 307.585938 L 79.324219 307.585938 C 74.886719 307.585938 71.320312 303.949219 71.320312 299.582031 L 71.320312 286.773438 C 71.320312 282.335938 74.960938 278.769531 79.324219 278.769531 L 116.148438 278.769531 C 120.589844 278.769531 124.15625 282.40625 124.15625 286.773438 L 124.15625 299.582031 C 124.226562 303.949219 120.589844 307.585938 116.148438 307.585938 Z M 79.6875 299.144531 L 115.859375 299.144531 L 115.859375 286.992188 L 79.6875 286.992188 Z M 116.148438 287.066406 Z M 116.148438 287.066406 "/><path style=" stroke:none;fill-rule:nonzero;fill:#ffffff;fill-opacity:1;" d="M 51.816406 297.328125 L 33.039062 297.328125 C 30.710938 297.328125 28.820312 295.433594 28.820312 293.105469 C 28.820312 290.777344 30.710938 288.882812 33.039062 288.882812 L 51.816406 288.882812 C 54.144531 288.882812 56.039062 290.777344 56.039062 293.105469 C 56.039062 295.433594 54.144531 297.328125 51.816406 297.328125 Z M 51.816406 297.328125 "/><path style=" stroke:none;fill-rule:nonzero;fill:#ffffff;fill-opacity:1;" d="M 162.507812 297.328125 L 143.730469 297.328125 C 141.402344 297.328125 139.511719 295.433594 139.511719 293.105469 C 139.511719 290.777344 141.402344 288.882812 143.730469 288.882812 L 162.507812 288.882812 C 164.835938 288.882812 166.730469 290.777344 166.730469 293.105469 C 166.730469 295.433594 164.835938 297.328125 162.507812 297.328125 Z M 162.507812 297.328125 "/><g clip-rule="nonzero" clip-path="url(#fd1b1b7d33)"><path style=" stroke:none;fill-rule:nonzero;fill:#ffffff;fill-opacity:1;" d="M 191.253906 259.703125 L 172.914062 259.703125 C 170.804688 259.703125 168.984375 258.101562 168.765625 255.988281 L 167.746094 247.257812 C 161.707031 245.800781 155.957031 243.398438 150.644531 240.199219 L 143.804688 245.65625 C 142.132812 246.964844 139.730469 246.820312 138.199219 245.363281 L 125.246094 232.410156 C 123.71875 230.882812 123.574219 228.480469 124.957031 226.808594 L 130.414062 219.964844 C 127.140625 214.652344 124.808594 208.902344 123.355469 202.863281 L 114.695312 201.84375 C 112.585938 201.625 110.984375 199.808594 110.984375 197.695312 L 110.984375 179.355469 C 110.984375 177.246094 112.585938 175.425781 114.695312 175.207031 L 123.355469 174.191406 C 124.808594 168.148438 127.210938 162.398438 130.414062 157.085938 L 124.957031 150.246094 C 123.644531 148.574219 123.792969 146.171875 125.246094 144.644531 L 138.199219 131.6875 C 139.730469 130.160156 142.132812 130.015625 143.804688 131.398438 L 150.644531 136.855469 C 155.957031 133.582031 161.707031 131.253906 167.746094 129.796875 L 168.765625 121.0625 C 168.984375 118.953125 170.804688 117.351562 172.914062 117.351562 L 191.253906 117.351562 C 193.363281 117.351562 195.183594 118.953125 195.402344 121.0625 L 196.421875 129.796875 C 202.460938 131.253906 208.210938 133.652344 213.523438 136.855469 L 220.363281 131.398438 C 222.039062 130.085938 224.441406 130.234375 225.96875 131.6875 L 238.921875 144.644531 C 240.449219 146.171875 240.597656 148.574219 239.214844 150.246094 L 233.753906 157.085938 C 237.03125 162.398438 239.359375 168.148438 240.816406 174.191406 L 249.476562 175.207031 C 251.585938 175.425781 253.1875 177.246094 253.1875 179.355469 L 253.1875 197.695312 C 253.1875 199.808594 251.585938 201.625 249.476562 201.84375 L 240.742188 202.863281 C 239.285156 208.902344 236.886719 214.652344 233.683594 219.964844 L 239.140625 226.808594 C 240.449219 228.480469 240.304688 230.882812 238.851562 232.410156 L 225.894531 245.363281 C 224.367188 246.894531 221.964844 247.039062 220.292969 245.65625 L 213.453125 240.199219 C 208.136719 243.472656 202.390625 245.800781 196.347656 247.257812 L 195.328125 255.917969 C 195.183594 258.101562 193.363281 259.703125 191.253906 259.703125 Z M 176.625 251.257812 L 187.46875 251.257812 L 188.417969 243.328125 C 188.632812 241.507812 190.015625 240.050781 191.835938 239.6875 C 198.894531 238.378906 205.519531 235.613281 211.414062 231.539062 C 212.941406 230.519531 214.980469 230.589844 216.363281 231.683594 L 222.621094 236.703125 L 230.335938 228.988281 L 225.3125 222.730469 C 224.148438 221.277344 224.078125 219.3125 225.167969 217.78125 C 229.242188 211.816406 231.9375 205.265625 233.320312 198.207031 C 233.683594 196.386719 235.136719 195.003906 236.957031 194.785156 L 244.964844 193.839844 L 244.964844 182.996094 L 237.03125 182.050781 C 235.210938 181.832031 233.753906 180.449219 233.390625 178.628906 C 232.082031 171.570312 229.316406 164.949219 225.242188 159.050781 C 224.222656 157.523438 224.292969 155.488281 225.386719 154.105469 L 230.40625 147.84375 L 222.695312 140.132812 L 216.433594 145.152344 C 214.980469 146.316406 213.015625 146.390625 211.484375 145.296875 C 205.519531 141.222656 198.96875 138.53125 191.910156 137.148438 C 190.089844 136.78125 188.707031 135.328125 188.488281 133.507812 L 187.542969 125.503906 L 176.699219 125.503906 L 175.753906 133.507812 C 175.535156 135.328125 174.152344 136.78125 172.332031 137.148438 C 165.273438 138.457031 158.722656 141.222656 152.757812 145.296875 C 151.226562 146.316406 149.191406 146.242188 147.808594 145.152344 L 141.546875 140.132812 L 133.835938 147.84375 L 138.855469 154.105469 C 140.019531 155.558594 140.09375 157.523438 139 159.050781 C 134.925781 165.019531 132.234375 171.570312 130.851562 178.628906 C 130.488281 180.449219 129.03125 181.832031 127.210938 182.050781 L 119.207031 182.996094 L 119.207031 193.839844 L 127.140625 194.785156 C 128.957031 195.003906 130.414062 196.386719 130.777344 198.207031 C 132.089844 205.265625 134.851562 211.886719 138.929688 217.78125 C 139.949219 219.3125 139.875 221.347656 138.785156 222.730469 L 133.761719 228.988281 L 141.476562 236.703125 L 147.734375 231.683594 C 149.191406 230.519531 151.15625 230.445312 152.683594 231.539062 C 158.652344 235.613281 165.199219 238.304688 172.261719 239.6875 C 174.078125 240.050781 175.460938 241.507812 175.679688 243.328125 Z M 176.625 251.257812 "/></g><path style=" stroke:none;fill-rule:nonzero;fill:#ffffff;fill-opacity:1;" d="M 182.085938 230.226562 C 159.085938 230.226562 140.3125 211.523438 140.3125 188.453125 C 140.3125 165.457031 159.015625 146.679688 182.085938 146.679688 C 205.082031 146.679688 223.859375 165.382812 223.859375 188.453125 C 223.859375 211.449219 205.082031 230.226562 182.085938 230.226562 Z M 182.085938 155.121094 C 163.671875 155.121094 148.753906 170.113281 148.753906 188.453125 C 148.753906 206.792969 163.746094 221.785156 182.085938 221.785156 C 200.425781 221.785156 215.417969 206.792969 215.417969 188.453125 C 215.417969 170.113281 200.496094 155.121094 182.085938 155.121094 Z M 182.085938 155.121094 "/></g></svg>