<svg xmlns="http://www.w3.org/2000/svg" xmlns:xlink="http://www.w3.org/1999/xlink" width="1080" zoomAndPan="magnify" viewBox="0 0 810 809.999993" height="1080" preserveAspectRatio="xMidYMid meet" version="1.2"><defs><clipPath id="0c40b61c40"><path d="M 233 0 L 763.574219 0 L 763.574219 476 L 233 476 Z M 233 0 "/></clipPath></defs><g id="ed63aefd43"><g clip-rule="nonzero" clip-path="url(#0c40b61c40)"><path style=" stroke:none;fill-rule:nonzero;fill:#000000;fill-opacity:1;" d="M 763.574219 265.28125 C 763.574219 243.199219 718.550781 227.910156 713.453125 207.527344 C 707.507812 187.144531 738.9375 150.621094 727.894531 132.785156 C 716.851562 114.097656 670.976562 123.441406 655.683594 108.152344 C 640.394531 92.867188 649.738281 47 631.050781 35.960938 C 613.207031 25.765625 576.679688 56.34375 556.289062 50.398438 C 535.902344 45.300781 520.609375 0.285156 498.523438 0.285156 C 476.433594 0.285156 461.144531 45.300781 440.753906 50.398438 C 420.367188 56.34375 383.835938 24.917969 365.996094 35.960938 C 347.308594 47 356.652344 92.867188 341.359375 108.152344 C 326.070312 123.441406 280.195312 114.097656 269.152344 132.785156 C 258.957031 150.621094 289.539062 187.144531 283.59375 207.527344 C 278.496094 227.910156 233.46875 243.199219 233.46875 265.28125 C 233.46875 287.367188 278.496094 302.652344 283.59375 323.039062 C 289.539062 344.273438 258.105469 379.945312 269.152344 397.78125 C 280.195312 416.464844 326.070312 407.125 341.359375 422.410156 C 345.609375 426.660156 348.15625 433.453125 349.855469 441.097656 L 504.46875 447.890625 C 524.007812 448.742188 541.847656 457.234375 554.589844 471.671875 C 555.441406 473.371094 557.140625 474.222656 557.988281 475.921875 L 645.492188 449.589844 C 647.191406 438.550781 649.738281 428.355469 654.835938 422.410156 C 670.128906 407.125 716 416.464844 727.046875 397.78125 C 737.238281 379.945312 706.65625 343.421875 712.601562 323.039062 C 718.550781 302.652344 763.574219 286.515625 763.574219 265.28125 Z M 607.261719 224.515625 L 478.984375 352.765625 C 469.640625 362.109375 453.496094 362.109375 443.304688 352.765625 L 388.933594 298.40625 C 379.589844 289.0625 379.589844 272.925781 388.933594 262.734375 C 398.277344 253.390625 414.417969 253.390625 424.613281 262.734375 L 461.144531 299.257812 L 571.582031 188.839844 C 581.777344 178.648438 597.066406 178.648438 607.261719 188.839844 C 617.457031 198.183594 617.457031 214.320312 607.261719 224.515625 Z M 607.261719 224.515625 "/></g><path style=" stroke:none;fill-rule:nonzero;fill:#000000;fill-opacity:1;" d="M 97.546875 632.199219 L 51.671875 691.652344 C 46.574219 698.449219 47.425781 707.792969 54.222656 713.738281 L 173.15625 804.617188 C 179.949219 809.714844 189.296875 808.863281 195.242188 802.070312 L 241.117188 742.613281 L 100.945312 634.746094 C 99.246094 633.898438 98.394531 633.050781 97.546875 632.199219 Z M 97.546875 632.199219 "/><path style=" stroke:none;fill-rule:nonzero;fill:#000000;fill-opacity:1;" d="M 678.621094 481.867188 L 569.035156 514.988281 C 569.035156 517.539062 569.035156 520.085938 569.035156 522.632812 C 567.335938 553.210938 545.246094 579.539062 514.664062 585.484375 L 507.867188 587.183594 C 467.941406 595.679688 427.164062 599.925781 386.386719 601.625 L 353.253906 602.472656 C 343.058594 602.472656 334.5625 594.828125 334.5625 584.636719 C 334.5625 574.445312 342.210938 565.949219 352.40625 565.949219 L 385.535156 565.101562 C 423.765625 564.253906 462.84375 559.15625 501.070312 551.511719 L 507.867188 549.8125 C 521.460938 547.265625 531.65625 535.375 532.503906 520.9375 C 533.351562 512.441406 529.957031 504.796875 524.859375 498.003906 C 518.910156 492.058594 511.265625 488.660156 503.621094 487.8125 L 328.617188 480.167969 C 309.078125 479.316406 289.539062 485.261719 274.246094 496.304688 L 126.429688 601.625 L 276.796875 716.285156 L 422.914062 731.574219 C 448.402344 734.121094 473.886719 727.328125 495.125 711.1875 L 711.753906 544.71875 C 720.25 538.773438 724.496094 529.429688 725.347656 519.238281 C 726.195312 509.042969 722.796875 498.851562 716 492.058594 C 706.65625 481.867188 692.214844 477.617188 678.621094 481.867188 Z M 678.621094 481.867188 "/></g></svg>