<svg xmlns="http://www.w3.org/2000/svg" xmlns:xlink="http://www.w3.org/1999/xlink" width="1080" zoomAndPan="magnify" viewBox="0 0 810 809.999993" height="1080" preserveAspectRatio="xMidYMid meet" version="1.2"><defs><clipPath id="98182aa0c8"><path d="M 61.277344 73 L 749 73 L 749 762.921875 L 61.277344 762.921875 Z M 61.277344 73 "/></clipPath></defs><g id="8af443f8be"><g clip-rule="nonzero" clip-path="url(#98182aa0c8)"><path style=" stroke:none;fill-rule:nonzero;fill:#ffffff;fill-opacity:1;" d="M 742.136719 478.902344 L 718.605469 474.265625 L 701.667969 433.347656 L 715.023438 413.429688 C 717.199219 410.175781 716.789062 405.9375 714.027344 403.175781 L 683.199219 372.347656 C 680.4375 369.585938 676.199219 369.160156 672.945312 371.347656 L 653.023438 384.707031 L 612.105469 367.753906 L 607.457031 344.226562 C 606.707031 340.382812 603.410156 337.675781 599.5 337.675781 L 555.902344 337.675781 C 551.992188 337.675781 548.699219 340.382812 547.945312 344.226562 L 543.3125 367.753906 L 502.394531 384.707031 L 482.476562 371.347656 C 479.222656 369.175781 474.984375 369.585938 472.222656 372.347656 L 441.390625 403.175781 C 438.632812 405.953125 438.207031 410.175781 440.394531 413.429688 L 453.75 433.347656 L 436.800781 474.265625 L 413.269531 478.902344 C 409.429688 479.652344 406.722656 482.949219 406.722656 486.859375 L 406.722656 530.457031 C 406.722656 534.367188 409.429688 537.660156 413.269531 538.414062 L 436.800781 543.046875 L 453.75 583.964844 L 440.394531 603.886719 C 438.21875 607.140625 438.628906 611.378906 441.390625 614.140625 L 472.222656 644.96875 C 474.984375 647.730469 479.222656 648.152344 482.476562 645.964844 L 502.394531 632.609375 L 543.3125 649.5625 L 547.945312 673.089844 C 548.699219 676.929688 551.992188 679.636719 555.902344 679.636719 L 599.5 679.636719 C 603.410156 679.636719 606.707031 676.929688 607.457031 673.089844 L 612.09375 649.5625 L 653.011719 632.609375 L 672.929688 645.964844 C 676.183594 648.152344 680.421875 647.730469 683.183594 644.96875 L 714.011719 614.140625 C 716.773438 611.363281 717.199219 607.140625 715.011719 603.886719 L 701.667969 583.964844 L 718.621094 543.046875 L 742.148438 538.414062 C 745.988281 537.660156 748.695312 534.367188 748.695312 530.457031 L 748.695312 486.859375 C 748.683594 482.949219 745.976562 479.652344 742.136719 478.902344 Z M 577.710938 607.179688 C 523.296875 607.179688 479.195312 563.078125 479.195312 508.664062 C 479.195312 454.253906 523.296875 410.148438 577.710938 410.148438 C 632.121094 410.148438 676.226562 454.253906 676.226562 508.664062 C 676.226562 563.0625 632.121094 607.179688 577.710938 607.179688 Z M 310.734375 622.054688 C 313.59375 621.496094 315.601562 619.046875 315.601562 616.136719 L 315.601562 583.71875 C 315.601562 580.808594 313.59375 578.359375 310.734375 577.800781 L 293.234375 574.355469 L 280.632812 543.921875 L 290.570312 529.117188 C 292.195312 526.695312 291.882812 523.550781 289.816406 521.488281 L 266.890625 498.5625 C 264.828125 496.496094 261.683594 496.195312 259.261719 497.808594 L 244.457031 507.75 L 214.023438 495.144531 L 210.578125 477.644531 C 210.019531 474.785156 207.570312 472.777344 204.660156 472.777344 L 172.246094 472.777344 C 169.332031 472.777344 166.886719 474.785156 166.324219 477.644531 L 162.878906 495.144531 L 132.445312 507.75 L 117.640625 497.808594 C 115.222656 496.183594 112.078125 496.496094 110.011719 498.5625 L 87.085938 521.488281 C 85.019531 523.554688 84.71875 526.695312 86.347656 529.117188 L 96.285156 543.921875 L 83.679688 574.355469 L 66.183594 577.800781 C 63.324219 578.359375 61.316406 580.808594 61.316406 583.71875 L 61.316406 616.136719 C 61.316406 619.046875 63.324219 621.496094 66.183594 622.054688 L 83.679688 625.5 L 96.285156 655.933594 L 86.347656 670.738281 C 84.71875 673.160156 85.035156 676.300781 87.085938 678.367188 L 110.011719 701.292969 C 112.078125 703.359375 115.222656 703.660156 117.640625 702.03125 L 132.445312 692.09375 L 162.867188 704.699219 L 166.3125 722.199219 C 166.871094 725.054688 169.320312 727.0625 172.230469 727.0625 L 204.644531 727.0625 C 207.558594 727.0625 210.003906 725.054688 210.566406 722.199219 L 214.011719 704.699219 L 244.429688 692.09375 L 259.234375 702.03125 C 261.65625 703.660156 264.800781 703.34375 266.863281 701.292969 L 289.789062 678.367188 C 291.855469 676.300781 292.15625 673.160156 290.542969 670.738281 L 280.605469 655.933594 L 293.207031 625.5 Z M 188.457031 658.871094 C 155.894531 658.871094 129.507812 632.472656 129.507812 599.921875 C 129.507812 567.355469 155.90625 540.96875 188.457031 540.96875 C 221.023438 540.96875 247.410156 567.371094 247.410156 599.921875 C 247.421875 632.484375 221.023438 658.871094 188.457031 658.871094 Z M 415.402344 365.335938 L 438.328125 342.40625 C 440.394531 340.34375 440.695312 337.199219 439.082031 334.777344 L 429.144531 319.972656 L 441.746094 289.539062 L 459.246094 286.09375 C 462.105469 285.535156 464.113281 283.085938 464.113281 280.175781 L 464.113281 247.761719 C 464.113281 244.847656 462.105469 242.402344 459.246094 241.839844 L 441.746094 238.394531 L 429.144531 207.964844 L 439.082031 193.15625 C 440.707031 190.738281 440.394531 187.59375 438.328125 185.527344 L 415.402344 162.601562 C 413.339844 160.539062 410.195312 160.238281 407.773438 161.851562 L 392.96875 171.789062 L 362.535156 159.183594 L 359.089844 141.683594 C 358.53125 138.828125 356.082031 136.816406 353.171875 136.816406 L 320.757812 136.816406 C 317.84375 136.816406 315.398438 138.828125 314.835938 141.683594 L 311.390625 159.183594 L 280.960938 171.789062 L 266.152344 161.851562 C 263.734375 160.222656 260.589844 160.539062 258.523438 162.601562 L 235.597656 185.527344 C 233.535156 187.59375 233.234375 190.738281 234.859375 193.15625 L 244.796875 207.964844 L 232.195312 238.394531 L 214.695312 241.839844 C 211.835938 242.402344 209.828125 244.847656 209.828125 247.761719 L 209.828125 280.175781 C 209.828125 283.085938 211.835938 285.535156 214.695312 286.09375 L 232.195312 289.539062 L 244.796875 319.972656 L 234.859375 334.777344 C 233.234375 337.199219 233.546875 340.34375 235.597656 342.40625 L 258.523438 365.335938 C 260.589844 367.398438 263.734375 367.699219 266.152344 366.074219 L 280.960938 356.132812 L 311.378906 368.738281 L 314.824219 386.238281 C 315.382812 389.09375 317.832031 391.105469 320.742188 391.105469 L 353.15625 391.105469 C 356.070312 391.105469 358.515625 389.09375 359.078125 386.238281 L 362.523438 368.738281 L 392.941406 356.132812 L 407.746094 366.074219 C 410.179688 367.699219 413.339844 367.386719 415.402344 365.335938 Z M 336.957031 322.925781 C 304.390625 322.925781 277.992188 296.527344 277.992188 263.976562 C 277.992188 231.410156 304.390625 205.023438 336.957031 205.023438 C 369.523438 205.023438 395.90625 231.421875 395.90625 263.976562 C 395.90625 296.527344 369.507812 322.925781 336.957031 322.925781 Z M 350.355469 480.488281 C 370.917969 515.226562 381.703125 554.613281 381.703125 595.464844 C 381.703125 658.339844 356.507812 716.757812 310.75 759.945312 C 308.890625 761.695312 306.539062 762.554688 304.171875 762.554688 C 301.628906 762.554688 299.101562 761.558594 297.214844 759.5625 C 293.589844 755.71875 293.769531 749.664062 297.609375 746.027344 C 339.484375 706.488281 362.5625 653.019531 362.5625 595.464844 C 362.5625 557.648438 352.460938 521.1875 333.226562 489.140625 L 331.230469 505.371094 C 330.585938 510.605469 325.816406 514.367188 320.566406 513.695312 C 315.316406 513.054688 311.597656 508.28125 312.238281 503.03125 L 317.3125 461.691406 C 317.652344 458.847656 319.253906 456.316406 321.660156 454.785156 C 324.066406 453.253906 327.03125 452.871094 329.738281 453.746094 L 370.820312 466.980469 C 375.851562 468.609375 378.613281 473.992188 376.988281 479.023438 C 375.375 484.054688 369.972656 486.816406 364.941406 485.203125 Z M 146.816406 274.597656 C 144.667969 236.179688 154.089844 198.40625 174.0625 165.335938 C 194.5 131.511719 224.511719 105.265625 260.847656 89.417969 C 357.066406 47.449219 469.5 91.59375 511.472656 187.824219 C 522.546875 213.199219 527.507812 237.316406 527.152344 265.507812 L 536.082031 255.691406 C 539.648438 251.792969 545.691406 251.507812 549.601562 255.0625 C 553.511719 258.617188 553.796875 264.671875 550.242188 268.582031 L 522.613281 298.917969 C 520.796875 300.914062 518.210938 302.050781 515.53125 302.050781 C 515.3125 302.050781 515.082031 302.035156 514.847656 302.023438 C 511.9375 301.816406 509.269531 300.273438 507.617188 297.851562 L 484.566406 263.90625 C 481.601562 259.53125 482.734375 253.585938 487.109375 250.617188 C 491.484375 247.652344 497.429688 248.785156 500.398438 253.160156 L 508.011719 264.371094 C 508.191406 239.339844 503.71875 217.914062 493.929688 195.46875 C 456.183594 108.914062 355.042969 69.210938 268.492188 106.960938 C 203.167969 135.449219 161.9375 202.398438 165.929688 273.53125 C 166.214844 278.808594 162.183594 283.320312 156.90625 283.621094 C 151.613281 283.90625 147.101562 279.875 146.816406 274.597656 Z M 204.277344 400.484375 C 200.488281 396.804688 200.394531 390.75 204.070312 386.949219 C 207.761719 383.160156 213.820312 383.066406 217.605469 386.757812 C 223.582031 392.554688 230.046875 397.96875 236.8125 402.863281 C 241.09375 405.964844 242.0625 411.941406 238.972656 416.234375 C 237.101562 418.816406 234.175781 420.199219 231.210938 420.199219 C 229.269531 420.199219 227.300781 419.609375 225.617188 418.394531 C 218.097656 412.953125 210.921875 406.921875 204.277344 400.484375 Z M 174.132812 317.144531 C 178.300781 329.910156 183.972656 342.1875 191.027344 353.644531 C 193.804688 358.144531 192.410156 364.035156 187.910156 366.8125 C 186.339844 367.769531 184.601562 368.234375 182.894531 368.234375 C 179.683594 368.234375 176.550781 366.621094 174.734375 363.679688 C 166.886719 350.9375 160.570312 337.28125 155.933594 323.074219 C 154.308594 318.046875 157.054688 312.644531 162.074219 311.003906 C 167.105469 309.363281 172.503906 312.125 174.132812 317.144531 Z M 261.804688 428.714844 C 263.746094 423.792969 269.3125 421.386719 274.21875 423.328125 C 280.097656 425.636719 286.152344 427.648438 292.238281 429.300781 C 297.335938 430.683594 300.359375 435.933594 298.976562 441.03125 C 297.816406 445.296875 293.960938 448.113281 289.734375 448.113281 C 288.914062 448.113281 288.066406 448.003906 287.234375 447.773438 C 280.46875 445.941406 273.726562 443.710938 267.207031 441.128906 C 262.285156 439.1875 259.851562 433.636719 261.804688 428.714844 Z M 595.753906 478.273438 L 578.148438 543.992188 C 577 548.269531 573.128906 551.085938 568.90625 551.085938 C 568.085938 551.085938 567.25 550.976562 566.429688 550.757812 C 561.316406 549.390625 558.296875 544.140625 559.664062 539.042969 L 577.273438 473.308594 C 578.640625 468.210938 583.890625 465.191406 588.988281 466.542969 C 594.101562 467.925781 597.121094 473.160156 595.753906 478.273438 Z M 623.632812 473.117188 L 656.304688 501.417969 C 658.398438 503.238281 659.601562 505.875 659.601562 508.652344 C 659.601562 511.425781 658.398438 514.066406 656.304688 515.882812 L 623.632812 544.183594 C 621.828125 545.753906 619.585938 546.519531 617.371094 546.519531 C 614.691406 546.519531 612.039062 545.398438 610.136719 543.210938 C 606.664062 539.21875 607.101562 533.175781 611.09375 529.71875 L 635.417969 508.652344 L 611.09375 487.582031 C 607.101562 484.125 606.664062 478.082031 610.136719 474.089844 C 613.597656 470.097656 619.640625 469.660156 623.632812 473.117188 Z M 544.308594 487.582031 L 520.003906 508.652344 L 544.308594 529.71875 C 548.316406 533.175781 548.738281 539.21875 545.28125 543.210938 C 543.394531 545.398438 540.726562 546.519531 538.050781 546.519531 C 535.820312 546.519531 533.59375 545.753906 531.789062 544.183594 L 499.113281 515.882812 C 497.019531 514.066406 495.816406 511.425781 495.816406 508.652344 C 495.816406 505.875 497.019531 503.238281 499.113281 501.417969 L 531.789062 473.117188 C 535.78125 469.660156 541.820312 470.097656 545.28125 474.089844 C 548.738281 478.082031 548.316406 484.125 544.308594 487.582031 Z M 544.308594 487.582031 "/></g></g></svg>