<svg xmlns="http://www.w3.org/2000/svg" xmlns:xlink="http://www.w3.org/1999/xlink" width="1080" zoomAndPan="magnify" viewBox="0 0 810 809.999993" height="1080" preserveAspectRatio="xMidYMid meet" version="1.2"><g id="840752d8b9"><path style=" stroke:none;fill-rule:evenodd;fill:#000000;fill-opacity:1;" d="M 633.398438 188.019531 C 691.753906 188.019531 739.246094 235.519531 739.246094 293.910156 C 739.246094 322.390625 727.96875 348.277344 709.550781 367.335938 L 709.550781 358.058594 C 709.550781 328.96875 693.203125 303.664062 669.09375 290.828125 C 677.164062 282.121094 682.132812 270.476562 682.132812 257.660156 C 682.132812 230.773438 660.300781 208.890625 633.398438 208.890625 C 606.394531 208.890625 584.5625 230.773438 584.5625 257.660156 C 584.5625 270.476562 589.527344 282.121094 597.597656 290.828125 C 573.59375 303.664062 557.144531 328.96875 557.144531 358.058594 L 557.144531 367.335938 C 538.726562 348.277344 527.449219 322.402344 527.449219 293.910156 C 527.449219 235.519531 574.9375 188.019531 633.398438 188.019531 Z M 609.082031 257.660156 C 609.082031 271.023438 619.945312 281.910156 633.398438 281.910156 C 646.746094 281.910156 657.609375 271.023438 657.609375 257.660156 C 657.609375 244.308594 646.746094 233.429688 633.398438 233.429688 C 619.945312 233.429688 609.082031 244.308594 609.082031 257.660156 Z M 581.664062 386.304688 C 613.804688 404.277344 652.851562 404.320312 685.027344 386.285156 L 685.027344 358.0625 C 685.027344 329.613281 661.851562 306.457031 633.398438 306.457031 C 604.839844 306.457031 581.664062 329.613281 581.664062 358.0625 Z M 545.863281 390.625 L 453.882812 482.585938 C 451.605469 484.871094 450.363281 487.996094 450.363281 491.25 L 450.363281 579.226562 C 450.363281 586.011719 455.847656 591.503906 462.574219 591.503906 C 469.402344 591.503906 474.886719 586.011719 474.886719 579.226562 L 474.886719 496.339844 L 565.835938 405.445312 C 585.496094 417.417969 608.667969 424.328125 633.398438 424.328125 C 705.308594 424.328125 763.871094 365.8125 763.871094 293.910156 C 763.871094 221.992188 705.308594 163.476562 633.398438 163.476562 C 561.386719 163.476562 502.824219 221.992188 502.824219 293.910156 C 502.820312 332.226562 519.480469 366.738281 545.863281 390.625 Z M 173.382812 188.019531 C 231.734375 188.019531 279.332031 235.519531 279.332031 293.910156 C 279.332031 322.390625 267.949219 348.277344 249.53125 367.335938 L 249.53125 358.058594 C 249.53125 328.96875 233.183594 303.664062 209.078125 290.828125 C 217.25 282.121094 222.21875 270.476562 222.21875 257.660156 C 222.21875 230.773438 200.285156 208.890625 173.382812 208.890625 C 146.480469 208.890625 124.542969 230.773438 124.542969 257.660156 C 124.542969 270.476562 129.511719 282.121094 137.582031 290.828125 C 113.578125 303.664062 97.128906 328.96875 97.128906 358.058594 L 97.128906 367.335938 C 78.8125 348.277344 67.429688 322.402344 67.429688 293.910156 C 67.429688 235.519531 114.925781 188.019531 173.382812 188.019531 Z M 149.171875 257.660156 C 149.171875 271.023438 160.035156 281.910156 173.382812 281.910156 C 186.730469 281.910156 197.59375 271.023438 197.59375 257.660156 C 197.59375 244.308594 186.730469 233.429688 173.382812 233.429688 C 160.035156 233.429688 149.171875 244.308594 149.171875 257.660156 Z M 121.75 386.304688 C 153.910156 404.285156 192.863281 404.304688 225.011719 386.285156 L 225.011719 358.0625 C 225.011719 329.613281 201.835938 306.457031 173.382812 306.457031 C 144.925781 306.457031 121.75 329.613281 121.75 358.0625 Z M 173.382812 424.328125 C 198.109375 424.328125 221.183594 417.421875 240.945312 405.445312 L 331.789062 496.339844 L 331.789062 579.230469 C 331.789062 586.015625 337.375 591.503906 344.101562 591.503906 C 350.933594 591.503906 356.414062 586.015625 356.414062 579.230469 L 356.414062 491.253906 C 356.414062 487.996094 355.070312 484.871094 352.792969 482.585938 L 260.8125 390.628906 C 287.195312 366.738281 303.855469 332.230469 303.855469 293.914062 C 303.855469 221.996094 245.292969 163.480469 173.382812 163.480469 C 101.46875 163.480469 42.910156 221.996094 42.910156 293.914062 C 42.910156 365.816406 101.472656 424.328125 173.382812 424.328125 Z M 297.4375 130.34375 C 297.4375 71.964844 344.929688 24.476562 403.390625 24.476562 C 461.742188 24.476562 509.339844 71.964844 509.339844 130.34375 C 509.339844 158.847656 497.957031 184.730469 479.539062 203.78125 L 479.539062 194.515625 C 479.539062 165.421875 463.191406 140.097656 439.085938 127.28125 C 447.15625 118.566406 452.121094 106.910156 452.121094 94.117188 C 452.121094 67.21875 430.292969 45.332031 403.390625 45.332031 C 376.488281 45.332031 354.550781 67.21875 354.550781 94.117188 C 354.550781 106.910156 359.519531 118.566406 367.589844 127.269531 C 343.585938 140.09375 327.136719 165.421875 327.136719 194.515625 L 327.136719 203.78125 C 308.820312 184.730469 297.4375 158.847656 297.4375 130.34375 Z M 379.074219 94.117188 C 379.074219 107.46875 389.941406 118.347656 403.390625 118.347656 C 416.738281 118.347656 427.601562 107.46875 427.601562 94.117188 C 427.601562 80.746094 416.738281 69.886719 403.390625 69.886719 C 389.941406 69.886719 379.074219 80.746094 379.074219 94.117188 Z M 351.757812 222.75 L 351.757812 194.515625 C 351.757812 166.046875 374.832031 142.898438 403.390625 142.898438 C 431.84375 142.898438 455.019531 166.046875 455.019531 194.515625 L 455.019531 222.75 C 422.980469 240.6875 383.710938 240.757812 351.757812 222.75 Z M 415.597656 577.957031 L 415.597656 260.183594 C 481.820312 253.960938 533.863281 198.113281 533.863281 130.34375 C 533.863281 58.425781 475.300781 -0.0664062 403.390625 -0.0664062 C 331.375 -0.0664062 272.914062 58.425781 272.914062 130.34375 C 272.914062 198.113281 324.855469 253.960938 391.074219 260.183594 L 391.074219 577.957031 C 391.074219 584.730469 396.558594 590.230469 403.390625 590.230469 C 410.117188 590.230469 415.597656 584.730469 415.597656 577.957031 Z M 371.417969 785.339844 L 238.050781 785.339844 L 238.050781 765.753906 L 371.417969 765.753906 Z M 109.644531 647.773438 L 42.082031 454.859375 C 39.273438 446.757812 43.601562 437.703125 51.707031 434.859375 C 59.878906 432.003906 68.878906 436.328125 71.777344 444.484375 L 116.890625 573.457031 C 124.210938 594.378906 137.277344 606.75 156.515625 616.59375 L 214.460938 644.453125 C 220.417969 647.390625 227.835938 644.90625 230.808594 638.734375 C 233.808594 632.621094 231.222656 625.277344 225.117188 622.351562 L 169.035156 595.371094 C 165.207031 591.160156 164.277344 584.988281 166.757812 579.855469 C 170.121094 572.976562 178.542969 569.929688 185.488281 573.289062 L 273.332031 615.527344 C 293.609375 625.308594 307.164062 640.429688 314.617188 661.714844 L 342.449219 741.210938 L 249.121094 741.210938 C 245.707031 735.023438 240.738281 730 234.324219 726.234375 L 116.992188 656.730469 C 113.371094 654.546875 111.09375 651.808594 109.644531 647.773438 Z M 375.660156 741.210938 C 386.835938 741.210938 395.941406 750.300781 395.941406 761.480469 L 395.941406 789.589844 C 395.941406 800.769531 386.835938 809.878906 375.660156 809.878906 L 233.808594 809.878906 C 222.632812 809.878906 213.527344 800.769531 213.527344 789.589844 L 213.527344 761.480469 C 213.527344 755.503906 216.113281 750.144531 220.253906 746.425781 L 104.472656 677.835938 C 95.882812 672.726562 89.777344 665.355469 86.46875 655.890625 L 18.90625 462.976562 C 15.386719 452.855469 16.007812 441.941406 20.664062 432.230469 C 36.085938 400.082031 83.140625 402.636719 94.953125 436.367188 L 140.066406 565.34375 C 140.996094 567.898438 142.03125 570.285156 143.167969 572.550781 C 151.039062 551.316406 175.78125 541.363281 196.144531 551.175781 L 283.988281 593.410156 C 310.0625 605.996094 328.171875 626.246094 337.792969 653.617188 L 368.523438 741.214844 L 375.660156 741.214844 Z M 764.59375 454.859375 L 697.03125 647.773438 C 695.683594 651.804688 693.410156 654.546875 689.683594 656.730469 L 572.351562 726.238281 C 566.039062 730 561.074219 735.027344 557.554688 741.210938 L 464.226562 741.210938 L 492.0625 661.714844 C 499.511719 640.429688 513.066406 625.3125 533.449219 615.527344 L 621.1875 573.292969 C 628.121094 569.984375 636.609375 572.867188 639.914062 579.859375 C 642.398438 584.988281 641.46875 591.160156 637.742188 595.371094 L 581.660156 622.351562 C 569.886719 628.007812 574.027344 645.683594 586.9375 645.683594 C 588.800781 645.683594 590.558594 645.289062 592.320312 644.453125 L 650.261719 616.59375 C 669.15625 607.347656 682.753906 593.523438 689.785156 573.457031 L 735 444.484375 C 737.792969 436.328125 746.796875 432.003906 754.96875 434.859375 C 763.144531 437.710938 767.492188 446.699219 764.59375 454.859375 Z M 568.628906 785.339844 L 435.363281 785.339844 L 435.363281 765.753906 L 568.628906 765.753906 Z M 763.144531 411.691406 C 784.046875 419.023438 795.117188 442.035156 787.773438 462.976562 L 720.207031 655.890625 C 716.894531 665.355469 710.894531 672.726562 702.203125 677.835938 L 586.421875 746.425781 C 590.5625 750.148438 593.148438 755.503906 593.148438 761.480469 L 593.148438 789.589844 C 593.148438 800.769531 584.042969 809.878906 572.867188 809.878906 L 431.117188 809.878906 C 419.941406 809.878906 410.839844 800.769531 410.839844 789.589844 L 410.839844 761.480469 C 410.839844 750.300781 419.941406 741.210938 431.117188 741.210938 L 438.257812 741.210938 L 468.882812 653.617188 C 478.503906 626.242188 496.613281 605.992188 522.789062 593.40625 L 610.527344 551.171875 C 631.015625 541.347656 655.640625 551.339844 663.503906 572.550781 C 664.746094 570.285156 665.679688 567.894531 666.609375 565.339844 L 711.824219 436.367188 C 719.171875 415.425781 742.140625 404.371094 763.144531 411.691406 Z M 763.144531 411.691406 "/></g></svg>