<svg xmlns="http://www.w3.org/2000/svg" xmlns:xlink="http://www.w3.org/1999/xlink" width="1080" zoomAndPan="magnify" viewBox="0 0 810 809.999993" height="1080" preserveAspectRatio="xMidYMid meet" version="1.2"><defs><clipPath id="b173d25f9c"><path d="M 49 47.304688 L 386 47.304688 L 386 765.804688 L 49 765.804688 Z M 49 47.304688 "/></clipPath><clipPath id="831b3917b2"><path d="M 416 47.304688 L 753 47.304688 L 753 765.804688 L 416 765.804688 Z M 416 47.304688 "/></clipPath></defs><g id="3ed8452f66"><g clip-rule="nonzero" clip-path="url(#b173d25f9c)"><path style=" stroke:none;fill-rule:nonzero;fill:#ffffff;fill-opacity:1;" d="M 385.226562 134.59375 C 385.226562 72.910156 326.441406 47.304688 294.96875 47.304688 C 276.070312 47.304688 238.535156 60.050781 217.988281 87.414062 C 207.902344 100.847656 203.367188 116.136719 204.550781 132.292969 C 185.816406 129.558594 155.382812 128.898438 136.855469 158.660156 C 123.519531 180.085938 122.140625 197.738281 123.578125 209.25 C 104.132812 211.636719 69.453125 221.164062 56.070312 258.253906 C 45.996094 286.117188 47.757812 314.871094 56.300781 337.765625 C 56.3125 337.816406 56.3125 337.867188 56.328125 337.917969 C 58.238281 344.359375 61.65625 351.296875 66.601562 358.054688 C 66.667969 358.152344 66.738281 358.238281 66.800781 358.335938 C 67.15625 358.8125 67.492188 359.292969 67.859375 359.765625 C 69.886719 362.582031 72.007812 365.242188 74.269531 367.617188 C 65.449219 374.789062 60.378906 385.15625 59.199219 404.175781 C 57.863281 425.535156 67.136719 451.304688 83.300781 464.566406 C 72.273438 475.824219 62.5625 492.769531 64.953125 528.394531 C 67.140625 550.34375 79.433594 572.617188 97.035156 586.527344 C 106.292969 593.839844 116.589844 598.28125 127.011719 599.917969 C 127.691406 600.136719 128.402344 600.292969 129.140625 600.367188 C 129.382812 600.390625 129.675781 600.382812 129.921875 600.40625 C 130.222656 600.4375 130.519531 600.53125 130.820312 600.554688 C 132.59375 610.855469 138.292969 622.363281 144.949219 630.996094 C 155.867188 645.144531 169.878906 653.332031 185.105469 654.667969 C 189.574219 672.144531 199.605469 698.359375 229.136719 701.917969 C 231.433594 718.484375 237.152344 732.230469 246.347656 742.90625 C 257.816406 756.222656 274.144531 763.964844 293.558594 765.300781 C 295.511719 765.433594 297.476562 765.503906 299.445312 765.503906 C 322.660156 765.503906 346.632812 756.269531 363.214844 740.699219 C 377.503906 727.265625 385.3125 709.96875 385.191406 692.050781 L 385.191406 308.191406 C 385.191406 308.183594 385.191406 308.179688 385.191406 308.171875 L 385.191406 135.59375 C 385.199219 135.253906 385.226562 134.9375 385.226562 134.59375 Z M 364.496094 283.105469 C 355.9375 278.113281 345.519531 274.394531 334.726562 272.957031 C 305.574219 269.066406 280.761719 282.363281 266.421875 309.792969 C 250.011719 344.359375 262.984375 370.410156 272.179688 382.867188 C 284.109375 399.023438 302.292969 409.78125 316.941406 409.78125 C 318.289062 409.78125 319.605469 409.6875 320.886719 409.503906 C 326.542969 408.675781 330.460938 403.425781 329.640625 397.769531 C 328.816406 392.113281 323.546875 388.160156 317.90625 389.015625 C 312.9375 389.738281 298.902344 384.203125 288.832031 370.570312 C 280.960938 359.90625 273.929688 342.25 284.945312 319.035156 C 297.425781 295.183594 316.488281 291.847656 330.28125 293.273438 C 349.601562 295.25 362.738281 306.140625 364.496094 310.117188 L 364.496094 692.113281 C 364.597656 707.699219 356.152344 718.925781 349.042969 725.605469 C 335.117188 738.695312 314.386719 745.953125 294.980469 744.652344 C 285.375 743.988281 271.863281 740.800781 262.035156 729.394531 C 251.609375 717.292969 247.144531 697.882812 249.078125 673.753906 C 250.480469 662.6875 264.296875 640.734375 282.75 631.5 C 293.339844 626.210938 303.457031 626.226562 312.800781 631.535156 C 317.773438 634.371094 324.09375 632.621094 326.914062 627.652344 C 329.738281 622.6875 328 616.367188 323.03125 613.542969 C 307.523438 604.722656 290.394531 604.535156 273.484375 612.988281 C 273.121094 613.171875 272.785156 613.433594 272.417969 613.625 C 267.957031 609.050781 261.253906 605.921875 252.851562 604.957031 C 238.695312 603.347656 223.085938 608.136719 220.535156 620.4375 C 219.378906 626.035156 222.972656 631.515625 228.574219 632.671875 C 233.476562 633.699219 238.308594 631.035156 240.199219 626.59375 C 242.1875 625.6875 247.273438 624.78125 252.441406 625.832031 C 253.34375 626.015625 254.101562 626.234375 254.75 626.460938 C 240.339844 640.042969 230.199219 658.078125 228.488281 671.617188 C 228.238281 674.707031 228.140625 677.679688 228.0625 680.632812 C 212.480469 676.640625 207.546875 660.816406 203.429688 642.113281 L 201.46875 633.207031 L 192.390625 634.027344 C 179.203125 635.238281 169.464844 627.691406 163.675781 621.167969 C 157.085938 613.738281 153.398438 605.359375 151.824219 599.652344 C 180.949219 595.363281 216.863281 577.246094 226.339844 527.792969 C 229.5625 526.636719 232.800781 525.238281 236.039062 523.277344 C 236.210938 523.171875 236.34375 523.035156 236.507812 522.921875 C 248.347656 516.304688 260.734375 505.585938 269.050781 491.832031 C 278.761719 475.785156 281.324219 458.535156 276.46875 441.953125 C 274.851562 436.457031 269.109375 433.320312 263.621094 434.929688 C 258.136719 436.535156 254.996094 442.289062 256.601562 447.773438 C 259.828125 458.792969 258.058594 470.011719 251.335938 481.117188 C 244.617188 492.230469 233.863281 501.21875 224.40625 506.015625 C 224.160156 506.152344 223.917969 506.25 223.671875 506.378906 C 220.628906 507.863281 217.726562 508.921875 215.167969 509.4375 C 193.035156 513.640625 170.886719 492.464844 170.628906 492.222656 C 166.554688 488.238281 160.019531 488.292969 156.007812 492.363281 C 152.003906 496.4375 152.0625 502.996094 156.132812 507 C 157.335938 508.183594 178.277344 528.375 204.410156 530.664062 C 195.945312 561.539062 174.019531 573.242188 156.324219 577.546875 L 139.835938 579.773438 C 138.820312 579.90625 137.839844 579.917969 136.847656 579.957031 C 134.503906 579.976562 132.792969 579.886719 131.875 579.820312 C 131.777344 579.808594 131.671875 579.808594 131.574219 579.796875 C 131.417969 579.785156 131.273438 579.773438 131.199219 579.765625 C 131.171875 579.761719 131.148438 579.765625 131.121094 579.765625 C 122.316406 578.636719 114.941406 574.289062 109.871094 570.28125 C 96.722656 559.890625 87.175781 542.648438 85.582031 526.675781 C 83.183594 490.941406 94.648438 481.40625 106.789062 471.3125 L 123.832031 457.09375 L 103.628906 452.363281 C 90.597656 449.304688 78.601562 425.636719 79.859375 405.457031 C 80.898438 388.703125 84.679688 384.285156 91.871094 380.621094 C 102.582031 386.9375 115.6875 391.8125 131.484375 393.984375 C 135.128906 394.488281 138.675781 394.71875 142.128906 394.71875 C 154.027344 394.71875 164.695312 391.90625 174.023438 387.835938 C 178.761719 390.65625 188.570312 399.007812 187.988281 410.371094 C 187.109375 427.550781 175.066406 440.582031 174.765625 440.898438 C 170.828125 445.015625 170.957031 451.546875 175.0625 455.507812 C 177.070312 457.441406 179.660156 458.40625 182.246094 458.40625 C 184.957031 458.40625 187.667969 457.347656 189.695312 455.238281 C 190.417969 454.488281 207.371094 436.632812 208.660156 411.433594 C 209.40625 396.941406 202.011719 384.824219 193.234375 376.660156 C 206.597656 366.761719 214.375 356.324219 215.019531 355.433594 C 218.378906 350.808594 217.351562 344.335938 212.726562 340.976562 C 208.097656 337.609375 201.625 338.644531 198.265625 343.269531 C 198.101562 343.5 186.949219 358.488281 168.742188 367.441406 C 168.738281 367.441406 168.734375 367.441406 168.734375 367.441406 C 168.730469 367.445312 168.726562 367.449219 168.722656 367.449219 C 159.050781 372.203125 147.414062 375.28125 134.300781 373.472656 C 123.777344 372.027344 114.957031 369.140625 107.542969 365.492188 L 100.269531 361.449219 C 93.105469 356.839844 87.683594 351.519531 83.753906 346.332031 C 71.429688 328.027344 64.214844 296.589844 75.535156 265.28125 C 86.867188 233.867188 120.832031 229.75 132.433594 229.253906 L 163.058594 260.871094 C 156.425781 264.710938 148.503906 267.042969 139.070312 267.476562 C 133.359375 267.738281 128.945312 272.582031 129.207031 278.292969 C 129.460938 283.839844 134.042969 288.167969 139.539062 288.167969 C 139.699219 288.167969 139.859375 288.164062 140.019531 288.15625 C 160.246094 287.226562 176.386719 280.203125 188 267.273438 C 208.25 244.730469 206.519531 212.554688 206.4375 211.195312 C 206.085938 205.488281 201.203125 201.183594 195.472656 201.5 C 189.761719 201.851562 185.425781 206.761719 185.773438 212.464844 C 185.785156 212.675781 186.570312 231.015625 177.738281 246.269531 L 145.527344 213.015625 C 143.988281 209.003906 139.671875 193.292969 154.421875 169.589844 C 167.636719 148.363281 189.746094 150.46875 209.433594 154.109375 C 210.679688 154.339844 211.832031 154.546875 212.898438 154.730469 L 238.160156 176.4375 C 240.117188 178.113281 242.515625 178.9375 244.902344 178.9375 C 247.816406 178.9375 250.710938 177.714844 252.757812 175.332031 C 256.484375 170.996094 255.988281 164.460938 251.652344 160.734375 L 226.605469 139.214844 C 223.164062 124.761719 225.777344 111.519531 234.542969 99.84375 C 250.464844 78.648438 281.863281 68.007812 294.96875 68.007812 C 313.515625 68.007812 364.375 83.753906 364.515625 134.398438 C 364.511719 134.457031 364.496094 134.511719 364.496094 134.574219 L 364.496094 135.335938 C 364.164062 180.777344 334.65625 191.523438 331.070312 192.625 C 326.460938 192.367188 322.5 195.292969 321.03125 199.699219 C 319.222656 205.121094 322.152344 210.984375 327.574219 212.792969 C 336.84375 215.867188 352.066406 205.222656 353.769531 204 C 356.945312 201.710938 360.703125 198.523438 364.496094 194.339844 Z M 364.496094 283.105469 "/></g><g clip-rule="nonzero" clip-path="url(#831b3917b2)"><path style=" stroke:none;fill-rule:nonzero;fill:#ffffff;fill-opacity:1;" d="M 745.054688 404.355469 L 745 403.644531 C 742.90625 385.21875 735.910156 374.570312 727.457031 367.695312 C 749.160156 344.988281 761.03125 300.558594 745.75 258.253906 C 732.359375 221.160156 697.679688 211.636719 678.230469 209.25 C 679.675781 197.738281 678.292969 180.085938 664.957031 158.660156 C 646.5 129 616.1875 129.554688 597.457031 132.261719 C 599.167969 114.644531 594.6875 98.300781 584.199219 84.332031 C 565.09375 58.890625 530.707031 47.304688 506.84375 47.304688 C 475.375 47.304688 416.585938 72.910156 416.585938 134.59375 C 416.585938 134.902344 416.609375 135.179688 416.613281 135.484375 L 416.613281 691.980469 C 416.5 709.972656 424.304688 727.273438 438.597656 740.695312 C 455.179688 756.273438 479.15625 765.5 502.359375 765.5 C 504.332031 765.5 506.292969 765.433594 508.246094 765.296875 C 543.75 762.867188 567.285156 739.382812 572.640625 701.921875 C 602.066406 698.394531 612.152344 672.367188 616.648438 654.890625 C 631.660156 654.304688 644.96875 648.71875 654.761719 638.738281 C 664.652344 628.65625 670.488281 614.429688 671.199219 599.324219 C 710.257812 593.695312 733.585938 570.757812 737.257812 533.9375 C 740.023438 505.976562 733.335938 482.65625 717.367188 464.414062 C 732.8125 453.617188 746.484375 436.425781 745.054688 404.355469 Z M 455.878906 705.820312 C 450.609375 705.820312 446.332031 701.542969 446.332031 696.269531 C 446.332031 691 450.609375 686.722656 455.878906 686.722656 C 461.152344 686.722656 465.429688 691 465.429688 696.269531 C 465.429688 701.542969 461.148438 705.820312 455.878906 705.820312 Z M 451.34375 714.265625 L 451.34375 724.179688 C 446.621094 719.433594 441.664062 712.769531 439.097656 704.191406 C 441.453125 709.15625 445.917969 712.894531 451.34375 714.265625 Z M 695.753906 453.257812 L 681.980469 460.433594 L 693.90625 470.386719 C 705.34375 479.921875 720.140625 496.675781 716.65625 531.890625 C 713.679688 561.71875 695.113281 577.359375 659.898438 579.695312 L 649.121094 580.417969 L 650.292969 591.152344 C 651.6875 603.875 647.832031 616.242188 639.984375 624.242188 C 634.167969 630.167969 626.398438 633.515625 617.195312 634.113281 L 613.9375 526.117188 L 643.984375 498.828125 C 647.820312 501.433594 652.445312 502.964844 657.421875 502.964844 C 670.636719 502.964844 681.386719 492.214844 681.386719 479 C 681.386719 465.785156 670.636719 455.035156 657.421875 455.035156 C 644.207031 455.035156 633.457031 465.785156 633.457031 479 C 633.457031 483.964844 634.976562 488.578125 637.570312 492.40625 L 604.746094 522.210938 L 608.125 633.910156 L 600.339844 633.203125 L 598.378906 642.113281 C 593.828125 662.785156 588.25 679.9375 568.46875 681.503906 L 568.46875 588.054688 L 555.355469 575.75 L 555.355469 528.289062 L 584.15625 499.886719 C 587.179688 502.007812 590.84375 503.273438 594.804688 503.273438 C 605.066406 503.273438 613.425781 494.917969 613.425781 484.65625 C 613.425781 474.390625 605.070312 466.035156 594.804688 466.035156 C 584.539062 466.035156 576.183594 474.390625 576.183594 484.65625 C 576.183594 487.664062 576.972656 490.46875 578.246094 492.988281 L 546.285156 524.503906 L 546.285156 567.242188 L 529.128906 551.148438 L 529.128906 486.347656 C 537.199219 484.308594 543.214844 477.046875 543.214844 468.355469 C 543.214844 458.089844 534.859375 449.734375 524.59375 449.734375 C 514.332031 449.734375 505.972656 458.089844 505.972656 468.355469 C 505.972656 477.042969 511.992188 484.308594 520.058594 486.347656 L 520.058594 555.070312 L 559.398438 591.976562 L 559.398438 682.304688 C 558.453125 682.6875 557.585938 683.222656 556.800781 683.871094 C 556.648438 683.996094 556.480469 684.09375 556.335938 684.226562 C 556.296875 684.261719 556.269531 684.304688 556.230469 684.339844 C 554.808594 685.667969 553.761719 687.394531 553.269531 689.367188 C 553.214844 689.582031 553.203125 689.8125 553.160156 690.03125 C 553.082031 690.460938 552.980469 690.886719 552.957031 691.332031 C 551.578125 714.445312 542.855469 730.652344 527.929688 738.789062 L 509.707031 721.96875 L 509.707031 677.359375 C 517.777344 675.320312 523.792969 668.054688 523.792969 659.363281 C 523.792969 649.101562 515.4375 640.742188 505.171875 640.742188 C 494.90625 640.742188 486.550781 649.097656 486.550781 659.363281 C 486.550781 668.054688 492.570312 675.316406 500.636719 677.359375 L 500.636719 725.941406 L 518.65625 742.566406 C 514.96875 743.628906 511.046875 744.359375 506.820312 744.652344 C 490.714844 745.726562 473.714844 740.828125 460.414062 731.648438 L 460.414062 714.265625 C 468.480469 712.226562 474.496094 704.964844 474.496094 696.269531 C 474.496094 686.007812 466.140625 677.652344 455.875 677.652344 C 446.269531 677.652344 438.425781 685 437.453125 694.355469 C 437.414062 693.578125 437.304688 692.84375 437.3125 692.046875 L 437.3125 603.597656 L 445.558594 612.535156 L 496.238281 612.535156 C 498.367188 620.949219 505.941406 627.222656 515.007812 627.222656 C 525.722656 627.222656 534.4375 618.511719 534.4375 607.804688 C 534.4375 597.09375 525.722656 588.382812 515.007812 588.382812 C 505.941406 588.382812 498.367188 594.65625 496.238281 603.070312 L 449.695312 603.070312 L 437.3125 589.652344 L 437.3125 532.363281 L 454.582031 532.363281 C 456.699219 541.679688 465.015625 548.675781 474.96875 548.675781 C 486.511719 548.675781 495.902344 539.28125 495.902344 527.738281 C 495.902344 516.191406 486.511719 506.796875 474.96875 506.796875 C 465.015625 506.796875 456.699219 513.792969 454.582031 523.117188 L 437.3125 523.117188 L 437.3125 387.324219 C 447.847656 387.253906 457.855469 387.238281 468.351562 387.238281 L 468.351562 433.003906 C 462.429688 434.347656 457.992188 439.621094 457.992188 445.945312 C 457.992188 453.269531 463.949219 459.226562 471.28125 459.226562 C 478.605469 459.226562 484.5625 453.269531 484.5625 445.945312 C 484.5625 439.625 480.125 434.347656 474.214844 433.003906 L 474.214844 389.234375 C 484.882812 399.96875 495.265625 410.703125 505.691406 421.507812 L 509.726562 425.6875 L 513.945312 421.617188 L 509.917969 417.433594 C 504.070312 411.375 498.238281 405.339844 492.367188 399.3125 L 538.109375 399.3125 C 539.453125 405.226562 544.726562 409.664062 551.046875 409.664062 C 558.378906 409.664062 564.339844 403.707031 564.339844 396.378906 C 564.339844 389.050781 558.382812 383.085938 551.046875 383.085938 C 544.726562 383.085938 539.453125 387.523438 538.109375 393.441406 L 486.585938 393.441406 C 482.917969 389.703125 479.269531 385.960938 475.535156 382.226562 L 474.671875 381.367188 L 473.460938 381.367188 C 461.011719 381.367188 449.558594 381.375 437.3125 381.453125 L 437.3125 367.050781 C 471.0625 366.773438 504.890625 366.871094 538.101562 367.355469 C 539.429688 373.289062 544.71875 377.75 551.050781 377.75 C 558.382812 377.75 564.339844 371.785156 564.339844 364.457031 C 564.339844 357.128906 558.382812 351.167969 551.050781 351.167969 C 544.742188 351.167969 539.476562 355.589844 538.125 361.484375 C 504.902344 361.003906 471.058594 360.917969 437.3125 361.183594 L 437.3125 335.851562 L 445.742188 344.980469 L 477.199219 344.980469 C 478.515625 350.203125 483.210938 354.101562 488.839844 354.101562 C 495.484375 354.101562 500.886719 348.691406 500.886719 342.046875 C 500.886719 335.402344 495.480469 329.996094 488.839844 329.996094 C 483.210938 329.996094 478.515625 333.890625 477.199219 339.113281 L 448.316406 339.113281 L 437.3125 327.195312 L 437.3125 294.3125 L 451.871094 287.441406 L 509.15625 308.726562 L 585.613281 272.65625 C 587.574219 275.171875 590.179688 277.113281 593.257812 278.21875 C 595.136719 278.894531 597.085938 279.230469 599.027344 279.230469 C 601.503906 279.230469 603.976562 278.683594 606.285156 277.59375 C 614.78125 273.585938 618.441406 263.40625 614.429688 254.90625 C 612.488281 250.789062 609.058594 247.671875 604.773438 246.132812 C 600.496094 244.589844 595.859375 244.8125 591.746094 246.757812 C 587.625 248.699219 584.507812 252.128906 582.972656 256.414062 C 581.867188 259.492188 581.707031 262.738281 582.402344 265.851562 L 508.808594 300.566406 L 461.398438 282.949219 L 506.125 261.851562 L 518.960938 225.515625 L 576.929688 198.175781 C 580.195312 202.328125 585.105469 204.777344 590.277344 204.777344 C 592.710938 204.777344 595.179688 204.253906 597.515625 203.152344 C 606.015625 199.140625 609.667969 188.960938 605.664062 180.460938 C 601.65625 171.960938 591.464844 168.316406 582.976562 172.320312 C 575.648438 175.773438 571.953125 183.816406 573.628906 191.414062 L 512.914062 220.054688 L 500.074219 256.386719 L 437.316406 285.992188 L 437.316406 194.339844 C 441.105469 198.523438 444.863281 201.707031 448.039062 203.996094 C 449.742188 205.21875 464.898438 215.898438 474.238281 212.792969 C 479.664062 210.988281 482.585938 205.125 480.78125 199.703125 C 479.339844 195.363281 475.292969 192.621094 470.960938 192.621094 C 470.886719 192.621094 470.816406 192.621094 470.746094 192.625 C 467.152344 191.519531 437.613281 180.765625 437.316406 135.253906 L 437.316406 134.574219 C 437.316406 134.519531 437.300781 134.46875 437.300781 134.414062 C 437.414062 88.460938 479.210938 71.28125 500.835938 68.476562 L 494.179688 74.625 L 494.179688 124.25 C 486.011719 125.988281 479.859375 133.246094 479.859375 141.921875 C 479.859375 151.886719 487.972656 160 497.941406 160 C 507.90625 160 516.019531 151.886719 516.019531 141.921875 C 516.019531 133.246094 509.867188 125.988281 501.699219 124.25 L 501.699219 77.921875 L 512.101562 68.324219 C 530.972656 69.875 554.6875 79.511719 567.644531 96.765625 C 576.734375 108.859375 579.210938 123.1875 575.195312 139.34375 L 563.183594 151.015625 C 559.089844 155.003906 558.992188 161.554688 562.980469 165.652344 C 565.011719 167.742188 567.707031 168.789062 570.402344 168.789062 C 573.003906 168.789062 575.605469 167.816406 577.617188 165.863281 L 589.097656 154.703125 C 590.117188 154.53125 591.191406 154.335938 592.371094 154.117188 C 612.066406 150.480469 634.167969 148.375 647.382812 169.597656 C 661.714844 192.621094 658.054688 208.0625 656.484375 212.5 L 645.835938 221.5 C 641.46875 225.1875 640.914062 231.722656 644.609375 236.089844 C 646.65625 238.511719 649.574219 239.757812 652.519531 239.757812 C 654.878906 239.757812 657.25 238.957031 659.191406 237.316406 L 668.769531 229.222656 C 679.558594 229.582031 713.230469 233.257812 725.457031 263.425781 L 635.777344 263.425781 L 585 315.71875 L 585 368.597656 C 576.09375 370.617188 569.40625 378.566406 569.40625 388.078125 C 569.40625 399.109375 578.390625 408.089844 589.421875 408.089844 C 600.453125 408.089844 609.433594 399.109375 609.433594 388.078125 C 609.433594 378.566406 602.75 370.621094 593.839844 368.597656 L 593.839844 319.300781 L 639.511719 272.257812 L 728.460938 272.257812 C 734.8125 295.238281 731.6875 317.710938 724.421875 334.496094 L 652.375 334.496094 L 622.960938 368.449219 L 622.960938 400.929688 C 614.054688 402.953125 607.367188 410.898438 607.367188 420.40625 C 607.367188 431.4375 616.351562 440.421875 627.382812 440.421875 C 638.414062 440.421875 647.394531 431.4375 647.394531 420.40625 C 647.394531 410.898438 640.710938 402.953125 631.800781 400.929688 L 631.800781 371.742188 L 656.40625 343.328125 L 719.914062 343.328125 C 715.878906 350.070312 711.183594 355.3125 706.320312 358.585938 L 676.859375 358.585938 C 671.144531 358.585938 666.507812 363.21875 666.507812 368.933594 C 666.507812 374.652344 671.144531 379.285156 676.859375 379.285156 L 707.019531 379.285156 C 716.996094 384.082031 722.542969 389.953125 724.402344 405.636719 C 725.472656 432.289062 714.230469 443.628906 695.753906 453.257812 Z M 642.53125 479 C 642.53125 470.785156 649.207031 464.109375 657.421875 464.109375 C 665.636719 464.109375 672.316406 470.785156 672.316406 479 C 672.316406 487.214844 665.636719 493.894531 657.421875 493.894531 C 649.207031 493.894531 642.53125 487.214844 642.53125 479 Z M 585.257812 484.652344 C 585.257812 479.382812 589.535156 475.105469 594.808594 475.105469 C 600.078125 475.105469 604.355469 479.382812 604.355469 484.652344 C 604.355469 489.925781 600.078125 494.203125 594.808594 494.203125 C 589.535156 494.203125 585.257812 489.925781 585.257812 484.652344 Z M 524.597656 477.902344 C 519.324219 477.902344 515.046875 473.625 515.046875 468.355469 C 515.046875 463.082031 519.324219 458.804688 524.597656 458.804688 C 529.867188 458.804688 534.144531 463.082031 534.144531 468.355469 C 534.144531 473.625 529.863281 477.902344 524.597656 477.902344 Z M 505.175781 668.914062 C 499.90625 668.914062 495.625 664.632812 495.625 659.363281 C 495.625 654.09375 499.90625 649.8125 505.175781 649.8125 C 510.445312 649.8125 514.722656 654.09375 514.722656 659.363281 C 514.722656 664.632812 510.445312 668.914062 505.175781 668.914062 Z M 505.050781 607.804688 C 505.050781 602.3125 509.519531 597.84375 515.011719 597.84375 C 520.511719 597.84375 524.980469 602.3125 524.980469 607.804688 C 524.980469 613.296875 520.511719 617.765625 515.011719 617.765625 C 509.519531 617.765625 505.050781 613.296875 505.050781 607.804688 Z M 463.28125 527.742188 C 463.28125 521.292969 468.523438 516.042969 474.972656 516.042969 C 481.421875 516.042969 486.664062 521.292969 486.664062 527.742188 C 486.664062 534.191406 481.421875 539.433594 474.972656 539.433594 C 468.523438 539.433594 463.28125 534.191406 463.28125 527.742188 Z M 471.285156 438.519531 C 475.375 438.519531 478.703125 441.855469 478.703125 445.949219 C 478.703125 450.039062 475.375 453.367188 471.285156 453.367188 C 467.195312 453.367188 463.859375 450.035156 463.859375 445.949219 C 463.859375 441.859375 467.195312 438.519531 471.285156 438.519531 Z M 543.625 396.378906 C 543.625 392.285156 546.960938 388.957031 551.050781 388.957031 C 555.140625 388.957031 558.476562 392.285156 558.476562 396.378906 C 558.476562 400.472656 555.140625 403.800781 551.050781 403.800781 C 546.960938 403.800781 543.625 400.46875 543.625 396.378906 Z M 543.625 364.457031 C 543.625 360.367188 546.960938 357.039062 551.050781 357.039062 C 555.140625 357.039062 558.476562 360.367188 558.476562 364.457031 C 558.476562 368.550781 555.140625 371.882812 551.050781 371.882812 C 546.960938 371.882812 543.625 368.550781 543.625 364.457031 Z M 482.660156 342.050781 C 482.660156 338.640625 485.4375 335.867188 488.839844 335.867188 C 492.25 335.867188 495.027344 338.640625 495.027344 342.050781 C 495.027344 345.457031 492.25 348.230469 488.839844 348.230469 C 485.4375 348.230469 482.660156 345.460938 482.660156 342.050781 Z M 590.054688 258.960938 C 590.914062 256.566406 592.65625 254.652344 594.957031 253.566406 C 596.25 252.957031 597.625 252.652344 599.007812 252.652344 C 600.089844 252.652344 601.183594 252.835938 602.234375 253.21875 C 604.625 254.074219 606.539062 255.816406 607.625 258.113281 C 609.863281 262.859375 607.820312 268.542969 603.074219 270.785156 C 600.777344 271.859375 598.203125 272.003906 595.796875 271.132812 C 593.40625 270.273438 591.492188 268.53125 590.40625 266.230469 C 589.320312 263.9375 589.195312 261.351562 590.054688 258.960938 Z M 586.179688 179.125 C 587.488281 178.507812 588.871094 178.21875 590.230469 178.21875 C 593.800781 178.21875 597.234375 180.234375 598.855469 183.667969 C 601.09375 188.417969 599.050781 194.105469 594.308594 196.347656 C 589.558594 198.578125 583.871094 196.542969 581.632812 191.796875 C 579.394531 187.050781 581.4375 181.367188 586.179688 179.125 Z M 497.9375 131.375 C 503.753906 131.375 508.488281 136.109375 508.488281 141.921875 C 508.488281 147.738281 503.753906 152.472656 497.9375 152.472656 C 492.121094 152.472656 487.382812 147.738281 487.382812 141.921875 C 487.382812 136.109375 492.121094 131.375 497.9375 131.375 Z M 589.414062 376.902344 C 595.574219 376.902344 600.589844 381.914062 600.589844 388.078125 C 600.589844 394.238281 595.574219 399.25 589.414062 399.25 C 583.257812 399.25 578.242188 394.238281 578.242188 388.078125 C 578.242188 381.914062 583.257812 376.902344 589.414062 376.902344 Z M 627.375 409.234375 C 633.535156 409.234375 638.546875 414.246094 638.546875 420.40625 C 638.546875 426.566406 633.535156 431.578125 627.375 431.578125 C 621.214844 431.578125 616.203125 426.566406 616.203125 420.40625 C 616.203125 414.246094 621.214844 409.234375 627.375 409.234375 Z M 627.375 409.234375 "/></g></g></svg>