<svg xmlns="http://www.w3.org/2000/svg" xmlns:xlink="http://www.w3.org/1999/xlink" width="1080" zoomAndPan="magnify" viewBox="0 0 810 809.999993" height="1080" preserveAspectRatio="xMidYMid meet" version="1.2"><defs><clipPath id="3157ed2846"><path d="M 12.148438 470 L 436 470 L 436 778 L 12.148438 778 Z M 12.148438 470 "/></clipPath></defs><g id="fba6e0f015"><path style=" stroke:none;fill-rule:nonzero;fill:#211d1d;fill-opacity:1;" d="M 548.113281 238.96875 C 590.417969 238.96875 624.707031 204.679688 624.707031 162.390625 C 624.707031 120.105469 590.417969 85.832031 548.113281 85.832031 C 505.796875 85.832031 471.515625 120.105469 471.515625 162.390625 C 471.515625 204.679688 505.796875 238.96875 548.113281 238.96875 "/><path style=" stroke:none;fill-rule:nonzero;fill:#211d1d;fill-opacity:1;" d="M 527.738281 324.089844 L 548.113281 378.238281 L 568.480469 324.089844 L 551.261719 258.226562 L 544.957031 258.226562 L 527.738281 324.089844 "/><path style=" stroke:none;fill-rule:nonzero;fill:#211d1d;fill-opacity:1;" d="M 683.921875 341.601562 C 683.921875 293.984375 658.765625 252.230469 621.027344 228.882812 C 617.125 233.148438 612.835938 237.0625 608.253906 240.601562 L 548.113281 400.375 L 487.972656 240.605469 C 483.382812 237.0625 479.09375 233.15625 475.191406 228.882812 C 437.453125 252.230469 412.292969 293.984375 412.292969 341.601562 L 412.292969 409.886719 L 683.921875 409.886719 L 683.921875 341.601562 "/><g clip-rule="nonzero" clip-path="url(#3157ed2846)"><path style=" stroke:none;fill-rule:nonzero;fill:#211d1d;fill-opacity:1;" d="M 324.234375 470.433594 C 302.738281 502.949219 265.734375 524.476562 223.765625 524.476562 C 181.789062 524.476562 144.847656 502.949219 123.304688 470.433594 C 57.316406 510.492188 12.480469 588.910156 12.480469 679.011719 C 12.480469 809.953125 435.097656 809.953125 435.097656 679.011719 C 435.097656 588.910156 390.277344 510.492188 324.234375 470.433594 "/></g><path style=" stroke:none;fill-rule:nonzero;fill:#211d1d;fill-opacity:1;" d="M 223.765625 500.0625 C 276.789062 500.0625 319.773438 457.085938 319.773438 404.121094 C 319.773438 351.148438 276.789062 308.167969 223.765625 308.167969 C 170.769531 308.167969 127.789062 351.148438 127.789062 404.121094 C 127.789062 457.085938 170.769531 500.0625 223.765625 500.0625 "/><path style=" stroke:none;fill-rule:nonzero;fill:#211d1d;fill-opacity:1;" d="M 730.140625 424.097656 L 336.679688 424.097656 C 335.113281 432.460938 332.664062 440.507812 329.394531 448.140625 C 368.320312 472.734375 400.738281 508.695312 423.089844 552.039062 L 797.820312 552.039062 L 730.140625 424.097656 "/><path style=" stroke:none;fill-rule:nonzero;fill:#211d1d;fill-opacity:1;" d="M 151.453125 90.5 L 151.453125 18.753906 L 378.65625 18.753906 L 378.65625 243.859375 L 320.660156 174.828125 L 151.453125 174.828125 Z M 397.457031 295.457031 L 397.457031 -0.03125 L 132.65625 -0.03125 L 132.65625 193.621094 L 311.898438 193.621094 L 397.457031 295.457031 "/><path style=" stroke:none;fill-rule:nonzero;fill:#211d1d;fill-opacity:1;" d="M 331.285156 66.242188 L 189.832031 66.242188 L 189.832031 85.035156 L 331.285156 85.035156 L 331.285156 66.242188 "/><path style=" stroke:none;fill-rule:nonzero;fill:#211d1d;fill-opacity:1;" d="M 331.285156 112.039062 L 189.832031 112.039062 L 189.832031 130.84375 L 331.285156 130.84375 L 331.285156 112.039062 "/></g></svg>