<svg xmlns="http://www.w3.org/2000/svg" xmlns:xlink="http://www.w3.org/1999/xlink" width="1080" zoomAndPan="magnify" viewBox="0 0 810 809.999993" height="1080" preserveAspectRatio="xMidYMid meet" version="1.2"><defs><clipPath id="e0b5b482ae"><path d="M 52 87 L 757.75 87 L 757.75 755.457031 L 52 755.457031 Z M 52 87 "/></clipPath></defs><g id="d39e4eb221"><g clip-rule="nonzero" clip-path="url(#e0b5b482ae)"><path style=" stroke:none;fill-rule:evenodd;fill:#ffffff;fill-opacity:1;" d="M 462.722656 507.347656 C 462.925781 475.789062 473.039062 446.582031 490.101562 422.679688 L 501.808594 434.390625 C 508.683594 441.265625 519.078125 443.199219 527.96875 439.265625 L 537.601562 434.996094 C 542.296875 437.285156 547.128906 439.289062 552.070312 440.996094 C 552.070312 440.996094 555.839844 450.789062 555.839844 450.789062 C 559.335938 459.871094 568.0625 465.863281 577.792969 465.863281 L 611.507812 465.863281 C 621.238281 465.863281 629.964844 459.871094 633.460938 450.789062 L 637.226562 440.996094 C 642.167969 439.292969 646.996094 437.292969 651.691406 435.007812 C 651.691406 435.007812 661.296875 439.265625 661.296875 439.265625 C 670.1875 443.199219 680.582031 441.265625 687.457031 434.390625 L 711.292969 410.554688 C 712.964844 408.878906 714.347656 406.996094 715.421875 404.976562 C 741.554688 431.589844 757.664062 468.074219 757.664062 508.316406 C 757.664062 544.6875 744.511719 577.964844 722.757812 603.652344 C 715.675781 611.972656 711.796875 620.964844 710.617188 631.816406 C 706.625 668.070312 716.347656 710.457031 738.441406 755.367188 L 569.917969 755.367188 C 563.171875 717.59375 540.40625 703.148438 501.621094 711.917969 C 475.707031 716.414062 463.058594 712.816406 463.621094 701.066406 C 463.453125 682.855469 460.359375 676.222656 455.636719 672.734375 C 445.238281 664.699219 456.820312 654.414062 468.734375 647.949219 C 458.730469 647.160156 445.859375 639.121094 448.667969 632.65625 C 450.738281 625.515625 451.367188 620.382812 450.734375 616.578125 C 451.050781 616.507812 451.367188 616.4375 451.683594 616.367188 C 509.996094 603.085938 546.710938 554.335938 547.628906 498.636719 C 547.789062 489.007812 542.066406 480.253906 533.179688 476.542969 C 524.292969 472.832031 514.042969 474.910156 507.304688 481.789062 C 492.472656 496.9375 477.394531 504.5625 462.722656 507.347656 Z M 319.5625 422.679688 C 327.191406 433.367188 333.429688 445.109375 338.015625 457.652344 L 273.105469 464.777344 C 265.921875 465.566406 259.5 469.613281 255.6875 475.753906 C 251.875 481.894531 251.097656 489.445312 253.578125 496.234375 L 293.835938 606.410156 C 296.972656 614.992188 304.792969 620.980469 313.894531 621.769531 C 322.996094 622.5625 331.734375 618.011719 336.300781 610.097656 L 341.472656 601.140625 C 348.679688 604.472656 355.769531 607.320312 362.726562 609.710938 C 358.203125 613.511719 357.285156 619.863281 360.996094 632.65625 C 363.804688 639.121094 350.933594 647.160156 340.929688 647.949219 C 352.84375 654.414062 364.421875 664.699219 354.023438 672.734375 C 349.304688 676.222656 346.210938 682.855469 346.042969 701.066406 C 346.605469 712.816406 333.957031 716.414062 308.042969 711.917969 C 269.257812 703.148438 246.492188 717.59375 239.746094 755.367188 L 71.222656 755.367188 C 93.3125 710.457031 103.039062 668.070312 99.046875 631.816406 C 97.867188 620.964844 93.988281 611.972656 86.90625 603.652344 C 65.152344 577.964844 52 544.6875 52 508.316406 C 52 468.074219 68.109375 431.589844 94.242188 404.976562 C 95.316406 406.996094 96.695312 408.878906 98.371094 410.554688 L 122.207031 434.390625 C 129.082031 441.265625 139.476562 443.199219 148.367188 439.265625 L 158 434.996094 C 162.695312 437.285156 167.527344 439.289062 172.46875 440.996094 C 172.46875 440.996094 176.238281 450.789062 176.238281 450.789062 C 179.734375 459.871094 188.457031 465.863281 198.1875 465.863281 L 231.90625 465.863281 C 241.636719 465.863281 250.363281 459.871094 253.859375 450.789062 L 257.628906 440.996094 C 262.5625 439.292969 267.394531 437.292969 272.089844 435.007812 C 272.085938 435.007812 281.695312 439.265625 281.695312 439.265625 C 290.585938 443.199219 300.980469 441.265625 307.855469 434.390625 Z M 239.851562 213.796875 C 250.851562 216.414062 261.34375 220.757812 270.984375 226.699219 L 291.222656 217.703125 L 315.058594 241.539062 L 306.09375 261.773438 C 312.035156 271.417969 316.382812 281.910156 318.996094 292.945312 L 339.640625 300.886719 L 339.640625 334.605469 L 318.996094 342.550781 C 316.382812 353.550781 312 364.042969 306.09375 373.683594 L 315.058594 393.921875 L 291.222656 417.757812 L 270.984375 408.792969 C 261.378906 414.734375 250.851562 419.082031 239.851562 421.695312 L 231.90625 442.339844 L 198.1875 442.339844 L 190.246094 421.695312 C 179.210938 419.082031 168.71875 414.699219 159.074219 408.792969 L 138.839844 417.757812 L 115.003906 393.921875 L 124 373.683594 C 118.058594 364.078125 113.714844 353.550781 111.066406 342.550781 L 90.421875 334.605469 L 90.421875 300.886719 L 111.066406 292.945312 C 113.714844 281.910156 118.058594 271.417969 124 261.773438 L 115.003906 241.539062 L 138.839844 217.703125 L 159.074219 226.699219 C 168.71875 220.757812 179.210938 216.414062 190.210938 213.796875 L 198.1875 193.121094 L 231.90625 193.121094 Z M 215.03125 258.921875 C 182.535156 258.921875 156.222656 285.234375 156.222656 317.730469 C 156.222656 350.222656 182.535156 376.570312 215.03125 376.570312 C 247.523438 376.570312 273.871094 350.222656 273.871094 317.730469 C 273.871094 285.234375 247.523438 258.921875 215.03125 258.921875 Z M 619.453125 213.796875 C 630.453125 216.414062 640.945312 220.757812 650.589844 226.699219 L 670.824219 217.703125 L 694.660156 241.539062 L 685.695312 261.773438 C 691.636719 271.417969 695.984375 281.910156 698.597656 292.945312 L 719.242188 300.886719 L 719.242188 334.605469 L 698.597656 342.550781 C 695.984375 353.550781 691.605469 364.042969 685.695312 373.683594 L 694.660156 393.921875 L 670.824219 417.757812 L 650.589844 408.792969 C 640.980469 414.734375 630.453125 419.082031 619.453125 421.695312 L 611.507812 442.339844 L 577.792969 442.339844 L 569.847656 421.695312 C 558.8125 419.082031 548.320312 414.699219 538.675781 408.792969 L 518.441406 417.757812 L 494.605469 393.921875 L 503.601562 373.683594 C 497.664062 364.078125 493.316406 353.550781 490.667969 342.550781 L 470.023438 334.605469 L 470.023438 300.886719 L 490.667969 292.945312 C 493.316406 281.910156 497.664062 271.417969 503.601562 261.773438 L 494.605469 241.539062 L 518.441406 217.703125 L 538.675781 226.699219 C 548.320312 220.757812 558.8125 216.414062 569.8125 213.796875 L 577.792969 193.121094 L 611.507812 193.121094 Z M 594.632812 258.921875 C 562.140625 258.921875 535.824219 285.234375 535.824219 317.730469 C 535.824219 350.222656 562.140625 376.570312 594.632812 376.570312 C 627.125 376.570312 653.476562 350.222656 653.476562 317.730469 C 653.476562 285.234375 627.125 258.921875 594.632812 258.921875 Z M 427.832031 178.28125 C 391.363281 157.226562 335.542969 130.308594 281.257812 177.957031 C 279.902344 179.148438 277.949219 179.382812 276.347656 178.546875 C 274.746094 177.710938 273.820312 175.976562 274.023438 174.179688 C 282.914062 104.734375 361.832031 54.359375 464.992188 113.921875 L 475.105469 96.398438 C 476.25 94.417969 478.433594 93.28125 480.707031 93.480469 C 482.984375 93.675781 484.941406 95.175781 485.722656 97.320312 L 518.441406 186.867188 C 519.21875 188.988281 518.976562 191.347656 517.785156 193.265625 C 516.59375 195.183594 514.585938 196.449219 512.339844 196.695312 L 422.296875 206.582031 C 420.097656 206.824219 417.945312 205.808594 416.734375 203.953125 C 415.519531 202.09375 415.457031 199.714844 416.566406 197.796875 Z M 369.5 505.550781 C 405.96875 526.605469 461.789062 553.523438 516.074219 505.871094 C 517.433594 504.683594 519.382812 504.449219 520.984375 505.285156 C 522.585938 506.121094 523.511719 507.855469 523.308594 509.652344 C 514.421875 579.097656 435.5 629.472656 332.34375 569.910156 L 322.226562 587.433594 C 321.085938 589.410156 318.898438 590.550781 316.625 590.351562 C 314.347656 590.152344 312.394531 588.65625 311.609375 586.511719 L 278.890625 496.964844 C 278.113281 494.84375 278.355469 492.484375 279.550781 490.566406 C 280.742188 488.648438 282.746094 487.382812 284.992188 487.136719 L 375.035156 477.25 C 377.238281 477.007812 379.386719 478.023438 380.597656 479.878906 C 381.8125 481.734375 381.878906 484.117188 380.769531 486.035156 Z M 369.5 505.550781 "/></g></g></svg>