<svg xmlns="http://www.w3.org/2000/svg" xmlns:xlink="http://www.w3.org/1999/xlink" width="1080" zoomAndPan="magnify" viewBox="0 0 810 809.999993" height="1080" preserveAspectRatio="xMidYMid meet" version="1.2"><defs><clipPath id="c4c02165ba"><path d="M 60.75 59.019531 L 749.25 59.019531 L 749.25 751 L 60.75 751 Z M 60.75 59.019531 "/></clipPath></defs><g id="417a1e0bac"><path style=" stroke:none;fill-rule:nonzero;fill:#ffffff;fill-opacity:1;" d="M 404.824219 218.125 C 301.773438 218.125 218.214844 301.683594 218.214844 404.738281 C 218.214844 507.792969 301.773438 591.347656 404.824219 591.347656 C 507.878906 591.347656 591.4375 507.792969 591.4375 404.738281 C 591.261719 301.683594 507.878906 218.476562 404.824219 218.125 Z M 404.824219 249.984375 C 440.6875 249.984375 469.929688 279.226562 469.929688 315.085938 C 469.929688 350.949219 440.6875 380.191406 404.824219 380.191406 C 368.964844 380.191406 339.722656 350.949219 339.722656 315.085938 C 339.722656 279.226562 368.964844 249.984375 404.824219 249.984375 Z M 515.539062 516.148438 C 515.539062 523.285156 509.273438 528.679688 501.960938 528.679688 L 307.34375 528.679688 C 300.207031 528.679688 293.765625 523.457031 293.765625 516.148438 L 293.765625 444.773438 C 293.765625 411.699219 321.09375 385.242188 354.167969 385.242188 C 358.347656 385.242188 362.175781 387.15625 364.613281 390.464844 C 374.015625 402.996094 388.8125 410.480469 404.476562 410.480469 C 420.144531 410.480469 434.941406 402.996094 444.339844 390.464844 C 446.777344 387.15625 450.78125 385.242188 454.785156 385.242188 C 487.859375 385.242188 515.191406 411.699219 515.191406 444.773438 Z M 515.539062 516.148438 "/><path style=" stroke:none;fill-rule:nonzero;fill:#ffffff;fill-opacity:1;" d="M 461.226562 411.351562 C 457.746094 415.183594 453.742188 418.664062 449.5625 421.796875 C 418.230469 444.773438 374.535156 440.421875 348.425781 411.351562 C 332.0625 414.3125 320.222656 428.238281 320.050781 444.773438 L 320.050781 502.394531 L 489.601562 502.394531 L 489.601562 444.773438 C 489.425781 428.410156 477.589844 414.136719 461.226562 411.351562 Z M 461.226562 411.351562 "/><g clip-rule="nonzero" clip-path="url(#c4c02165ba)"><path style=" stroke:none;fill-rule:nonzero;fill:#ffffff;fill-opacity:1;" d="M 671.164062 347.292969 C 664.027344 314.738281 650.972656 283.578125 632.519531 255.726562 C 629.386719 250.851562 629.734375 244.585938 633.390625 240.234375 L 675.515625 189.230469 L 618.070312 131.785156 L 567.066406 173.910156 C 562.714844 177.742188 556.445312 177.914062 551.574219 174.78125 C 523.71875 156.328125 492.734375 143.273438 460.007812 136.308594 C 454.613281 135.265625 450.433594 130.390625 449.738281 124.820312 L 443.472656 59.019531 L 365.832031 59.019531 L 359.390625 124.996094 C 358.695312 130.566406 354.515625 135.265625 349.121094 136.308594 C 316.570312 143.449219 285.410156 156.328125 257.554688 174.957031 C 252.683594 178.089844 246.414062 177.914062 242.0625 174.085938 L 191.234375 131.957031 L 133.789062 189.402344 L 175.914062 240.410156 C 179.394531 244.761719 179.917969 251.027344 176.785156 255.902344 C 158.332031 283.925781 145.449219 314.738281 138.140625 347.464844 C 136.921875 352.863281 132.222656 357.039062 126.648438 357.738281 L 60.847656 364.003906 L 60.847656 445.472656 L 127 451.914062 C 132.570312 452.609375 137.269531 456.4375 138.488281 462.183594 C 145.625 494.734375 158.507812 525.894531 177.132812 553.746094 C 180.265625 558.621094 180.09375 564.886719 176.261719 569.242188 L 134.136719 620.246094 L 191.582031 677.691406 L 242.585938 635.5625 C 246.9375 632.082031 253.203125 631.558594 258.078125 634.691406 C 286.105469 653.144531 316.917969 666.027344 349.644531 673.339844 C 355.039062 674.558594 359.21875 679.257812 359.914062 684.828125 L 366.355469 750.976562 L 443.992188 750.976562 L 450.433594 684.828125 C 451.128906 679.257812 454.960938 674.558594 460.703125 673.339844 C 493.257812 666.027344 524.417969 653.144531 552.269531 634.691406 C 557.144531 631.558594 563.410156 631.90625 567.761719 635.5625 L 618.765625 677.691406 L 676.210938 620.246094 L 633.910156 569.066406 C 630.082031 564.714844 629.90625 558.449219 633.042969 553.574219 C 651.492188 525.722656 664.550781 494.734375 671.511719 462.007812 C 672.730469 456.4375 677.429688 452.433594 683 451.738281 L 749.152344 445.296875 L 749.152344 363.828125 L 683 357.386719 C 677.082031 356.867188 672.554688 352.863281 671.164062 347.292969 Z M 404.824219 617.113281 C 287.496094 617.113281 192.101562 521.890625 192.101562 404.390625 C 192.101562 286.886719 287.496094 191.839844 404.824219 191.839844 C 522.152344 191.839844 617.546875 287.0625 617.546875 404.5625 C 617.375 522.066406 522.328125 617.113281 404.824219 617.113281 Z M 404.824219 617.113281 "/></g><path style=" stroke:none;fill-rule:nonzero;fill:#ffffff;fill-opacity:1;" d="M 404.824219 354.429688 C 426.410156 354.429688 443.820312 336.847656 443.820312 315.4375 C 443.820312 293.851562 426.238281 276.441406 404.824219 276.441406 C 383.238281 276.441406 365.832031 294.023438 365.832031 315.4375 C 365.832031 336.847656 383.414062 354.253906 404.824219 354.429688 Z M 404.824219 354.429688 "/></g></svg>