<svg xmlns="http://www.w3.org/2000/svg" xmlns:xlink="http://www.w3.org/1999/xlink" width="1080" zoomAndPan="magnify" viewBox="0 0 810 809.999993" height="1080" preserveAspectRatio="xMidYMid meet" version="1.2"><defs><clipPath id="2a07de11a3"><path d="M 16.707031 539 L 148 539 L 148 660 L 16.707031 660 Z M 16.707031 539 "/></clipPath><clipPath id="688eb91b93"><path d="M 662 539 L 792.957031 539 L 792.957031 660 L 662 660 Z M 662 539 "/></clipPath></defs><g id="5cee3172d0"><path style=" stroke:none;fill-rule:nonzero;fill:#333333;fill-opacity:1;" d="M 231 0 C 249.273438 18.75 271.292969 28.125 294.722656 38.4375 C 320.492188 49.6875 346.261719 60 372.03125 70.3125 C 389.835938 77.34375 407.640625 83.4375 424.980469 90.9375 C 429.195312 92.8125 433.882812 94.21875 436.691406 97.96875 C 440.910156 103.125 442.785156 110.15625 446.53125 116.25 C 451.6875 124.21875 454.027344 131.71875 456.371094 141.5625 C 464.335938 173.90625 480.738281 204.375 476.050781 238.125 C 473.707031 255.9375 470.898438 281.71875 461.527344 297.65625 C 454.964844 308.90625 441.847656 300.9375 438.566406 290.625 C 436.222656 283.59375 437.628906 275.15625 439.503906 268.125 C 440.910156 262.96875 445.59375 256.875 446.0625 251.25 C 446.53125 243.28125 440.441406 235.3125 439.972656 226.875 C 439.503906 217.5 441.847656 214.21875 437.160156 206.25 C 433.414062 200.15625 426.851562 195.9375 423.105469 189.375 C 413.265625 173.4375 406.238281 159.375 385.152344 167.34375 C 376.71875 170.625 368.753906 174.84375 364.066406 182.34375 C 351.886719 202.03125 370.160156 225 373.4375 245.625 C 376.71875 267.65625 375.78125 292.96875 351.417969 302.34375 C 338.765625 306.09375 336.421875 295.78125 338.765625 286.875 C 341.578125 276.5625 341.578125 268.125 338.296875 257.34375 C 333.144531 242.8125 321.429688 233.4375 312.996094 221.25 C 306.902344 212.34375 302.6875 202.03125 295.191406 194.53125 C 287.226562 186.5625 276.917969 180 268.015625 172.96875 C 256.300781 163.125 250.210938 155.15625 244.585938 140.625 C 232.402344 110.625 202.417969 96.09375 175.710938 80.15625 C 194.921875 53.4375 213.195312 26.71875 231 0 Z M 231 0 "/><path style=" stroke:none;fill-rule:nonzero;fill:#333333;fill-opacity:1;" d="M 433.882812 295.3125 C 433.882812 278.90625 421.230469 266.25 404.832031 266.25 C 388.902344 266.25 375.78125 278.90625 375.78125 295.3125 C 375.78125 311.25 388.902344 324.375 405.300781 324.375 C 420.761719 324.375 433.882812 311.25 433.882812 295.3125 Z M 433.882812 295.3125 "/><path style=" stroke:none;fill-rule:nonzero;fill:#333333;fill-opacity:1;" d="M 341.578125 359.53125 C 341.109375 344.53125 354.226562 336.09375 365.003906 336.5625 C 379.0625 336.5625 390.773438 336.5625 404.832031 336.5625 C 418.886719 336.5625 430.601562 336.5625 444.65625 336.5625 C 455.433594 336.5625 468.085938 344.53125 468.085938 359.53125 C 468.085938 368.4375 469.960938 384.375 469.960938 422.34375 C 469.960938 429.375 469.960938 436.875 469.960938 443.90625 C 469.960938 448.125 469.492188 452.8125 465.273438 454.6875 C 460.589844 457.03125 455.433594 457.03125 451.6875 452.8125 C 449.8125 450.9375 448.40625 447.1875 448.40625 444.375 C 447 345.46875 439.503906 340.78125 439.503906 441.5625 L 369.691406 441.5625 C 369.691406 405.46875 368.753906 382.5 367.347656 373.125 C 366.410156 366.5625 365.472656 366.09375 364.535156 372.65625 C 363.128906 382.5 361.722656 406.40625 360.789062 443.90625 C 360.789062 446.71875 359.382812 450 357.507812 452.34375 C 353.757812 456.5625 348.605469 456.09375 343.917969 454.21875 C 339.703125 452.34375 339.234375 447.65625 339.234375 443.4375 C 339.234375 436.40625 339.234375 428.90625 339.234375 421.875 C 339.703125 384.375 342.046875 368.4375 341.578125 359.53125 Z M 341.578125 359.53125 "/><path style=" stroke:none;fill-rule:nonzero;fill:#333333;fill-opacity:1;" d="M 439.503906 448.59375 C 439.503906 472.96875 439.503906 497.34375 439.503906 522.1875 C 439.503906 545.625 439.503906 569.0625 439.503906 592.5 C 439.503906 601.875 434.351562 607.03125 424.980469 607.03125 C 415.140625 607.03125 409.046875 601.40625 409.046875 592.5 C 409.046875 552.65625 409.046875 512.34375 409.046875 472.5 C 409.046875 467.34375 408.109375 466.40625 404.832031 466.40625 C 401.550781 466.40625 400.613281 467.8125 400.613281 472.5 C 400.613281 512.34375 400.613281 552.65625 400.613281 592.5 C 400.613281 601.40625 394.523438 607.03125 384.683594 607.03125 C 374.84375 607.03125 370.160156 601.875 370.160156 592.5 C 370.160156 569.0625 370.160156 545.625 370.160156 522.1875 C 370.160156 497.8125 370.160156 473.4375 370.160156 448.59375 Z M 439.503906 448.59375 "/><path style=" stroke:none;fill-rule:nonzero;fill:#333333;fill-opacity:1;" d="M 279.257812 651.5625 C 279.257812 675.9375 279.257812 700.3125 279.257812 725.15625 C 279.257812 748.59375 279.257812 772.03125 279.257812 795.46875 C 279.257812 804.84375 274.105469 810 264.734375 810 C 254.894531 810 248.804688 804.375 248.804688 795.46875 C 248.804688 755.625 248.804688 715.3125 248.804688 675.46875 C 248.804688 670.3125 247.867188 669.375 244.585938 669.375 C 241.304688 669.375 240.371094 670.78125 240.371094 675.46875 C 240.371094 715.3125 240.371094 755.625 240.371094 795.46875 C 240.371094 804.375 234.277344 810 224.4375 810 C 214.597656 810 209.914062 804.84375 209.914062 795.46875 C 209.914062 772.03125 209.914062 748.59375 209.914062 725.15625 C 209.914062 700.78125 209.914062 676.40625 209.914062 651.5625 Z M 279.257812 651.5625 "/><path style=" stroke:none;fill-rule:nonzero;fill:#333333;fill-opacity:1;" d="M 111.050781 497.8125 C 111.050781 481.40625 98.398438 468.75 82 468.75 C 66.066406 468.75 52.949219 481.40625 52.949219 497.8125 C 52.949219 513.75 66.066406 526.875 82.46875 526.875 C 97.929688 526.875 111.050781 513.75 111.050781 497.8125 Z M 111.050781 497.8125 "/><g clip-rule="nonzero" clip-path="url(#2a07de11a3)"><path style=" stroke:none;fill-rule:nonzero;fill:#333333;fill-opacity:1;" d="M 18.746094 562.5 C 18.277344 547.5 31.394531 539.0625 42.171875 539.53125 C 56.230469 539.53125 67.941406 539.53125 82 539.53125 C 96.054688 539.53125 107.769531 539.53125 121.824219 539.53125 C 132.601562 539.53125 145.253906 547.5 145.253906 562.5 C 145.253906 571.40625 147.128906 587.34375 147.128906 625.3125 C 147.128906 632.34375 147.128906 639.84375 147.128906 646.875 C 147.128906 651.09375 146.660156 655.78125 142.441406 657.65625 C 137.757812 660 132.601562 660 128.855469 655.78125 C 126.980469 653.90625 125.574219 650.15625 125.574219 647.34375 C 124.167969 548.4375 116.671875 543.75 116.671875 644.53125 L 47.324219 644.53125 C 47.324219 608.4375 46.390625 585.46875 44.984375 576.09375 C 44.046875 569.53125 43.109375 569.0625 42.171875 575.625 C 40.296875 585 38.890625 609.375 38.421875 646.875 C 38.421875 649.6875 37.019531 652.96875 35.144531 655.3125 C 31.394531 659.53125 26.242188 659.0625 21.554688 657.1875 C 17.339844 655.3125 16.871094 650.625 16.871094 646.40625 C 16.871094 639.375 16.871094 631.875 16.871094 624.84375 C 16.871094 586.875 19.214844 570.9375 18.746094 562.5 Z M 18.746094 562.5 "/></g><path style=" stroke:none;fill-rule:nonzero;fill:#333333;fill-opacity:1;" d="M 117.140625 651.5625 C 117.140625 675.9375 117.140625 700.3125 117.140625 725.15625 C 117.140625 748.59375 117.140625 772.03125 117.140625 795.46875 C 117.140625 804.84375 111.984375 810 102.613281 810 C 92.777344 810 86.683594 804.375 86.683594 795.46875 C 86.683594 755.625 86.683594 715.3125 86.683594 675.46875 C 86.683594 670.3125 85.746094 669.375 82.46875 669.375 C 79.1875 669.375 78.25 670.78125 78.25 675.46875 C 78.25 715.3125 78.25 755.625 78.25 795.46875 C 78.25 804.375 72.160156 810 62.320312 810 C 52.480469 810 47.792969 804.84375 47.792969 795.46875 C 47.792969 772.03125 47.792969 748.59375 47.792969 725.15625 C 47.792969 700.78125 47.792969 676.40625 47.792969 651.5625 Z M 117.140625 651.5625 "/><path style=" stroke:none;fill-rule:nonzero;fill:#333333;fill-opacity:1;" d="M 756.714844 497.8125 C 756.714844 481.40625 744.0625 468.75 727.664062 468.75 C 711.734375 468.75 698.613281 481.40625 698.613281 497.8125 C 698.613281 513.75 711.734375 526.875 728.132812 526.875 C 743.59375 526.875 756.714844 513.75 756.714844 497.8125 Z M 756.714844 497.8125 "/><g clip-rule="nonzero" clip-path="url(#688eb91b93)"><path style=" stroke:none;fill-rule:nonzero;fill:#333333;fill-opacity:1;" d="M 664.410156 562.5 C 663.941406 547.5 677.058594 539.0625 687.835938 539.53125 C 701.894531 539.53125 713.605469 539.53125 727.664062 539.53125 C 741.71875 539.53125 753.433594 539.53125 767.492188 539.53125 C 778.265625 539.53125 790.917969 547.5 790.917969 562.5 C 790.917969 571.40625 792.792969 587.34375 792.792969 625.3125 C 792.792969 632.34375 792.792969 639.84375 792.792969 646.875 C 792.792969 651.09375 792.324219 655.78125 788.105469 657.65625 C 783.421875 660 778.265625 660 774.519531 655.78125 C 772.644531 653.90625 771.238281 650.15625 771.238281 647.34375 C 769.832031 548.4375 762.335938 543.75 762.335938 644.53125 L 692.523438 644.53125 C 692.523438 608.4375 691.585938 585.46875 690.179688 576.09375 C 689.242188 569.53125 688.304688 569.0625 687.367188 575.625 C 685.960938 585.46875 684.558594 609.375 683.621094 646.875 C 683.621094 649.6875 682.214844 652.96875 680.339844 655.3125 C 676.589844 659.53125 671.4375 659.0625 666.75 657.1875 C 662.535156 655.3125 662.066406 650.625 662.066406 646.40625 C 662.066406 639.375 662.066406 631.875 662.066406 624.84375 C 662.535156 586.875 664.878906 570.9375 664.410156 562.5 Z M 664.410156 562.5 "/></g><path style=" stroke:none;fill-rule:nonzero;fill:#333333;fill-opacity:1;" d="M 762.335938 651.5625 C 762.335938 675.9375 762.335938 700.3125 762.335938 725.15625 C 762.335938 748.59375 762.335938 772.03125 762.335938 795.46875 C 762.335938 804.84375 757.183594 810 747.8125 810 C 737.972656 810 731.878906 804.375 731.878906 795.46875 C 731.878906 755.625 731.878906 715.3125 731.878906 675.46875 C 731.878906 670.3125 730.945312 669.375 727.664062 669.375 C 724.382812 669.375 723.445312 670.78125 723.445312 675.46875 C 723.445312 715.3125 723.445312 755.625 723.445312 795.46875 C 723.445312 804.375 717.355469 810 707.515625 810 C 697.675781 810 692.992188 804.84375 692.992188 795.46875 C 692.992188 772.03125 692.992188 748.59375 692.992188 725.15625 C 692.992188 700.78125 692.992188 676.40625 692.992188 651.5625 Z M 762.335938 651.5625 "/><path style=" stroke:none;fill-rule:nonzero;fill:#333333;fill-opacity:1;" d="M 595.0625 497.8125 C 595.0625 481.40625 582.414062 468.75 566.011719 468.75 C 550.082031 468.75 536.960938 481.40625 536.960938 497.8125 C 536.960938 513.75 550.082031 526.875 566.480469 526.875 C 582.414062 526.875 595.0625 513.75 595.0625 497.8125 Z M 595.0625 497.8125 "/><path style=" stroke:none;fill-rule:nonzero;fill:#333333;fill-opacity:1;" d="M 601.15625 651.5625 C 601.15625 675.9375 601.15625 700.3125 601.15625 725.15625 C 601.15625 748.59375 601.15625 772.03125 601.15625 795.46875 C 601.15625 804.84375 596 810 586.628906 810 C 576.789062 810 570.699219 804.375 570.699219 795.46875 C 570.699219 755.625 570.699219 715.3125 570.699219 675.46875 C 570.699219 670.3125 569.761719 669.375 566.480469 669.375 C 563.203125 669.375 562.265625 670.78125 562.265625 675.46875 C 562.265625 715.3125 562.265625 755.625 562.265625 795.46875 C 562.265625 804.375 556.171875 810 546.332031 810 C 536.496094 810 531.808594 804.84375 531.808594 795.46875 C 531.808594 772.03125 531.808594 748.59375 531.808594 725.15625 C 531.808594 700.78125 531.808594 676.40625 531.808594 651.5625 Z M 601.15625 651.5625 "/><path style=" stroke:none;fill-rule:nonzero;fill:#333333;fill-opacity:1;" d="M 629.265625 487.96875 C 629.265625 480.9375 629.265625 473.4375 629.265625 466.40625 C 629.265625 462.1875 628.800781 457.5 624.582031 455.625 C 619.898438 453.28125 614.742188 453.28125 610.992188 457.5 C 609.121094 459.375 607.714844 463.125 607.714844 465.9375 C 607.246094 506.25 605.371094 530.625 603.964844 539.0625 C 603.964844 539.0625 603.964844 539.0625 603.964844 539.53125 C 590.847656 539.53125 579.601562 539.53125 566.480469 539.53125 C 553.363281 539.53125 542.117188 539.53125 528.996094 539.53125 C 528.996094 539.53125 528.996094 539.53125 528.996094 539.0625 C 527.589844 530.625 525.71875 506.25 525.25 465.9375 C 525.25 463.125 523.84375 459.84375 521.96875 457.5 C 518.222656 453.28125 513.066406 453.75 508.382812 455.625 C 504.164062 457.5 503.695312 462.1875 503.695312 466.40625 C 503.695312 473.4375 503.695312 480.9375 503.695312 487.96875 C 503.695312 534.84375 499.945312 574.21875 528.996094 573.75 C 528.996094 573.75 528.996094 573.75 529.464844 573.75 C 530.871094 581.25 531.808594 604.6875 531.808594 644.53125 L 601.15625 644.53125 C 601.15625 604.6875 602.089844 581.71875 603.496094 573.75 C 603.496094 573.75 603.964844 573.75 603.964844 573.75 C 633.015625 573.75 629.265625 534.84375 629.265625 487.96875 Z M 629.265625 487.96875 "/><path style=" stroke:none;fill-rule:nonzero;fill:#333333;fill-opacity:1;" d="M 214.597656 497.8125 C 214.597656 481.40625 227.25 468.75 243.648438 468.75 C 259.582031 468.75 272.699219 481.40625 272.699219 497.8125 C 272.699219 513.75 259.582031 526.875 243.179688 526.875 C 227.25 526.875 214.597656 513.75 214.597656 497.8125 Z M 214.597656 497.8125 "/><path style=" stroke:none;fill-rule:nonzero;fill:#333333;fill-opacity:1;" d="M 208.507812 651.5625 C 208.507812 675.9375 208.507812 700.3125 208.507812 725.15625 C 208.507812 748.59375 208.507812 772.03125 208.507812 795.46875 C 208.507812 804.84375 213.660156 810 223.03125 810 C 232.871094 810 238.964844 804.375 238.964844 795.46875 C 238.964844 755.625 238.964844 715.3125 238.964844 675.46875 C 238.964844 670.3125 239.902344 669.375 243.179688 669.375 C 246.460938 669.375 247.398438 670.78125 247.398438 675.46875 C 247.398438 715.3125 247.398438 755.625 247.398438 795.46875 C 247.398438 804.375 253.488281 810 263.328125 810 C 273.167969 810 277.855469 804.84375 277.855469 795.46875 C 277.855469 772.03125 277.855469 748.59375 277.855469 725.15625 C 277.855469 700.78125 277.855469 676.40625 277.855469 651.5625 Z M 208.507812 651.5625 "/><path style=" stroke:none;fill-rule:nonzero;fill:#333333;fill-opacity:1;" d="M 180.394531 487.96875 C 180.394531 480.9375 180.394531 473.4375 180.394531 466.40625 C 180.394531 462.1875 180.863281 457.5 185.082031 455.625 C 189.765625 453.28125 194.921875 453.28125 198.667969 457.5 C 200.542969 459.375 201.949219 463.125 201.949219 465.9375 C 202.417969 506.25 204.292969 530.625 205.695312 539.0625 C 205.695312 539.0625 205.695312 539.0625 205.695312 539.53125 C 218.816406 539.53125 230.0625 539.53125 243.179688 539.53125 C 256.300781 539.53125 267.546875 539.53125 280.664062 539.53125 C 280.664062 539.53125 280.664062 539.53125 280.664062 539.0625 C 282.070312 530.625 283.945312 506.25 284.414062 465.9375 C 284.414062 463.125 285.820312 459.84375 287.691406 457.5 C 291.441406 453.28125 296.597656 453.75 301.28125 455.625 C 305.5 457.5 305.964844 462.1875 305.964844 466.40625 C 305.964844 473.4375 305.964844 480.9375 305.964844 487.96875 C 305.964844 534.84375 309.714844 574.21875 280.664062 573.75 C 280.664062 573.75 280.664062 573.75 280.195312 573.75 C 278.789062 581.25 277.855469 604.6875 277.855469 644.53125 L 208.507812 644.53125 C 208.507812 604.6875 207.570312 581.71875 206.164062 573.75 C 206.164062 573.75 205.695312 573.75 205.695312 573.75 C 176.644531 573.75 180.394531 534.84375 180.394531 487.96875 Z M 180.394531 487.96875 "/></g></svg>