<svg xmlns="http://www.w3.org/2000/svg" xmlns:xlink="http://www.w3.org/1999/xlink" width="1080" zoomAndPan="magnify" viewBox="0 0 810 809.999993" height="1080" preserveAspectRatio="xMidYMid meet" version="1.2"><defs><clipPath id="accea4f810"><path d="M 66.027344 15.839844 L 744 15.839844 L 744 791.339844 L 66.027344 791.339844 Z M 66.027344 15.839844 "/></clipPath></defs><g id="df2cd58732"><g clip-rule="nonzero" clip-path="url(#accea4f810)"><path style=" stroke:none;fill-rule:evenodd;fill:#ffffff;fill-opacity:1;" d="M 411.121094 46.421875 L 300.421875 46.421875 C 304.6875 39.714844 310.113281 33.824219 316.429688 29.035156 C 327.398438 20.761719 341.042969 15.839844 355.773438 15.839844 C 370.519531 15.839844 384.164062 20.761719 395.113281 29.054688 C 401.429688 33.824219 406.875 39.714844 411.121094 46.421875 Z M 207.496094 118.105469 L 504.066406 118.105469 C 506.914062 118.105469 509.222656 115.800781 509.222656 112.953125 L 509.222656 78.339844 C 509.222656 75.488281 506.914062 73.183594 504.066406 73.183594 L 207.496094 73.183594 C 204.648438 73.183594 202.339844 75.488281 202.339844 78.339844 L 202.339844 112.953125 C 202.339844 115.800781 204.648438 118.105469 207.496094 118.105469 Z M 528.929688 791.035156 L 69.761719 791.035156 C 67.765625 791.035156 66.140625 789.40625 66.140625 787.410156 L 67.070312 112.640625 C 67.070312 110.644531 68.699219 109.015625 70.695312 109.015625 L 171.953125 109.015625 C 173.949219 109.015625 175.578125 110.644531 175.578125 112.640625 L 175.578125 131.34375 C 175.578125 138.804688 181.625 144.851562 189.085938 144.851562 L 522.59375 144.851562 C 529.976562 144.851562 535.964844 138.863281 535.964844 131.480469 L 535.964844 112.640625 C 535.964844 110.644531 537.59375 109.015625 539.589844 109.015625 L 640.773438 109.015625 C 642.769531 109.015625 644.394531 110.644531 644.394531 112.640625 L 644.394531 478.863281 C 644.394531 482.234375 640.132812 483.824219 638.019531 481.207031 C 638 481.1875 637.980469 481.167969 637.960938 481.148438 C 637.496094 480.605469 637.089844 480.121094 636.585938 479.636719 C 635.5 478.628906 634.300781 477.816406 633 477.214844 L 632.59375 477.042969 C 630.945312 476.363281 629.203125 476.015625 627.457031 476.015625 C 625.714844 476.015625 623.96875 476.34375 622.285156 477.042969 L 621.894531 477.195312 C 620.597656 477.796875 619.375 478.589844 618.3125 479.617188 L 617.730469 480.199219 L 616.933594 481.128906 C 608.757812 491.226562 590.636719 501.671875 569.898438 510.53125 C 544.492188 521.382812 515.886719 529.386719 496.257812 531.480469 C 489.394531 532.214844 484.320312 538.011719 484.28125 544.753906 L 484.28125 687.15625 L 484.375 688.824219 C 486.042969 738.902344 504.6875 766.828125 530.925781 784.386719 C 533.910156 786.402344 532.496094 791.035156 528.929688 791.035156 Z M 278.757812 233.164062 C 279.570312 239.988281 285.734375 244.910156 292.59375 244.910156 L 586.082031 244.910156 C 594.007812 244.910156 600.328125 238.011719 599.359375 229.910156 C 598.542969 223.085938 592.378906 218.164062 585.519531 218.164062 L 292.03125 218.164062 C 284.105469 218.164062 277.804688 225.042969 278.757812 233.164062 Z M 278.757812 294.578125 C 279.570312 301.402344 285.734375 306.324219 292.59375 306.324219 L 520.886719 306.324219 C 528.816406 306.324219 535.132812 299.425781 534.164062 291.324219 C 533.347656 284.503906 527.1875 279.578125 520.328125 279.578125 L 292.03125 279.578125 C 284.105469 279.578125 277.804688 286.460938 278.757812 294.578125 Z M 100.460938 354.210938 C 100.460938 361.671875 106.507812 367.71875 113.96875 367.71875 L 236.507812 367.71875 C 243.96875 367.71875 250.015625 361.671875 250.015625 354.210938 L 250.015625 231.671875 C 250.015625 224.210938 243.96875 218.164062 236.507812 218.164062 L 113.96875 218.164062 C 106.507812 218.164062 100.460938 224.210938 100.460938 231.671875 Z M 450.441406 554.773438 C 450.441406 547.507812 444.648438 541.59375 437.417969 541.402344 L 397.535156 538.378906 C 397.476562 538.378906 397.4375 538.339844 397.417969 538.28125 C 396.238281 534.425781 394.878906 530.664062 393.386719 527.042969 L 393.078125 526.34375 C 391.625 522.894531 390.015625 519.503906 388.253906 516.207031 C 388.234375 516.148438 388.234375 516.089844 388.273438 516.054688 L 414.785156 485.179688 C 419.335938 479.851562 418.96875 471.945312 414.105469 467.0625 L 384.28125 437.234375 C 379.066406 432.023438 370.617188 432.023438 365.402344 437.195312 L 335.289062 463.050781 C 335.25 463.085938 335.191406 463.085938 335.132812 463.070312 C 331.605469 461.1875 327.980469 459.484375 324.296875 457.933594 C 320.65625 456.421875 316.914062 455.082031 313.058594 453.902344 C 313 453.882812 312.960938 453.84375 312.960938 453.785156 L 309.878906 413.261719 C 309.355469 406.246094 303.484375 400.898438 296.566406 400.878906 L 254.355469 400.878906 C 247.089844 400.878906 241.179688 406.671875 240.984375 413.902344 L 237.960938 453.785156 C 237.960938 453.84375 237.921875 453.882812 237.863281 453.902344 C 234.007812 455.082031 230.25 456.441406 226.625 457.933594 L 225.925781 458.242188 C 222.417969 459.714844 219.046875 461.324219 215.769531 463.050781 C 215.714844 463.070312 215.65625 463.070312 215.617188 463.03125 L 184.761719 436.539062 C 179.433594 431.984375 171.527344 432.351562 166.644531 437.214844 L 136.816406 467.042969 C 131.605469 472.253906 131.605469 480.703125 136.777344 485.917969 L 162.632812 516.015625 C 162.671875 516.054688 162.671875 516.109375 162.652344 516.167969 C 160.753906 519.714844 159.046875 523.339844 157.515625 527.023438 L 157.226562 527.757812 C 155.828125 531.1875 154.589844 534.695312 153.484375 538.28125 C 153.464844 538.339844 153.425781 538.378906 153.367188 538.378906 L 112.84375 541.460938 C 105.828125 541.984375 100.480469 547.855469 100.460938 554.773438 L 100.460938 596.964844 C 100.460938 604.230469 106.253906 610.140625 113.484375 610.335938 L 153.347656 613.359375 C 153.40625 613.359375 153.445312 613.398438 153.464844 613.457031 C 154.648438 617.3125 156.003906 621.074219 157.496094 624.695312 C 159.027344 628.378906 160.734375 631.984375 162.632812 635.550781 C 162.652344 635.605469 162.652344 635.664062 162.613281 635.703125 L 136.121094 666.558594 C 131.566406 671.886719 131.933594 679.792969 136.796875 684.675781 L 166.644531 714.503906 C 171.855469 719.714844 180.304688 719.714844 185.519531 714.542969 L 215.617188 688.6875 C 215.65625 688.648438 215.714844 688.648438 215.769531 688.667969 C 219.261719 690.511719 222.882812 692.214844 226.625 693.785156 C 230.25 695.296875 234.007812 696.632812 237.863281 697.816406 C 237.921875 697.835938 237.960938 697.875 237.960938 697.933594 L 241.042969 738.457031 C 241.566406 745.472656 247.4375 750.820312 254.355469 750.839844 L 296.546875 750.839844 C 303.8125 750.839844 309.726562 745.046875 309.917969 737.816406 L 312.941406 697.933594 C 312.941406 697.875 312.980469 697.835938 313.039062 697.816406 C 316.855469 696.632812 320.597656 695.296875 324.242188 693.785156 C 328.019531 692.234375 331.644531 690.53125 335.152344 688.6875 C 335.210938 688.667969 335.269531 688.667969 335.304688 688.707031 L 366.140625 715.179688 C 371.46875 719.734375 379.375 719.367188 384.261719 714.503906 L 414.085938 684.675781 C 419.300781 679.464844 419.300781 671.015625 414.125 665.800781 L 388.273438 635.703125 C 388.234375 635.664062 388.234375 635.609375 388.253906 635.550781 C 390.152344 632.003906 391.855469 628.378906 393.386719 624.695312 C 394.898438 621.074219 396.238281 617.3125 397.417969 613.457031 C 397.4375 613.398438 397.476562 613.359375 397.535156 613.359375 L 438.039062 610.277344 C 445.054688 609.753906 450.402344 603.882812 450.421875 596.964844 L 450.421875 554.773438 Z M 127.207031 337.136719 L 127.207031 248.765625 C 127.207031 246.632812 128.929688 244.929688 131.042969 244.929688 L 219.414062 244.929688 C 221.546875 244.929688 223.253906 246.652344 223.253906 248.765625 L 223.253906 337.136719 C 223.253906 339.269531 221.527344 340.976562 219.414062 340.976562 L 131.042969 340.976562 C 128.929688 340.976562 127.207031 339.25 127.207031 337.136719 Z M 137.84375 312.542969 L 150.636719 324.96875 C 155.90625 330.101562 164.355469 329.988281 169.492188 324.714844 L 212.960938 279.792969 C 218.097656 274.523438 217.980469 266.070312 212.710938 260.9375 C 207.4375 255.800781 198.988281 255.917969 193.851562 261.1875 L 159.707031 296.480469 C 159.648438 296.535156 159.570312 296.535156 159.511719 296.480469 L 156.757812 293.804688 C 151.855469 289.054688 144.046875 288.320312 138.753906 292.621094 C 132.4375 297.777344 132.1875 307.078125 137.84375 312.542969 Z M 423.679688 572.003906 L 423.679688 579.734375 C 423.679688 582.46875 421.566406 584.753906 418.832031 584.949219 L 386.003906 587.46875 C 380.289062 587.894531 375.289062 592.003906 373.988281 597.875 C 372.75 603.496094 370.964844 609.039062 368.738281 614.445312 C 366.527344 619.753906 363.949219 624.753906 361.0625 629.386719 C 357.59375 634.25 357.75 641.035156 361.800781 645.78125 L 383.292969 670.800781 C 385.074219 672.875 384.957031 675.976562 383.019531 677.914062 L 377.535156 683.398438 C 375.597656 685.335938 372.496094 685.453125 370.421875 683.667969 L 346.082031 662.757812 C 341.761719 658.496094 334.898438 657.621094 329.550781 661.015625 C 324.609375 664.152344 319.414062 666.886719 314.066406 669.113281 C 309.007812 671.207031 303.757812 672.914062 298.386719 674.152344 C 292.339844 675.046875 287.515625 680.027344 287.03125 686.382812 L 284.53125 719.230469 C 284.316406 721.964844 282.050781 724.078125 279.316406 724.078125 L 271.585938 724.078125 C 268.851562 724.078125 266.566406 721.964844 266.371094 719.230469 L 263.851562 686.382812 C 263.425781 680.664062 259.316406 675.664062 253.445312 674.367188 C 247.824219 673.125 242.28125 671.34375 236.875 669.132812 C 231.566406 666.945312 226.390625 664.210938 221.371094 661.054688 C 216.546875 657.992188 210.113281 658.28125 205.558594 662.175781 L 180.480469 683.707031 C 178.40625 685.492188 175.304688 685.375 173.367188 683.4375 L 167.882812 677.953125 C 165.945312 676.015625 165.828125 672.914062 167.613281 670.839844 L 189.085938 645.800781 C 192.804688 641.460938 193.425781 635.046875 190.191406 629.988281 C 187.148438 625.199219 184.433594 620.007812 182.148438 614.484375 C 180.035156 609.367188 178.328125 604.132812 177.089844 598.824219 C 176.199219 592.777344 171.21875 587.953125 164.859375 587.46875 L 132.03125 584.96875 C 129.296875 584.753906 127.1875 582.488281 127.1875 579.753906 L 127.1875 572.023438 C 127.1875 569.289062 129.296875 567.003906 132.03125 566.808594 L 164.859375 564.289062 C 170.578125 563.863281 175.578125 559.753906 176.875 553.882812 C 178.097656 548.417969 179.761719 543.070312 181.855469 537.914062 L 182.128906 537.292969 C 184.335938 531.984375 186.914062 526.984375 189.800781 522.351562 C 193.269531 517.488281 193.136719 510.703125 189.066406 505.957031 L 167.574219 480.9375 C 165.789062 478.863281 165.90625 475.761719 167.84375 473.824219 L 173.328125 468.339844 C 175.265625 466.402344 178.367188 466.285156 180.441406 468.070312 L 204.78125 488.980469 C 209.105469 493.242188 215.964844 494.113281 221.3125 490.722656 C 226.140625 487.660156 231.101562 485.027344 236.160156 482.894531 L 236.816406 482.640625 C 241.933594 480.53125 247.167969 478.824219 252.476562 477.582031 C 258.523438 476.691406 263.347656 471.710938 263.832031 465.355469 L 266.332031 432.507812 C 266.546875 429.773438 268.8125 427.660156 271.546875 427.660156 L 279.609375 427.660156 C 282.167969 427.660156 284.28125 429.617188 284.511719 432.15625 L 285.65625 445.316406 L 287.011719 465.355469 C 287.4375 471.070312 291.546875 476.070312 297.417969 477.371094 C 303.039062 478.609375 308.582031 480.394531 313.988281 482.601562 C 319.242188 484.773438 324.222656 487.351562 328.910156 490.296875 C 333.777344 493.765625 340.558594 493.609375 345.304688 489.5625 L 370.402344 468.03125 C 372.476562 466.246094 375.578125 466.363281 377.515625 468.300781 L 383 473.785156 C 384.9375 475.722656 385.054688 478.824219 383.273438 480.898438 L 361.78125 505.9375 C 358.058594 510.277344 357.4375 516.691406 360.675781 521.75 C 363.660156 526.421875 366.257812 531.402344 368.464844 536.59375 L 368.71875 537.253906 C 370.828125 542.371094 372.535156 547.601562 373.777344 552.933594 C 374.667969 558.980469 379.648438 563.804688 386.003906 564.289062 L 418.832031 566.789062 C 421.566406 567.003906 423.679688 569.269531 423.679688 572.003906 Z M 349.609375 575.859375 C 349.609375 555.375 341.3125 536.847656 327.882812 523.417969 C 314.472656 510.007812 295.925781 501.691406 275.441406 501.691406 C 254.996094 501.691406 236.46875 510.007812 223.039062 523.417969 C 209.570312 536.90625 201.257812 555.414062 201.257812 575.859375 C 201.257812 596.34375 209.570312 614.890625 222.980469 628.300781 C 236.410156 641.730469 254.957031 650.027344 275.421875 650.027344 C 295.828125 650.027344 314.375 641.730469 327.804688 628.300781 L 327.863281 628.222656 C 341.332031 614.773438 349.609375 596.265625 349.609375 575.859375 Z M 308.96875 542.332031 C 300.402344 533.765625 288.542969 528.4375 275.441406 528.4375 C 262.320312 528.4375 250.460938 533.746094 241.875 542.292969 C 233.328125 550.878906 228.019531 562.738281 228.019531 575.859375 C 228.019531 588.960938 233.328125 600.820312 241.914062 609.386719 C 250.5 617.972656 262.359375 623.28125 275.441406 623.28125 C 288.582031 623.28125 300.421875 617.992188 309.027344 609.386719 C 317.574219 600.839844 322.863281 588.980469 322.863281 575.859375 C 322.863281 562.777344 317.554688 550.917969 308.96875 542.332031 Z M 743.894531 687.175781 C 741.761719 761.265625 689.378906 775.125 638.523438 788.574219 L 629.648438 790.957031 C 629.453125 791.015625 629.261719 791.035156 629.046875 791.035156 L 625.578125 791.035156 C 625.558594 791.035156 625.558594 791.035156 625.539062 791.035156 L 616.390625 788.59375 C 565.675781 775.179688 513.464844 761.363281 511.042969 687.855469 L 511.335938 582.835938 L 511.082031 558.261719 C 511.0625 557.136719 511.855469 556.1875 512.960938 555.976562 C 533.273438 552.175781 558.097656 544.636719 580.367188 535.121094 C 597.902344 527.640625 614.164062 518.765625 626.042969 509.25 C 626.878906 508.574219 628.039062 508.574219 628.890625 509.25 C 634.976562 514.132812 642.226562 518.824219 650.191406 523.28125 C 650.925781 523.785156 651.722656 524.230469 652.574219 524.582031 C 659.492188 528.320312 666.914062 531.847656 674.570312 535.121094 C 696.859375 544.636719 721.683594 552.175781 741.992188 555.976562 C 743.078125 556.1875 743.875 557.117188 743.875 558.242188 Z M 714.648438 585.375 C 709.378906 580.277344 700.945312 580.414062 695.851562 585.683594 L 591.023438 694.039062 C 588.386719 696.75 584.066406 696.828125 581.355469 694.191406 L 561.121094 674.617188 C 556.21875 669.871094 548.40625 669.132812 543.117188 673.4375 C 536.820312 678.574219 536.566406 687.875 542.226562 693.339844 L 577.34375 727.292969 C 582.613281 732.390625 591.042969 732.253906 596.140625 726.984375 L 714.957031 604.152344 C 720.074219 598.902344 719.9375 590.472656 714.648438 585.375 Z M 714.648438 585.375 "/></g></g></svg>