<svg xmlns="http://www.w3.org/2000/svg" xmlns:xlink="http://www.w3.org/1999/xlink" width="1080" zoomAndPan="magnify" viewBox="0 0 810 809.999993" height="1080" preserveAspectRatio="xMidYMid meet" version="1.2"><g id="b668aab363"><path style=" stroke:none;fill-rule:nonzero;fill:#000000;fill-opacity:1;" d="M 40.5 509.433594 L 9.734375 455.59375 L 26.917969 455.59375 L 26.917969 428.554688 C 26.917969 361.617188 81.480469 307.054688 148.421875 307.054688 L 168.609375 307.054688 L 168.609375 334.09375 L 148.421875 334.09375 C 96.261719 334.09375 53.960938 376.519531 53.960938 428.554688 L 53.960938 455.59375 L 71.144531 455.59375 Z M 589.351562 334.09375 L 661.460938 334.09375 C 713.617188 334.09375 755.917969 376.519531 755.917969 428.554688 L 755.917969 455.59375 L 738.734375 455.59375 L 769.5 509.433594 L 800.265625 455.59375 L 783.078125 455.59375 L 783.078125 428.554688 C 783.078125 361.617188 728.519531 307.054688 661.578125 307.054688 L 520.492188 307.054688 L 520.492188 333.734375 L 589.472656 333.734375 L 589.472656 334.09375 Z M 418.460938 561.472656 L 229.539062 561.472656 L 229.539062 266.554688 L 418.582031 266.554688 L 418.582031 329.769531 C 386.734375 344.910156 364.621094 377.480469 364.621094 414.976562 C 364.621094 452.589844 386.734375 485.039062 418.582031 500.179688 L 418.582031 561.472656 Z M 364.5 320.636719 C 391.539062 320.636719 364.5 320.636719 391.539062 320.636719 L 391.539062 293.59375 L 364.5 293.59375 Z M 283.5 509.675781 L 256.460938 509.675781 L 256.460938 536.714844 C 283.5 536.714844 256.460938 536.714844 283.5 536.714844 Z M 283.5 455.59375 L 256.460938 455.59375 L 256.460938 482.636719 C 283.5 482.636719 256.460938 482.636719 283.5 482.636719 Z M 283.5 401.636719 L 256.460938 401.636719 L 256.460938 428.675781 C 283.5 428.675781 256.460938 428.675781 283.5 428.675781 Z M 283.5 347.675781 L 256.460938 347.675781 L 256.460938 374.714844 C 283.5 374.714844 256.460938 374.714844 283.5 374.714844 Z M 283.5 293.59375 L 256.460938 293.59375 L 256.460938 320.636719 C 283.5 320.636719 256.460938 320.636719 283.5 320.636719 Z M 337.460938 509.675781 L 310.417969 509.675781 L 310.417969 536.714844 C 337.460938 536.714844 310.417969 536.714844 337.460938 536.714844 Z M 337.460938 455.59375 L 310.417969 455.59375 L 310.417969 482.636719 C 337.460938 482.636719 310.417969 482.636719 337.460938 482.636719 Z M 337.460938 401.636719 L 310.417969 401.636719 L 310.417969 428.675781 C 337.460938 428.675781 310.417969 428.675781 337.460938 428.675781 Z M 337.460938 347.675781 L 310.417969 347.675781 L 310.417969 374.714844 C 337.460938 374.714844 310.417969 374.714844 337.460938 374.714844 Z M 337.460938 293.59375 L 310.417969 293.59375 L 310.417969 320.636719 C 337.460938 320.636719 310.417969 320.636719 337.460938 320.636719 Z M 445.5 16.824219 C 445.5 9.375 439.492188 3.363281 432.039062 3.363281 L 378.082031 3.363281 C 370.628906 3.363281 364.621094 9.375 364.621094 16.824219 L 364.621094 30.285156 L 445.621094 30.285156 L 445.621094 16.824219 Z M 499.582031 115.492188 C 468.214844 123.300781 436.605469 127.269531 405.121094 127.269531 C 373.511719 127.269531 342.027344 123.300781 310.539062 115.371094 L 310.539062 178.703125 L 499.582031 178.703125 Z M 703.160156 720.585938 C 706.648438 723.59375 710.972656 725.394531 715.539062 725.394531 C 720.347656 725.394531 724.671875 723.472656 728.277344 720.226562 C 731.523438 717.34375 734.046875 713.257812 735.609375 708.691406 C 736.449219 705.804688 737.050781 702.800781 737.050781 699.554688 C 737.050781 685.253906 727.4375 673.71875 715.539062 673.71875 C 703.640625 673.71875 694.027344 685.253906 694.027344 699.554688 C 694.027344 702.921875 694.628906 706.167969 695.589844 709.171875 C 697.152344 713.738281 699.796875 717.703125 703.160156 720.585938 Z M 752.433594 744.984375 L 744.625 741.617188 C 736.570312 748.230469 726.476562 752.195312 715.539062 752.195312 C 704.84375 752.195312 694.871094 748.347656 686.816406 741.859375 L 679.367188 744.984375 C 654.96875 754.957031 645.234375 760.726562 642.59375 771.785156 C 646.4375 776.46875 650.765625 780.917969 655.449219 784.761719 C 656.050781 785.242188 656.652344 785.722656 657.253906 786.203125 C 660.019531 788.367188 662.902344 790.410156 665.785156 792.332031 C 665.90625 792.453125 666.027344 792.453125 666.148438 792.574219 C 668.910156 794.257812 671.796875 795.820312 674.679688 797.261719 C 674.917969 797.382812 675.039062 797.5 675.28125 797.5 C 678.164062 798.824219 681.050781 800.023438 684.054688 801.105469 C 684.292969 801.226562 684.535156 801.347656 684.894531 801.347656 C 687.777344 802.308594 690.785156 803.148438 693.789062 803.871094 C 694.148438 803.992188 694.507812 804.109375 694.988281 804.109375 C 697.875 804.710938 700.757812 805.191406 703.640625 805.554688 C 704.125 805.671875 704.722656 805.792969 705.203125 805.792969 C 708.570312 806.152344 712.054688 806.394531 715.417969 806.394531 C 718.785156 806.394531 722.148438 806.15625 725.515625 805.792969 C 726.957031 805.671875 728.398438 805.3125 729.839844 805.074219 C 731.644531 804.832031 733.328125 804.59375 735.128906 804.230469 C 736.933594 803.871094 738.734375 803.269531 740.535156 802.789062 C 741.859375 802.429688 743.179688 802.066406 744.382812 801.707031 C 746.304688 801.105469 748.226562 800.386719 750.03125 799.664062 C 751.113281 799.183594 752.195312 798.824219 753.277344 798.34375 C 755.078125 797.5 756.882812 796.660156 758.683594 795.699219 C 759.765625 795.097656 760.847656 794.496094 761.929688 793.894531 C 763.609375 792.933594 765.171875 791.972656 766.734375 791.011719 C 768.058594 790.171875 769.257812 789.210938 770.582031 788.367188 C 771.785156 787.40625 773.105469 786.566406 774.308594 785.605469 C 776.230469 784.042969 778.152344 782.359375 780.074219 780.554688 C 780.554688 780.195312 780.917969 779.835938 781.398438 779.355469 C 783.921875 776.949219 786.085938 774.308594 788.246094 771.542969 C 785.964844 761.6875 777.070312 755.4375 752.433594 744.984375 Z M 715.539062 617.59375 C 663.382812 617.59375 621.078125 660.019531 621.078125 712.054688 C 621.078125 723.59375 623.242188 734.648438 627.089844 744.984375 C 637.90625 732.84375 654.128906 726.234375 669.152344 719.988281 L 670.714844 719.386719 C 668.429688 713.257812 667.109375 706.527344 667.109375 699.4375 C 667.109375 670.234375 688.859375 646.558594 715.539062 646.558594 C 742.21875 646.558594 763.972656 670.234375 763.972656 699.4375 C 763.972656 706.40625 762.648438 713.015625 760.488281 719.023438 L 762.890625 720.105469 C 776.949219 725.996094 793.054688 732.84375 803.992188 745.105469 C 807.835938 734.769531 810 723.710938 810 712.054688 C 810 660.019531 767.578125 617.59375 715.539062 617.59375 Z M 499.582031 87.609375 L 499.582031 57.324219 L 310.539062 57.324219 L 310.539062 87.609375 C 373.273438 104.554688 436.726562 104.554688 499.582031 87.609375 Z M 392.621094 720.585938 C 396.105469 723.59375 400.433594 725.394531 405 725.394531 C 409.808594 725.394531 414.132812 723.472656 417.738281 720.226562 C 420.984375 717.34375 423.507812 713.257812 425.070312 708.691406 C 425.910156 705.804688 426.511719 702.800781 426.511719 699.554688 C 426.511719 685.253906 416.898438 673.71875 405 673.71875 C 393.101562 673.71875 383.488281 685.253906 383.488281 699.554688 C 383.488281 702.921875 384.089844 706.167969 385.050781 709.171875 C 386.613281 713.738281 389.257812 717.703125 392.621094 720.585938 Z M 94.460938 617.59375 C 42.300781 617.59375 0 660.019531 0 712.054688 C 0 723.59375 2.164062 734.648438 6.007812 744.984375 C 16.824219 732.84375 33.050781 726.234375 48.070312 719.988281 L 49.632812 719.386719 C 47.351562 713.257812 46.027344 706.527344 46.027344 699.4375 C 46.027344 670.234375 67.78125 646.558594 94.460938 646.558594 C 121.140625 646.558594 142.890625 670.234375 142.890625 699.4375 C 142.890625 706.40625 141.570312 713.015625 139.40625 719.023438 L 141.808594 720.105469 C 155.871094 725.996094 171.976562 732.84375 182.789062 745.105469 C 186.636719 734.769531 188.800781 723.710938 188.800781 712.054688 C 189.039062 660.019531 146.617188 617.59375 94.460938 617.59375 Z M 441.894531 744.984375 L 434.082031 741.617188 C 426.03125 748.230469 415.9375 752.195312 405 752.195312 C 394.304688 752.195312 384.328125 748.347656 376.277344 741.859375 L 368.945312 744.984375 C 344.550781 754.957031 334.816406 760.726562 332.171875 771.785156 C 336.019531 776.46875 340.34375 780.917969 345.03125 784.761719 C 345.632812 785.242188 346.234375 785.722656 346.832031 786.203125 C 349.597656 788.367188 352.480469 790.410156 355.367188 792.332031 C 355.488281 792.453125 355.605469 792.453125 355.726562 792.574219 C 358.492188 794.257812 361.375 795.820312 364.257812 797.261719 C 364.5 797.382812 364.621094 797.5 364.859375 797.5 C 367.746094 798.824219 370.628906 800.023438 373.632812 801.105469 C 373.875 801.226562 374.113281 801.347656 374.355469 801.347656 C 377.238281 802.308594 380.242188 803.148438 383.246094 803.871094 C 383.609375 803.992188 383.96875 804.109375 384.449219 804.109375 C 387.332031 804.710938 390.21875 805.191406 393.101562 805.554688 C 393.582031 805.671875 394.0625 805.671875 394.664062 805.792969 C 398.03125 806.152344 401.515625 806.394531 404.878906 806.394531 C 408.246094 806.394531 411.609375 806.15625 414.976562 805.792969 C 416.417969 805.671875 417.859375 805.3125 419.421875 805.074219 C 421.222656 804.832031 422.90625 804.59375 424.710938 804.230469 C 426.511719 803.871094 428.316406 803.269531 430.117188 802.789062 C 431.4375 802.429688 432.761719 802.066406 433.960938 801.707031 C 435.886719 801.105469 437.808594 800.386719 439.609375 799.664062 C 440.691406 799.183594 441.773438 798.824219 442.855469 798.34375 C 444.660156 797.5 446.460938 796.660156 448.265625 795.699219 C 449.34375 795.097656 450.425781 794.496094 451.507812 793.894531 C 453.191406 792.933594 454.753906 791.972656 456.316406 791.011719 C 457.636719 790.171875 458.839844 789.210938 460.160156 788.367188 C 461.363281 787.40625 462.683594 786.566406 463.886719 785.605469 C 465.808594 784.042969 467.734375 782.359375 469.65625 780.554688 C 470.136719 780.195312 470.496094 779.835938 470.976562 779.355469 C 473.5 776.949219 475.664062 774.308594 477.828125 771.542969 C 475.425781 761.6875 466.53125 755.4375 441.894531 744.984375 Z M 131.355469 744.984375 L 123.542969 741.617188 C 115.492188 748.230469 105.394531 752.195312 94.460938 752.195312 C 83.765625 752.195312 73.789062 748.347656 65.738281 741.859375 L 58.285156 744.984375 C 33.890625 754.957031 24.15625 760.726562 21.511719 771.785156 C 25.359375 776.46875 29.683594 780.917969 34.371094 784.761719 C 34.972656 785.242188 35.574219 785.722656 36.171875 786.203125 C 38.9375 788.367188 41.820312 790.410156 44.707031 792.332031 C 44.828125 792.453125 44.945312 792.453125 45.066406 792.574219 C 47.832031 794.257812 50.714844 795.820312 53.597656 797.261719 C 53.839844 797.382812 53.960938 797.5 54.199219 797.5 C 57.085938 798.824219 59.96875 800.023438 62.972656 801.105469 C 63.214844 801.226562 63.453125 801.347656 63.816406 801.347656 C 66.699219 802.308594 69.703125 803.148438 72.707031 803.871094 C 73.066406 803.992188 73.429688 804.109375 73.910156 804.109375 C 76.792969 804.710938 79.679688 805.191406 82.5625 805.554688 C 83.042969 805.671875 83.644531 805.792969 84.125 805.792969 C 87.488281 806.152344 90.976562 806.394531 94.339844 806.394531 C 97.703125 806.394531 101.070312 806.15625 104.433594 805.792969 C 105.875 805.671875 107.320312 805.3125 108.761719 805.074219 C 110.5625 804.832031 112.246094 804.59375 114.050781 804.230469 C 115.851562 803.871094 117.652344 803.269531 119.457031 802.789062 C 120.777344 802.429688 122.101562 802.066406 123.300781 801.707031 C 125.226562 801.105469 127.148438 800.386719 128.949219 799.664062 C 130.03125 799.183594 131.113281 798.824219 132.195312 798.34375 C 134 797.5 135.800781 796.660156 137.605469 795.699219 C 138.683594 795.097656 139.765625 794.496094 140.847656 793.894531 C 142.53125 792.933594 144.09375 791.972656 145.65625 791.011719 C 146.976562 790.171875 148.179688 789.210938 149.5 788.367188 C 150.703125 787.40625 152.023438 786.566406 153.226562 785.605469 C 155.148438 784.042969 157.074219 782.359375 158.996094 780.554688 C 159.476562 780.195312 159.835938 779.835938 160.316406 779.355469 C 162.839844 776.949219 165.003906 774.308594 167.167969 771.542969 C 164.882812 761.6875 155.992188 755.4375 131.355469 744.984375 Z M 82.082031 720.585938 C 85.566406 723.59375 89.894531 725.394531 94.460938 725.394531 C 99.265625 725.394531 103.59375 723.472656 107.199219 720.226562 C 110.445312 717.34375 112.96875 713.257812 114.53125 708.691406 C 115.371094 705.804688 115.972656 702.800781 115.972656 699.554688 C 115.972656 685.253906 106.359375 673.71875 94.460938 673.71875 C 82.5625 673.71875 72.949219 685.253906 72.949219 699.554688 C 72.949219 702.921875 73.550781 706.167969 74.511719 709.171875 C 76.074219 713.738281 78.714844 717.703125 82.082031 720.585938 Z M 405 617.59375 C 352.84375 617.59375 310.539062 660.019531 310.539062 712.054688 C 310.539062 723.59375 312.703125 734.648438 316.550781 744.984375 C 327.363281 732.84375 343.589844 726.234375 358.609375 719.988281 L 360.171875 719.386719 C 357.890625 713.257812 356.566406 706.527344 356.566406 699.4375 C 356.566406 670.234375 378.320312 646.558594 405 646.558594 C 431.679688 646.558594 453.433594 670.234375 453.433594 699.4375 C 453.433594 706.40625 452.109375 713.015625 449.945312 719.023438 L 452.351562 720.105469 C 466.410156 725.996094 482.515625 732.84375 493.449219 745.105469 C 497.296875 734.769531 499.460938 723.710938 499.460938 712.054688 C 499.460938 660.019531 457.15625 617.59375 405 617.59375 Z M 458.960938 347.675781 C 454.394531 347.675781 449.828125 348.15625 445.5 348.996094 C 440.8125 349.957031 436.246094 351.402344 432.039062 353.324219 C 427.234375 355.488281 422.667969 358.128906 418.582031 361.253906 C 402.234375 373.632812 391.539062 393.101562 391.539062 415.09375 C 391.539062 437.085938 402.234375 456.675781 418.582031 468.933594 C 422.785156 472.058594 427.234375 474.824219 432.039062 476.867188 C 436.367188 478.789062 440.8125 480.230469 445.5 481.191406 C 449.828125 482.035156 454.394531 482.515625 458.960938 482.515625 C 472.660156 482.515625 485.519531 478.429688 496.09375 471.339844 C 503.667969 466.289062 510.15625 459.800781 515.203125 452.230469 C 522.292969 441.535156 526.378906 428.796875 526.378906 415.09375 C 526.5 377.960938 496.214844 347.675781 458.960938 347.675781 Z M 515.445312 490.6875 L 593.917969 569.164062 L 613.027344 550.054688 L 534.550781 471.578125 C 529.144531 478.910156 522.773438 485.277344 515.445312 490.6875 Z M 175.460938 131.59375 L 256.460938 131.59375 L 256.460938 104.554688 L 148.417969 104.554688 L 148.417969 253.09375 L 175.460938 253.09375 Z M 634.539062 253.09375 L 661.582031 253.09375 L 661.582031 104.554688 L 553.539062 104.554688 L 553.539062 131.59375 L 634.539062 131.59375 Z M 634.539062 253.09375 "/></g></svg>