<svg xmlns="http://www.w3.org/2000/svg" xmlns:xlink="http://www.w3.org/1999/xlink" width="1080" zoomAndPan="magnify" viewBox="0 0 810 809.999993" height="1080" preserveAspectRatio="xMidYMid meet" version="1.2"><g id="e35dbe82a1"><path style=" stroke:none;fill-rule:nonzero;fill:#000000;fill-opacity:1;" d="M 391.277344 190.425781 C 391.277344 135.375 435.910156 90.75 490.972656 90.75 C 546.039062 90.75 590.671875 135.375 590.671875 190.425781 C 590.671875 216.085938 582.890625 229.382812 574.070312 244.453125 C 563.023438 263.324219 550.601562 284.554688 546.257812 328.523438 L 523.492188 328.523438 L 523.492188 230.496094 L 536.644531 230.496094 C 558.253906 230.496094 575.890625 212.863281 575.890625 191.253906 C 575.890625 169.648438 558.257812 152.011719 536.644531 152.011719 C 515.03125 152.011719 497.394531 169.644531 497.394531 191.253906 L 497.394531 204.402344 L 484.554688 204.402344 L 484.554688 191.253906 C 484.554688 169.648438 466.917969 152.011719 445.304688 152.011719 C 423.695312 152.011719 406.058594 169.644531 406.058594 191.253906 C 406.058594 212.863281 423.691406 230.496094 445.304688 230.496094 L 458.457031 230.496094 L 458.457031 328.523438 L 435.6875 328.523438 C 431.347656 284.554688 418.921875 263.324219 407.878906 244.453125 C 399.058594 229.382812 391.277344 216.085938 391.277344 190.425781 Z M 710.128906 781.28125 L 686.539062 805.585938 C 682.398438 809.851562 675.515625 809.957031 671.246094 805.816406 L 605.914062 742.429688 C 601.644531 738.289062 601.539062 731.40625 605.683594 727.136719 L 606.921875 725.859375 L 570.535156 690.179688 C 549.730469 708.007812 522.703125 718.78125 493.152344 718.78125 C 427.449219 718.78125 374.183594 665.527344 374.183594 599.832031 C 374.183594 534.136719 427.449219 480.882812 493.152344 480.882812 C 558.859375 480.882812 612.125 534.136719 612.125 599.832031 C 612.125 625.160156 604.203125 648.640625 590.703125 667.929688 L 627.820312 704.324219 L 629.269531 702.832031 C 633.414062 698.566406 640.296875 698.460938 644.566406 702.601562 L 709.898438 765.988281 C 714.164062 770.132812 714.273438 777.011719 710.128906 781.28125 Z M 590.328125 599.832031 C 590.328125 546.175781 546.820312 502.675781 493.152344 502.675781 C 439.488281 502.675781 395.980469 546.179688 395.980469 599.832031 C 395.980469 653.488281 439.488281 696.988281 493.152344 696.988281 C 546.820312 696.988281 590.328125 653.488281 590.328125 599.832031 Z M 493.152344 528.769531 C 453.898438 528.769531 422.078125 560.582031 422.078125 599.832031 C 422.078125 639.082031 453.898438 670.894531 493.152344 670.894531 C 532.410156 670.894531 564.230469 639.082031 564.230469 599.832031 C 564.230469 560.582031 532.410156 528.769531 493.152344 528.769531 Z M 324.984375 279.035156 C 284.941406 279.035156 252.484375 311.484375 252.484375 351.519531 C 252.484375 391.554688 284.941406 424.003906 324.984375 424.003906 C 365.027344 424.003906 397.484375 391.554688 397.484375 351.519531 C 397.480469 311.484375 365.027344 279.035156 324.984375 279.035156 Z M 644.78125 135.882812 L 667.78125 122.605469 C 674.003906 119.003906 676.125 111.039062 672.519531 104.820312 C 668.917969 98.601562 660.953125 96.480469 654.734375 100.082031 L 631.734375 113.359375 C 625.511719 116.960938 623.386719 124.921875 626.992188 131.144531 C 630.597656 137.359375 638.5625 139.484375 644.78125 135.882812 Z M 569.535156 73.644531 C 575.757812 77.21875 583.699219 75.070312 587.273438 68.851562 L 600.550781 45.855469 C 604.125 39.636719 601.980469 31.695312 595.757812 28.121094 C 589.539062 24.546875 581.59375 26.695312 578.023438 32.914062 L 564.742188 55.910156 C 561.167969 62.128906 563.3125 70.070312 569.535156 73.644531 Z M 460.59375 458.46875 C 452.523438 452.558594 447.71875 443.203125 447.71875 433.160156 L 447.71875 425.246094 C 444.121094 423.664062 440.875 421.425781 438.132812 418.683594 C 432.949219 413.503906 429.5625 406.519531 429.007812 398.773438 C 427.046875 403.085938 424.8125 407.277344 422.320312 411.324219 L 431.925781 432.953125 L 406.429688 458.445312 L 384.804688 448.839844 C 374.511719 455.183594 363.269531 459.84375 351.507812 462.644531 L 343.011719 484.707031 L 306.957031 484.707031 L 298.457031 462.636719 C 286.695312 459.839844 275.460938 455.175781 265.167969 448.839844 L 243.535156 458.445312 L 218.039062 432.953125 L 227.644531 411.332031 C 221.300781 401.039062 216.636719 389.804688 213.839844 378.039062 L 191.769531 369.546875 L 191.769531 333.496094 L 213.84375 325.003906 C 216.640625 313.242188 221.304688 302.007812 227.644531 291.714844 L 218.039062 270.089844 L 243.535156 244.597656 L 265.167969 254.203125 C 275.460938 247.867188 286.695312 243.203125 298.457031 240.40625 L 306.957031 218.335938 L 343.011719 218.335938 L 351.507812 240.40625 C 362.496094 243.019531 373.023438 247.261719 382.753906 252.976562 C 373.144531 236.34375 365.179688 220.21875 365.179688 190.429688 C 365.179688 184.75 365.558594 179.15625 366.289062 173.675781 C 353.003906 170.660156 339.179688 169.0625 324.984375 169.0625 C 222.382812 169.0625 139.210938 252.21875 139.210938 354.800781 C 139.210938 361.128906 139.527344 367.382812 140.148438 373.546875 C 141.488281 386.90625 139.21875 398.710938 133.015625 410.617188 C 126.277344 423.558594 117.132812 436.289062 105.585938 448.8125 C 95.652344 461.503906 99.070312 471.949219 115.84375 480.148438 C 124.460938 484.613281 127.09375 492.296875 121.519531 511.382812 C 118.03125 519.496094 134.21875 529.625 146.824219 530.628906 C 131.835938 538.765625 117.253906 551.734375 130.339844 561.828125 C 136.253906 566.25 140.183594 574.589844 140.347656 597.515625 C 139.660156 612.292969 155.617188 616.847656 188.21875 611.191406 C 237.089844 600.101562 265.773438 618.332031 274.265625 665.886719 L 363.972656 665.886719 C 353.816406 646.074219 348.085938 623.625 348.085938 599.832031 C 348.085938 530.933594 396.160156 473.25 460.59375 458.46875 Z M 490.972656 52.644531 C 498.179688 52.644531 504.023438 46.804688 504.023438 39.601562 L 504.023438 13.046875 C 504.023438 5.84375 498.179688 0 490.972656 0 C 483.769531 0 477.925781 5.84375 477.925781 13.046875 L 477.925781 39.601562 C 477.925781 46.804688 483.769531 52.644531 490.972656 52.644531 Z M 484.554688 230.496094 L 484.554688 328.523438 L 497.394531 328.523438 L 497.394531 230.496094 Z M 545.296875 359.890625 L 545.296875 354.617188 L 436.703125 354.617188 L 436.703125 359.890625 C 436.703125 362.761719 439.101562 365.160156 441.976562 365.160156 L 539.976562 365.160156 C 542.835938 365.160156 545.296875 362.769531 545.296875 359.890625 Z M 445.304688 178.105469 C 438.101562 178.105469 432.15625 184.050781 432.15625 191.257812 C 432.15625 198.460938 438.101562 204.40625 445.304688 204.40625 L 458.457031 204.40625 L 458.457031 191.257812 C 458.457031 184.050781 452.511719 178.105469 445.304688 178.105469 Z M 314.167969 122.605469 L 337.167969 135.878906 C 343.386719 139.484375 351.351562 137.359375 354.953125 131.140625 C 358.558594 124.921875 356.4375 116.957031 350.214844 113.355469 L 327.214844 100.078125 C 320.992188 96.476562 313.03125 98.597656 309.425781 104.820312 C 305.820312 111.039062 307.945312 119 314.167969 122.605469 Z M 549.792969 191.257812 C 549.792969 184.050781 543.847656 178.105469 536.644531 178.105469 C 529.4375 178.105469 523.492188 184.050781 523.492188 191.257812 L 523.492188 204.40625 L 536.644531 204.40625 C 543.847656 204.40625 549.792969 198.460938 549.792969 191.257812 Z M 394.675781 68.902344 C 398.277344 75.121094 406.242188 77.246094 412.464844 73.640625 C 418.683594 70.039062 420.808594 62.078125 417.203125 55.855469 L 403.925781 32.863281 C 400.320312 26.640625 392.355469 24.519531 386.136719 28.121094 C 379.914062 31.726562 377.792969 39.6875 381.394531 45.90625 Z M 479.085938 438.433594 L 502.863281 438.433594 C 505.738281 438.433594 508.136719 436.035156 508.136719 433.160156 L 508.136719 427.886719 L 473.8125 427.886719 L 473.8125 433.160156 C 473.8125 436.035156 476.210938 438.433594 479.085938 438.433594 Z M 526.921875 396.523438 L 526.921875 391.253906 L 455.023438 391.253906 L 455.023438 396.523438 C 455.023438 399.398438 457.425781 401.796875 460.296875 401.796875 L 521.652344 401.796875 C 524.527344 401.796875 526.921875 399.398438 526.921875 396.523438 Z M 526.921875 396.523438 "/></g></svg>