<svg xmlns="http://www.w3.org/2000/svg" xmlns:xlink="http://www.w3.org/1999/xlink" width="1080" zoomAndPan="magnify" viewBox="0 0 810 809.999993" height="1080" preserveAspectRatio="xMidYMid meet" version="1.2"><defs><clipPath id="6ff6d398bf"><path d="M 23 0.75 L 789.507812 0.75 L 789.507812 810 L 23 810 Z M 23 0.75 "/></clipPath></defs><g id="380d0a1204"><g clip-rule="nonzero" clip-path="url(#6ff6d398bf)"><path style=" stroke:none;fill-rule:nonzero;fill:#000000;fill-opacity:1;" d="M 344.160156 490.410156 C 319.835938 466.097656 287.878906 453.929688 255.90625 453.929688 C 223.953125 453.929688 191.996094 466.097656 167.671875 490.410156 C 144.082031 513.996094 131.078125 545.339844 131.078125 578.679688 C 131.078125 608.269531 141.347656 636.269531 160.160156 658.664062 L 128.515625 690.328125 L 116.4375 678.289062 L 31.929688 762.816406 C 20.976562 773.765625 20.976562 791.589844 31.929688 802.535156 L 31.945312 802.550781 C 37.214844 807.839844 44.277344 810.75 51.828125 810.75 C 59.375 810.75 66.4375 807.839844 71.710938 802.550781 L 156.285156 718.007812 L 144.226562 705.988281 L 175.875 674.351562 C 224.84375 715.363281 298.136719 712.894531 344.160156 666.886719 C 367.753906 643.335938 380.738281 612.011719 380.738281 578.683594 C 380.738281 545.339844 367.753906 513.996094 344.160156 490.410156 Z M 317.363281 640.066406 C 300.945312 656.492188 279.125 665.539062 255.90625 665.539062 C 232.707031 665.539062 210.871094 656.496094 194.46875 640.066406 C 160.59375 606.203125 160.59375 551.113281 194.46875 517.25 C 211.410156 500.316406 233.667969 491.84375 255.90625 491.84375 C 278.164062 491.84375 300.421875 500.316406 317.363281 517.25 C 351.238281 551.113281 351.238281 606.203125 317.363281 640.066406 Z M 284.511719 387.339844 L 334.738281 387.339844 C 341.199219 387.339844 347.65625 388.039062 354.019531 389.40625 C 361.164062 400.027344 370.210938 409.25 380.6875 416.601562 C 359.78125 422.050781 340.453125 432.832031 324.699219 448.089844 C 285.992188 427.742188 240.042969 425.738281 199.921875 442.136719 C 214.644531 409.671875 247.578125 387.339844 284.511719 387.339844 Z M 371.285156 254.929688 C 350.019531 273.859375 336.578125 301.414062 336.578125 332.054688 C 336.578125 340.984375 337.714844 349.652344 339.863281 357.917969 C 330.394531 362.261719 320.113281 364.570312 309.648438 364.570312 C 269.851562 364.570312 237.472656 332.203125 237.472656 292.417969 C 237.472656 252.652344 269.851562 220.300781 309.648438 220.300781 C 334.949219 220.300781 358.300781 233.65625 371.285156 254.929688 Z M 359.375 332.058594 C 359.375 287.671875 395.476562 251.5625 439.847656 251.5625 C 484.234375 251.5625 520.324219 287.671875 520.324219 332.058594 C 520.324219 376.429688 484.234375 412.519531 439.847656 412.519531 C 395.476562 412.519531 359.375 376.425781 359.375 332.058594 Z M 351.804688 64.683594 C 353.296875 60.09375 357.523438 56.941406 362.351562 56.816406 L 412.398438 55.542969 L 429.109375 8.339844 C 430.71875 3.792969 435.019531 0.75 439.847656 0.75 C 439.851562 0.75 439.851562 0.75 439.851562 0.75 C 444.679688 0.753906 448.980469 3.796875 450.589844 8.347656 L 467.257812 55.542969 L 517.34375 56.820312 C 522.171875 56.941406 526.394531 60.09375 527.886719 64.683594 C 529.378906 69.273438 527.816406 74.308594 523.984375 77.242188 L 484.226562 107.695312 L 498.503906 155.742188 C 499.878906 160.371094 498.183594 165.359375 494.277344 168.199219 C 492.285156 169.644531 489.933594 170.371094 487.582031 170.371094 C 485.328125 170.371094 483.070312 169.703125 481.121094 168.363281 L 439.847656 139.9375 L 398.574219 168.363281 C 394.597656 171.097656 389.324219 171.035156 385.417969 168.199219 C 381.507812 165.359375 379.816406 160.371094 381.191406 155.742188 L 395.46875 107.695312 L 355.707031 77.242188 C 351.878906 74.304688 350.3125 69.273438 351.804688 64.683594 Z M 402.019531 599.921875 C 403.027344 592.945312 403.53125 585.855469 403.53125 578.679688 C 403.53125 539.253906 388.171875 502.203125 360.265625 474.308594 C 355.304688 469.347656 350.066406 464.808594 344.613281 460.726562 C 363.292969 444.429688 387.308594 435.289062 412.21875 435.289062 L 467.472656 435.289062 C 524.355469 435.289062 570.644531 481.5625 570.644531 538.425781 L 570.644531 568.695312 C 532.6875 590.816406 487.601562 602.476562 439.847656 602.476562 C 427.191406 602.476562 414.496094 601.613281 402.019531 599.921875 Z M 95.253906 464.917969 C 91.933594 445.480469 90.246094 425.554688 90.246094 405.691406 C 90.246094 333.824219 111.921875 264.78125 152.921875 206.027344 C 192.988281 148.617188 248.53125 104.953125 313.554688 79.761719 C 319.421875 77.492188 326.023438 80.398438 328.296875 86.261719 C 330.570312 92.125 327.65625 98.722656 321.789062 100.996094 C 196.925781 149.375 113.03125 271.824219 113.03125 405.691406 C 113.03125 424.273438 114.605469 442.910156 117.710938 461.082031 C 118.769531 467.28125 114.601562 473.167969 108.402344 474.226562 C 107.753906 474.335938 107.105469 474.390625 106.46875 474.390625 C 101.019531 474.390625 96.199219 470.46875 95.253906 464.917969 Z M 789.402344 405.691406 C 789.402344 499.042969 753.046875 586.796875 687.03125 652.789062 C 621.015625 718.78125 533.230469 755.125 439.851562 755.125 C 412.804688 755.125 385.839844 752.015625 359.714844 745.878906 C 353.589844 744.441406 349.789062 738.3125 351.230469 732.1875 C 352.667969 726.066406 358.800781 722.273438 364.925781 723.707031 C 389.347656 729.441406 414.554688 732.347656 439.851562 732.347656 C 620.03125 732.347656 766.621094 585.8125 766.621094 405.691406 C 766.621094 271.816406 682.742188 149.367188 557.90625 100.996094 C 552.039062 98.722656 549.128906 92.128906 551.402344 86.261719 C 553.675781 80.398438 560.277344 77.492188 566.140625 79.761719 C 631.160156 104.953125 686.699219 148.617188 726.75 206.027344 C 767.738281 264.777344 789.402344 333.820312 789.402344 405.691406 Z M 642.222656 292.417969 C 642.222656 332.203125 609.84375 364.570312 570.046875 364.570312 C 559.582031 364.570312 549.300781 362.261719 539.832031 357.917969 C 541.980469 349.65625 543.117188 340.988281 543.117188 332.058594 C 543.117188 301.414062 529.679688 273.859375 508.414062 254.929688 C 521.398438 233.65625 544.746094 220.300781 570.046875 220.300781 C 609.84375 220.300781 642.222656 252.652344 642.222656 292.417969 Z M 593.378906 536.183594 C 592.351562 478.652344 552.585938 430.410156 499.089844 416.535156 C 509.535156 409.199219 518.566406 400.011719 525.675781 389.40625 C 532.035156 388.039062 538.496094 387.34375 544.957031 387.34375 L 595.183594 387.34375 C 646.320312 387.34375 687.941406 428.929688 687.941406 480.070312 L 687.941406 506.988281 C 660.136719 523.089844 627.757812 533.042969 593.378906 536.183594 Z M 593.378906 536.183594 "/></g></g></svg>