<svg xmlns="http://www.w3.org/2000/svg" xmlns:xlink="http://www.w3.org/1999/xlink" width="955" zoomAndPan="magnify" viewBox="0 0 716.25 783.749977" height="1045" preserveAspectRatio="xMidYMid meet" version="1.2"><defs><clipPath id="b5e8b86d20"><path d="M 389 456 L 715.5 456 L 715.5 783 L 389 783 Z M 389 456 "/></clipPath><clipPath id="aede968c15"><path d="M 0 0.285156 L 624 0.285156 L 624 625 L 0 625 Z M 0 0.285156 "/></clipPath><clipPath id="bf7499cde7"><path d="M 389 456 L 715.5 456 L 715.5 783 L 389 783 Z M 389 456 "/></clipPath><clipPath id="4dc7a9c7a6"><path d="M 0 0.285156 L 624 0.285156 L 624 625 L 0 625 Z M 0 0.285156 "/></clipPath></defs><g id="cd982cf9dd"><g clip-rule="nonzero" clip-path="url(#b5e8b86d20)"><path style=" stroke:none;fill-rule:nonzero;fill:#ffffff;fill-opacity:1;" d="M 389.023438 456.921875 L 482.445312 732.210938 L 537.320312 650.089844 C 538.734375 647.976562 541.066406 646.652344 543.613281 646.53125 C 543.738281 646.527344 543.867188 646.523438 543.992188 646.523438 C 546.394531 646.523438 548.683594 647.601562 550.214844 649.476562 L 659.105469 782.933594 L 715.035156 727.003906 L 581.578125 618.109375 C 579.605469 616.5 578.515625 614.046875 578.632812 611.503906 C 578.757812 608.960938 580.074219 606.632812 582.195312 605.214844 L 664.308594 550.339844 L 562.285156 515.722656 L 562.277344 515.722656 L 389.023438 456.921875 "/></g><g clip-rule="nonzero" clip-path="url(#aede968c15)"><path style=" stroke:none;fill-rule:nonzero;fill:#ffffff;fill-opacity:1;" d="M 323.484375 316.835938 L 323.484375 251.296875 C 323.484375 246.867188 327.074219 243.269531 331.511719 243.269531 L 364.367188 243.269531 C 368.800781 243.269531 372.394531 246.867188 372.394531 251.296875 L 372.394531 316.171875 C 372.394531 322.28125 373.613281 326.707031 376.027344 329.328125 C 377.480469 330.910156 380.066406 332.992188 385.886719 332.992188 C 391.78125 332.992188 394.398438 330.980469 395.851562 329.460938 C 398.1875 327.027344 399.375 322.832031 399.375 317.007812 L 399.375 251.296875 C 399.375 246.867188 402.964844 243.269531 407.398438 243.269531 L 440.257812 243.269531 C 444.6875 243.269531 448.285156 246.867188 448.285156 251.296875 L 448.285156 316.007812 C 448.285156 336.46875 442.570312 352.160156 431.296875 362.65625 C 420.1875 372.996094 404.796875 378.238281 385.550781 378.238281 C 366.394531 378.238281 351.132812 373.015625 340.183594 362.714844 C 329.105469 352.28125 323.484375 336.847656 323.484375 316.835938 Z M 314.855469 232.738281 L 273.265625 394.640625 C 272.386719 398.078125 269.34375 400.53125 265.796875 400.667969 L 241.683594 401.582031 C 241.578125 401.585938 241.476562 401.585938 241.378906 401.585938 C 238.964844 401.585938 236.671875 400.496094 235.148438 398.617188 C 233.554688 396.648438 232.976562 394.058594 233.589844 391.609375 L 274.128906 229.742188 C 274.996094 226.273438 278.046875 223.800781 281.617188 223.667969 L 306.785156 222.722656 C 309.28125 222.523438 311.746094 223.738281 313.332031 225.707031 C 314.921875 227.683594 315.492188 230.292969 314.855469 232.738281 Z M 225.621094 368.039062 C 225.621094 372.472656 222.03125 376.070312 217.59375 376.070312 L 185.078125 376.070312 C 180.644531 376.070312 177.050781 372.472656 177.050781 368.039062 L 177.050781 251.296875 C 177.050781 246.867188 180.644531 243.269531 185.078125 243.269531 L 217.59375 243.269531 C 222.03125 243.269531 225.621094 246.867188 225.621094 251.296875 Z M 166.261719 316.007812 C 166.261719 336.46875 160.546875 352.160156 149.277344 362.65625 C 138.167969 372.996094 122.769531 378.238281 103.527344 378.238281 C 84.371094 378.238281 69.109375 373.015625 58.167969 362.714844 C 47.085938 352.28125 41.464844 336.847656 41.464844 316.835938 L 41.464844 251.296875 C 41.464844 246.867188 45.058594 243.269531 49.492188 243.269531 L 82.347656 243.269531 C 86.777344 243.269531 90.371094 246.867188 90.371094 251.296875 L 90.371094 316.171875 C 90.371094 322.28125 91.59375 326.707031 94.007812 329.328125 C 95.457031 330.90625 98.046875 332.992188 103.863281 332.992188 C 108.292969 332.992188 111.550781 331.839844 113.824219 329.464844 C 116.167969 327.023438 117.351562 322.832031 117.351562 317.007812 L 117.351562 251.296875 C 117.351562 246.867188 120.941406 243.269531 125.378906 243.269531 L 158.234375 243.269531 C 162.667969 243.269531 166.261719 246.867188 166.261719 251.296875 Z M 453.179688 363.554688 L 490.191406 308.648438 L 454.828125 255.757812 C 453.179688 253.296875 453.027344 250.125 454.425781 247.511719 C 455.820312 244.898438 458.535156 243.269531 461.503906 243.269531 L 498.695312 243.269531 C 501.453125 243.269531 504.015625 244.683594 505.484375 247.019531 L 519.402344 269.125 L 533.449219 246.996094 C 534.921875 244.671875 537.472656 243.269531 540.222656 243.269531 L 576.582031 243.269531 C 579.546875 243.269531 582.269531 244.902344 583.664062 247.519531 C 585.0625 250.144531 584.894531 253.308594 583.238281 255.773438 L 547.890625 308.335938 L 584.917969 363.574219 C 586.566406 366.039062 586.726562 369.210938 585.332031 371.824219 C 583.933594 374.433594 581.210938 376.070312 578.246094 376.070312 L 541.054688 376.070312 C 538.308594 376.070312 535.75 374.664062 534.28125 372.34375 L 518.679688 347.785156 L 502.957031 372.367188 C 501.480469 374.675781 498.933594 376.070312 496.195312 376.070312 L 459.835938 376.070312 C 456.867188 376.070312 454.140625 374.433594 452.746094 371.8125 C 451.351562 369.195312 451.515625 366.011719 453.179688 363.554688 Z M 370.519531 438.421875 C 372.679688 436.253906 375.886719 435.523438 378.773438 436.492188 L 561.972656 498.664062 C 602.554688 444.441406 623.972656 380.078125 623.972656 312.152344 C 623.972656 140.1875 484.066406 0.285156 312.105469 0.285156 C 140.136719 0.285156 0.234375 140.1875 0.234375 312.152344 C 0.234375 484.117188 140.136719 624.019531 312.105469 624.019531 C 349.878906 624.019531 386.8125 617.292969 421.988281 604.027344 L 368.59375 446.675781 C 367.613281 443.78125 368.359375 440.574219 370.519531 438.421875 "/></g><g clip-rule="nonzero" clip-path="url(#bf7499cde7)"><path style=" stroke:none;fill-rule:nonzero;fill:#ffffff;fill-opacity:1;" d="M 389.023438 456.921875 L 482.445312 732.210938 L 537.320312 650.089844 C 538.734375 647.976562 541.066406 646.652344 543.613281 646.53125 C 543.738281 646.527344 543.867188 646.523438 543.992188 646.523438 C 546.394531 646.523438 548.683594 647.601562 550.214844 649.476562 L 659.105469 782.933594 L 715.035156 727.003906 L 581.578125 618.109375 C 579.605469 616.5 578.515625 614.046875 578.632812 611.503906 C 578.757812 608.960938 580.074219 606.632812 582.195312 605.214844 L 664.308594 550.339844 L 562.285156 515.722656 L 562.277344 515.722656 L 389.023438 456.921875 "/></g><g clip-rule="nonzero" clip-path="url(#4dc7a9c7a6)"><path style=" stroke:none;fill-rule:nonzero;fill:#ffffff;fill-opacity:1;" d="M 323.484375 316.835938 L 323.484375 251.296875 C 323.484375 246.867188 327.074219 243.269531 331.511719 243.269531 L 364.367188 243.269531 C 368.800781 243.269531 372.394531 246.867188 372.394531 251.296875 L 372.394531 316.171875 C 372.394531 322.28125 373.613281 326.707031 376.027344 329.328125 C 377.480469 330.910156 380.066406 332.992188 385.886719 332.992188 C 391.78125 332.992188 394.398438 330.980469 395.851562 329.460938 C 398.1875 327.027344 399.375 322.832031 399.375 317.007812 L 399.375 251.296875 C 399.375 246.867188 402.964844 243.269531 407.398438 243.269531 L 440.257812 243.269531 C 444.6875 243.269531 448.285156 246.867188 448.285156 251.296875 L 448.285156 316.007812 C 448.285156 336.46875 442.570312 352.160156 431.296875 362.65625 C 420.1875 372.996094 404.796875 378.238281 385.550781 378.238281 C 366.394531 378.238281 351.132812 373.015625 340.183594 362.714844 C 329.105469 352.28125 323.484375 336.847656 323.484375 316.835938 Z M 314.855469 232.738281 L 273.265625 394.640625 C 272.386719 398.078125 269.34375 400.53125 265.796875 400.667969 L 241.683594 401.582031 C 241.578125 401.585938 241.476562 401.585938 241.378906 401.585938 C 238.964844 401.585938 236.671875 400.496094 235.148438 398.617188 C 233.554688 396.648438 232.976562 394.058594 233.589844 391.609375 L 274.128906 229.742188 C 274.996094 226.273438 278.046875 223.800781 281.617188 223.667969 L 306.785156 222.722656 C 309.28125 222.523438 311.746094 223.738281 313.332031 225.707031 C 314.921875 227.683594 315.492188 230.292969 314.855469 232.738281 Z M 225.621094 368.039062 C 225.621094 372.472656 222.03125 376.070312 217.59375 376.070312 L 185.078125 376.070312 C 180.644531 376.070312 177.050781 372.472656 177.050781 368.039062 L 177.050781 251.296875 C 177.050781 246.867188 180.644531 243.269531 185.078125 243.269531 L 217.59375 243.269531 C 222.03125 243.269531 225.621094 246.867188 225.621094 251.296875 Z M 166.261719 316.007812 C 166.261719 336.46875 160.546875 352.160156 149.277344 362.65625 C 138.167969 372.996094 122.769531 378.238281 103.527344 378.238281 C 84.371094 378.238281 69.109375 373.015625 58.167969 362.714844 C 47.085938 352.28125 41.464844 336.847656 41.464844 316.835938 L 41.464844 251.296875 C 41.464844 246.867188 45.058594 243.269531 49.492188 243.269531 L 82.347656 243.269531 C 86.777344 243.269531 90.371094 246.867188 90.371094 251.296875 L 90.371094 316.171875 C 90.371094 322.28125 91.59375 326.707031 94.007812 329.328125 C 95.457031 330.90625 98.046875 332.992188 103.863281 332.992188 C 108.292969 332.992188 111.550781 331.839844 113.824219 329.464844 C 116.167969 327.023438 117.351562 322.832031 117.351562 317.007812 L 117.351562 251.296875 C 117.351562 246.867188 120.941406 243.269531 125.378906 243.269531 L 158.234375 243.269531 C 162.667969 243.269531 166.261719 246.867188 166.261719 251.296875 Z M 453.179688 363.554688 L 490.191406 308.648438 L 454.828125 255.757812 C 453.179688 253.296875 453.027344 250.125 454.425781 247.511719 C 455.820312 244.898438 458.535156 243.269531 461.503906 243.269531 L 498.695312 243.269531 C 501.453125 243.269531 504.015625 244.683594 505.484375 247.019531 L 519.402344 269.125 L 533.449219 246.996094 C 534.921875 244.671875 537.472656 243.269531 540.222656 243.269531 L 576.582031 243.269531 C 579.546875 243.269531 582.269531 244.902344 583.664062 247.519531 C 585.0625 250.144531 584.894531 253.308594 583.238281 255.773438 L 547.890625 308.335938 L 584.917969 363.574219 C 586.566406 366.039062 586.726562 369.210938 585.332031 371.824219 C 583.933594 374.433594 581.210938 376.070312 578.246094 376.070312 L 541.054688 376.070312 C 538.308594 376.070312 535.75 374.664062 534.28125 372.34375 L 518.679688 347.785156 L 502.957031 372.367188 C 501.480469 374.675781 498.933594 376.070312 496.195312 376.070312 L 459.835938 376.070312 C 456.867188 376.070312 454.140625 374.433594 452.746094 371.8125 C 451.351562 369.195312 451.515625 366.011719 453.179688 363.554688 Z M 370.519531 438.421875 C 372.679688 436.253906 375.886719 435.523438 378.773438 436.492188 L 561.972656 498.664062 C 602.554688 444.441406 623.972656 380.078125 623.972656 312.152344 C 623.972656 140.1875 484.066406 0.285156 312.105469 0.285156 C 140.136719 0.285156 0.234375 140.1875 0.234375 312.152344 C 0.234375 484.117188 140.136719 624.019531 312.105469 624.019531 C 349.878906 624.019531 386.8125 617.292969 421.988281 604.027344 L 368.59375 446.675781 C 367.613281 443.78125 368.359375 440.574219 370.519531 438.421875 "/></g></g></svg>