<svg id="Layer_1" data-name="Layer 1" xmlns="http://www.w3.org/2000/svg" viewBox="0 0 400.02 153.03"><defs><style>.cls-1{fill:#2e3192;}.cls-2{fill:#bfd730;fill-rule:evenodd;}</style></defs><title>weareace</title><polygon class="cls-1" points="88.39 68.32 117.84 119.11 59.09 119.11 88.39 68.32"/><polygon class="cls-2" points="39.67 153.03 54.87 126.48 161.71 126.48 176.91 153.03 108.28 153.03 39.67 153.03"/><polygon class="cls-2" points="68.62 33.75 84.02 60.11 30.61 152.86 0 152.67 68.62 33.75"/><polygon class="cls-2" points="158.12 118.94 127.55 119.11 74.13 26.38 89.52 0 158.12 118.94"/><path class="cls-1" d="M368.23,292.51q-9.51,0-15.44-5.45a18.63,18.63,0,0,1-5.93-14.26,17.89,17.89,0,0,1,5.37-13.36q5.36-5.25,15.7-7.22l18.95-3.68c2.25-.44,3.76-1.11,4.53-2s1.16-2.5,1.16-4.78v-1c0-6.27-1.5-11-4.52-14.26s-7.47-4.89-13.31-4.89a22.72,22.72,0,0,0-12,3,19.49,19.49,0,0,0-7.56,9l-1.74,0-.07-8.69a37.24,37.24,0,0,1,11.25-6.34A35.38,35.38,0,0,1,377,216.07c8.72,0,15.46,2.13,20.15,6.36s7,10.33,7,18.25v38.93a10.58,10.58,0,0,0,1.19,5.57,3.89,3.89,0,0,0,3.44,1.88,9.71,9.71,0,0,0,2.71-.31l.81,3.36q-4.24,2.47-11,2.4a7.56,7.56,0,0,1-6.82-3.89,20.27,20.27,0,0,1-2.08-6.08,31.22,31.22,0,0,1-5.64,4.52,34,34,0,0,1-18.57,5.45m24.34-39.3-14.38,2.7q-8.69,1.74-13,5.53a12.47,12.47,0,0,0-4.35,9.86c0,4.14,1.16,7.33,3.53,9.59s5.68,3.37,10,3.37a22.54,22.54,0,0,0,12.52-3.37,21.24,21.24,0,0,0,5.69-5.57Z" transform="translate(-159.99 -139.48)"/><path class="cls-1" d="M483.9,278.79l-1.35,6.76a35.21,35.21,0,0,1-10.75,5.21,46.55,46.55,0,0,1-13.14,1.75q-16.87,0-27.32-10.41t-10.46-27.18q0-17.31,10.64-28.11t27.74-10.74a56.76,56.76,0,0,1,13,1.59,61.36,61.36,0,0,1,12.87,4.64q-1.11,3.13-1.79,5.55c-.46,1.6-.9,3.53-1.35,5.76h-2.18a21.57,21.57,0,0,0-8.21-8.89,22.54,22.54,0,0,0-11.86-3.2,21.43,21.43,0,0,0-18.13,9.28q-6.83,9.28-6.82,24.72,0,13.57,7.79,22.56a24.86,24.86,0,0,0,19.56,9,24.22,24.22,0,0,0,10.88-2.54,30.52,30.52,0,0,0,9.5-7.46Z" transform="translate(-159.99 -139.48)"/><path class="cls-1" d="M529,292.51c-10.38,0-18.81-3.48-25.23-10.41s-9.68-16-9.68-27.24q0-17.34,9.45-28.06t24.64-10.73h.14q15.38,0,23.46,8.7,7.11,7.66,8,21.36c.16,1.76.23,3.56.23,5.41l-.14,4.14v.08c-2.26-.36-5.92-.66-11-.9s-10.08-.38-15.14-.38H507.7v2.85q0,14.25,6.5,22c4.3,5.15,10.45,7.74,18.38,7.74a31.2,31.2,0,0,0,13.27-2.86,35.52,35.52,0,0,0,11.31-8.57l1.34,1.72c-.34,1.31-.62,2.44-.83,3.33s-.36,2.09-.51,3.45a44,44,0,0,1-13,6.29A53.43,53.43,0,0,1,529,292.51m16.91-44.64v-3c0-7-1.64-12.64-4.93-16.91a15.63,15.63,0,0,0-13-6.45q-10.05,0-15.13,9.07-3.6,6.28-4.72,17.27Z" transform="translate(-159.99 -139.48)"/></svg>